<?xml version="1.0" encoding="UTF-8"?>
<svg id="Capa_2" data-name="Capa 2" xmlns="http://www.w3.org/2000/svg" width="1583.16" height="1583.16" viewBox="0 0 1583.16 1583.16">
  <defs>
    <style>
      .cls-1 {
        fill: #fff;
      }
    </style>
  </defs>
  <g id="Socials">
    <g id="instagram">
      <g>
        <path class="cls-1" d="M655.08,791.58c0-75.4,61.11-136.55,136.51-136.55s136.55,61.14,136.55,136.55-61.14,136.55-136.55,136.55-136.51-61.14-136.51-136.55M581.27,791.58c0,116.16,94.16,210.33,210.33,210.33s210.33-94.16,210.33-210.33-94.16-210.33-210.33-210.33-210.33,94.16-210.33,210.33M961.1,572.91c-.01,27.15,21.99,49.16,49.13,49.17,27.15.01,49.16-21.99,49.17-49.13.01-27.15-21.99-49.16-49.13-49.17h-.02c-27.13.01-49.13,22-49.15,49.13M626.12,1124.99c-39.93-1.82-61.64-8.47-76.06-14.09-19.12-7.44-32.77-16.31-47.11-30.64-14.35-14.33-23.23-27.96-30.64-47.08-5.62-14.42-12.27-36.13-14.09-76.06-1.99-43.18-2.38-56.15-2.38-165.53s.43-122.32,2.38-165.53c1.82-39.93,8.52-61.6,14.09-76.06,7.44-19.12,16.31-32.77,30.64-47.11,14.33-14.35,27.96-23.23,47.11-30.64,14.42-5.62,36.13-12.27,76.06-14.09,43.18-1.99,56.15-2.38,165.48-2.38s122.32.43,165.53,2.38c39.93,1.82,61.6,8.52,76.06,14.09,19.12,7.41,32.77,16.31,47.11,30.64,14.35,14.33,23.19,27.99,30.64,47.11,5.62,14.42,12.27,36.13,14.09,76.06,1.99,43.21,2.38,56.15,2.38,165.53s-.4,122.32-2.38,165.53c-1.82,39.93-8.5,61.64-14.09,76.06-7.44,19.12-16.31,32.77-30.64,47.08s-27.99,23.19-47.11,30.64c-14.42,5.62-36.13,12.27-76.06,14.09-43.18,1.99-56.15,2.38-165.53,2.38s-122.32-.4-165.48-2.38M622.73,384.46c-43.6,1.99-73.4,8.9-99.42,19.03-26.95,10.46-49.76,24.48-72.56,47.25-22.8,22.76-36.79,45.61-47.25,72.56-10.13,26.04-17.04,55.82-19.03,99.42-2.02,43.67-2.48,57.64-2.48,168.87s.46,125.2,2.48,168.87c1.99,43.61,8.9,73.38,19.03,99.42,10.46,26.93,24.45,49.81,47.25,72.56,22.79,22.75,45.61,36.76,72.56,47.25,26.07,10.13,55.82,17.04,99.42,19.03,43.7,1.99,57.64,2.48,168.87,2.48s125.2-.46,168.87-2.48c43.61-1.99,73.38-8.9,99.42-19.03,26.93-10.49,49.76-24.48,72.56-47.25,22.8-22.76,36.76-45.63,47.25-72.56,10.13-26.04,17.07-55.82,19.03-99.42,1.99-43.71,2.45-57.64,2.45-168.87s-.46-125.2-2.45-168.87c-1.99-43.61-8.9-73.4-19.03-99.42-10.49-26.93-24.48-49.76-47.25-72.56-22.76-22.8-45.63-36.79-72.53-47.25-26.07-10.13-55.85-17.07-99.42-19.03-43.67-1.99-57.64-2.48-168.87-2.48s-125.21.46-168.9,2.48"/>
        <path class="cls-1" d="M655.08,791.58c0-75.4,61.11-136.55,136.51-136.55s136.55,61.14,136.55,136.55-61.14,136.55-136.55,136.55-136.51-61.14-136.51-136.55M581.27,791.58c0,116.16,94.16,210.33,210.33,210.33s210.33-94.16,210.33-210.33-94.16-210.33-210.33-210.33-210.33,94.16-210.33,210.33M961.1,572.91c-.01,27.15,21.99,49.16,49.13,49.17,27.15.01,49.16-21.99,49.17-49.13.01-27.15-21.99-49.16-49.13-49.17h-.02c-27.13.01-49.13,22-49.15,49.13M626.12,1124.99c-39.93-1.82-61.64-8.47-76.06-14.09-19.12-7.44-32.77-16.31-47.11-30.64-14.35-14.33-23.23-27.96-30.64-47.08-5.62-14.42-12.27-36.13-14.09-76.06-1.99-43.18-2.38-56.15-2.38-165.53s.43-122.32,2.38-165.53c1.82-39.93,8.52-61.6,14.09-76.06,7.44-19.12,16.31-32.77,30.64-47.11,14.33-14.35,27.96-23.23,47.11-30.64,14.42-5.62,36.13-12.27,76.06-14.09,43.18-1.99,56.15-2.38,165.48-2.38s122.32.43,165.53,2.38c39.93,1.82,61.6,8.52,76.06,14.09,19.12,7.41,32.77,16.31,47.11,30.64,14.35,14.33,23.19,27.99,30.64,47.11,5.62,14.42,12.27,36.13,14.09,76.06,1.99,43.21,2.38,56.15,2.38,165.53s-.4,122.32-2.38,165.53c-1.82,39.93-8.5,61.64-14.09,76.06-7.44,19.12-16.31,32.77-30.64,47.08s-27.99,23.19-47.11,30.64c-14.42,5.62-36.13,12.27-76.06,14.09-43.18,1.99-56.15,2.38-165.53,2.38s-122.32-.4-165.48-2.38M622.73,384.46c-43.6,1.99-73.4,8.9-99.42,19.03-26.95,10.46-49.76,24.48-72.56,47.25-22.8,22.76-36.79,45.61-47.25,72.56-10.13,26.04-17.04,55.82-19.03,99.42-2.02,43.67-2.48,57.64-2.48,168.87s.46,125.2,2.48,168.87c1.99,43.61,8.9,73.38,19.03,99.42,10.46,26.93,24.45,49.81,47.25,72.56,22.79,22.75,45.61,36.76,72.56,47.25,26.07,10.13,55.82,17.04,99.42,19.03,43.7,1.99,57.64,2.48,168.87,2.48s125.2-.46,168.87-2.48c43.61-1.99,73.38-8.9,99.42-19.03,26.93-10.49,49.76-24.48,72.56-47.25,22.8-22.76,36.76-45.63,47.25-72.56,10.13-26.04,17.07-55.82,19.03-99.42,1.99-43.71,2.45-57.64,2.45-168.87s-.46-125.2-2.45-168.87c-1.99-43.61-8.9-73.4-19.03-99.42-10.49-26.93-24.48-49.76-47.25-72.56-22.76-22.8-45.63-36.79-72.53-47.25-26.07-10.13-55.85-17.07-99.42-19.03-43.67-1.99-57.64-2.48-168.87-2.48s-125.21.46-168.9,2.48"/>
      </g>
      <path class="cls-1" d="M791.58,1583.16c-106.85,0-210.52-20.93-308.13-62.22-94.26-39.87-178.92-96.94-251.6-169.63-72.69-72.69-129.76-157.34-169.63-251.6C20.93,1002.1,0,898.43,0,791.58s20.93-210.52,62.22-308.13c39.87-94.26,96.94-178.92,169.63-251.6,72.69-72.69,157.34-129.76,251.6-169.63C581.06,20.93,684.73,0,791.58,0s210.52,20.93,308.13,62.22c94.26,39.87,178.92,96.94,251.6,169.63,72.69,72.69,129.76,157.34,169.63,251.6,41.29,97.61,62.22,201.28,62.22,308.13s-20.93,210.52-62.22,308.13c-39.87,94.26-96.94,178.92-169.63,251.6-72.69,72.69-157.34,129.76-251.6,169.63-97.61,41.29-201.28,62.22-308.13,62.22ZM791.58,60C388.19,60,60,388.19,60,791.58s328.19,731.58,731.58,731.58,731.58-328.19,731.58-731.58S1194.97,60,791.58,60Z"/>
    </g>
  </g>
</svg>