<?xml version="1.0" encoding="UTF-8"?>
<svg id="Capa_2" data-name="Capa 2" xmlns="http://www.w3.org/2000/svg" width="1583.16" height="1583.16" viewBox="0 0 1583.16 1583.16">
  <defs>
    <style>
      .cls-1 {
        fill: #fff;
      }
    </style>
  </defs>
  <g id="Socials">
    <g id="X">
      <path class="cls-1" d="M791.58,1583.16c-106.85,0-210.52-20.93-308.13-62.22-94.26-39.87-178.92-96.94-251.6-169.63-72.69-72.69-129.76-157.34-169.63-251.6C20.93,1002.1,0,898.43,0,791.58s20.93-210.52,62.22-308.13c39.87-94.26,96.94-178.92,169.63-251.6,72.69-72.69,157.34-129.76,251.6-169.63C581.06,20.93,684.73,0,791.58,0s210.52,20.93,308.13,62.22c94.26,39.87,178.92,96.94,251.6,169.63,72.69,72.69,129.76,157.34,169.63,251.6,41.29,97.61,62.22,201.28,62.22,308.13s-20.93,210.52-62.22,308.13c-39.87,94.26-96.94,178.92-169.63,251.6-72.69,72.69-157.34,129.76-251.6,169.63-97.61,41.29-201.28,62.22-308.13,62.22ZM791.58,60C388.19,60,60,388.19,60,791.58s328.19,731.58,731.58,731.58,731.58-328.19,731.58-731.58S1194.97,60,791.58,60Z"/>
      <g id="layer1">
        <path id="path1009" class="cls-1" d="M391.4,415.19l310.53,415.2-312.49,337.58h70.33l273.58-295.55,221.05,295.55h239.33l-328-438.56,290.86-314.22h-70.33l-251.96,272.2-203.58-272.2h-239.33ZM494.82,466.99h109.95l485.52,649.16h-109.95L494.82,466.99Z"/>
      </g>
    </g>
  </g>
</svg>