<?xml version="1.0" encoding="UTF-8"?>
<svg id="Capa_2" data-name="Capa 2" xmlns="http://www.w3.org/2000/svg" width="1327.46" height="352.33" viewBox="0 0 1327.46 352.33">
  <defs>
    <style>
      .cls-1 {
        fill: #fff;
      }
    </style>
  </defs>
  <g id="_2" data-name="2">
    <path class="cls-1" d="M77.04,352.33H27.22l75.17-130.2-102.39.24,24.08-46.21h207.86l49.78-88.44,25.31,43.97-50.93,88.34h-102.59l-76.47,132.3ZM129.01,352.33h50.76l25.59-45.34,48.06-.23,25.87,45.57h154.78l-99.81-173.36-26.22,41.4,51.09,89.24h-52.91s-26.44-44.88-26.44-44.88l-100.91.1-49.84,87.48ZM205.36,131.69l50.75-87.6L230.64,0l-76.03,131.69h50.75Z"/>
    <g id="ait">
      <g>
        <path class="cls-1" d="M414.9,152.5h-6.2l-4.81-12.62h-17.39l-4.59,12.62h-5.81l15.95-41.47h5.92l16.94,41.47ZM402.27,135.53l-7.31-19.24-6.97,19.24h14.28Z"/>
        <path class="cls-1" d="M416.14,153.33h-8.01l-4.81-12.62h-16.24l-4.59,12.62h-7.6l16.59-43.13h7.05l17.62,43.13ZM409.27,151.67h4.4l-16.26-39.81h-4.79l-15.31,39.81h4.02l4.59-12.62h18.55l4.81,12.62ZM403.47,136.36h-16.66l8.13-22.45,8.53,22.45ZM389.17,134.7h11.89l-6.09-16.02-5.8,16.02Z"/>
      </g>
      <g>
        <path class="cls-1" d="M435.78,153.21c-4.81,0-8.42-.93-10.81-2.8-2.39-1.87-3.9-4.06-4.53-6.59s-.95-5.46-.95-8.8v-23.99h5.5v23.9c0,5.45.92,9.03,2.75,10.75,1.83,1.72,4.51,2.57,8.04,2.57s6.21-.86,8.04-2.57c1.83-1.71,2.75-5.3,2.75-10.75v-23.9h5.52v23.99c0,5.02-.6,8.71-1.8,11.09-1.2,2.38-3.01,4.15-5.42,5.33-2.42,1.18-5.45,1.77-9.09,1.77Z"/>
        <path class="cls-1" d="M435.78,154.04c-4.98,0-8.79-1-11.32-2.97-2.53-1.98-4.15-4.35-4.83-7.04-.65-2.58-.97-5.61-.97-9v-24.82h7.16v24.73c0,5.19.84,8.6,2.48,10.14,1.66,1.56,4.18,2.35,7.48,2.35s5.81-.79,7.48-2.35c1.65-1.54,2.48-4.95,2.48-10.14v-24.73h7.18v24.82c0,5.19-.62,8.94-1.89,11.46-1.28,2.53-3.23,4.45-5.8,5.7-2.52,1.23-5.7,1.85-9.46,1.85ZM420.32,111.86v23.16c0,3.25.31,6.15.92,8.6s2.01,4.39,4.24,6.14c2.23,1.74,5.69,2.62,10.3,2.62,3.5,0,6.44-.57,8.73-1.68,2.24-1.09,3.94-2.76,5.05-4.96,1.13-2.25,1.71-5.86,1.71-10.71v-23.16h-3.86v23.07c0,5.74-.98,9.46-3.01,11.35-1.98,1.86-4.88,2.8-8.61,2.8s-6.63-.94-8.61-2.8c-2.03-1.89-3.01-5.61-3.01-11.35v-23.07h-3.84Z"/>
      </g>
      <g>
        <path class="cls-1" d="M490.9,115.95h-13.74v36.55h-5.52v-36.55h-13.63v-4.92h32.89v4.92Z"/>
        <path class="cls-1" d="M477.99,153.33h-7.18v-36.55h-13.63v-6.58h34.55v6.58h-13.74v36.55ZM472.47,151.67h3.86v-36.55h13.74v-3.26h-31.23v3.26h13.63v36.55Z"/>
      </g>
      <g>
        <path class="cls-1" d="M514.8,110.33c5.82,0,10.58,1.96,14.28,5.88,3.7,3.92,5.55,9.11,5.55,15.56s-1.85,11.64-5.55,15.56c-3.7,3.92-8.46,5.88-14.28,5.88s-10.61-1.96-14.33-5.9-5.58-9.11-5.58-15.54,1.86-11.63,5.58-15.56c3.72-3.92,8.5-5.88,14.33-5.88ZM514.75,148.51c4.15,0,7.56-1.47,10.21-4.41,2.65-2.94,3.98-7.05,3.98-12.33s-1.32-9.39-3.97-12.33-6.01-4.41-10.11-4.41-7.6,1.47-10.27,4.41c-2.67,2.94-4.01,7.05-4.01,12.33s1.33,9.37,3.99,12.32c2.66,2.95,6.05,4.43,10.17,4.43Z"/>
        <path class="cls-1" d="M514.8,154.04c-6.04,0-11.07-2.07-14.94-6.16-3.85-4.07-5.81-9.49-5.81-16.11s1.95-12.06,5.81-16.13c3.87-4.08,8.89-6.14,14.93-6.14s11.03,2.07,14.88,6.14c3.83,4.06,5.78,9.49,5.78,16.13s-1.94,12.07-5.78,16.13c-3.85,4.08-8.85,6.14-14.88,6.14ZM514.8,111.16c-5.57,0-10.19,1.89-13.73,5.62-3.55,3.75-5.35,8.79-5.35,14.99s1.8,11.22,5.35,14.97c3.54,3.74,8.16,5.64,13.73,5.64s10.15-1.89,13.67-5.62c3.53-3.74,5.33-8.79,5.33-14.99s-1.79-11.24-5.33-14.99c-3.52-3.73-8.12-5.62-13.67-5.62ZM514.75,149.34c-4.34,0-7.97-1.58-10.79-4.7-2.79-3.09-4.21-7.43-4.21-12.87s1.42-9.8,4.22-12.89c2.83-3.11,6.49-4.69,10.88-4.69s7.93,1.58,10.73,4.69c2.77,3.09,4.18,7.42,4.18,12.89s-1.41,9.8-4.19,12.89c-2.81,3.11-6.45,4.69-10.83,4.69ZM514.86,115.85c-3.96,0-7.12,1.36-9.65,4.14-2.52,2.77-3.79,6.73-3.79,11.77s1.27,8.98,3.78,11.76c2.52,2.79,5.65,4.15,9.55,4.15s7.08-1.35,9.6-4.14c2.5-2.77,3.77-6.73,3.77-11.78s-1.26-9.01-3.75-11.78c-2.5-2.79-5.61-4.14-9.49-4.14Z"/>
      </g>
      <g>
        <path class="cls-1" d="M580.97,152.5h-5.21v-35.27l-11.84,35.27h-4.93l-11.84-35.27v35.27h-5.21v-41.47h8.24l11.24,34.57,11.3-34.57h8.24v41.47Z"/>
        <path class="cls-1" d="M581.8,153.33h-6.87v-31.02l-10.41,31.02h-6.12l-10.41-31.02v31.02h-6.87v-43.13h9.68l10.64,32.72,10.7-32.72h9.67v43.13ZM576.59,151.67h3.55v-39.81h-6.81l-11.91,36.41-11.85-36.41h-6.81v39.81h3.55v-39.52l13.27,39.52h3.74l13.27-39.52v39.52Z"/>
      </g>
      <g>
        <path class="cls-1" d="M624.37,152.5h-6.2l-4.81-12.62h-17.39l-4.59,12.62h-5.81l15.95-41.47h5.92l16.94,41.47ZM611.74,135.53l-7.31-19.24-6.97,19.24h14.28Z"/>
        <path class="cls-1" d="M625.6,153.33h-8.01l-4.81-12.62h-16.24l-4.59,12.62h-7.6l16.59-43.13h7.05l17.62,43.13ZM618.74,151.67h4.4l-16.26-39.81h-4.79l-15.31,39.81h4.02l4.59-12.62h18.55l4.81,12.62ZM612.94,136.36h-16.66l8.13-22.45,8.53,22.45ZM598.64,134.7h11.89l-6.09-16.02-5.8,16.02Z"/>
      </g>
      <g>
        <path class="cls-1" d="M658.47,115.95h-13.74v36.55h-5.52v-36.55h-13.63v-4.92h32.89v4.92Z"/>
        <path class="cls-1" d="M645.57,153.33h-7.18v-36.55h-13.63v-6.58h34.55v6.58h-13.74v36.55ZM640.04,151.67h3.86v-36.55h13.74v-3.26h-31.23v3.26h13.63v36.55Z"/>
      </g>
      <g>
        <path class="cls-1" d="M670.6,152.5h-5.52v-41.47h5.52v41.47Z"/>
        <path class="cls-1" d="M671.43,153.33h-7.18v-43.13h7.18v43.13ZM665.9,151.67h3.86v-39.81h-3.86v39.81Z"/>
      </g>
      <g>
        <path class="cls-1" d="M709.74,152.5h-32.83v-5.15l25.8-31.4h-23.43v-4.92h29.74v5.15l-25.81,31.4h26.51v4.92Z"/>
        <path class="cls-1" d="M710.57,153.33h-34.49v-6.28l24.88-30.27h-22.5v-6.58h31.4v6.28l-24.88,30.27h25.59v6.58ZM677.74,151.67h31.17v-3.26h-27.44l26.73-32.53v-4.02h-28.08v3.26h24.35l-26.73,32.53v4.02Z"/>
      </g>
      <g>
        <path class="cls-1" d="M750.05,152.5h-6.2l-4.81-12.62h-17.39l-4.59,12.62h-5.81l15.95-41.47h5.92l16.94,41.47ZM737.42,135.53l-7.31-19.24-6.97,19.24h14.28Z"/>
        <path class="cls-1" d="M751.29,153.33h-8.01l-4.81-12.62h-16.24l-4.59,12.62h-7.6l16.59-43.13h7.05l17.62,43.13ZM744.42,151.67h4.4l-16.26-39.81h-4.79l-15.31,39.81h4.02l4.59-12.62h18.55l4.81,12.62ZM738.62,136.36h-16.66l8.13-22.45,8.53,22.45ZM724.33,134.7h11.89l-6.09-16.02-5.8,16.02Z"/>
      </g>
      <g>
        <path class="cls-1" d="M772.03,153.21c-5.87,0-10.56-1.93-14.06-5.78-3.5-3.86-5.25-9.07-5.25-15.66s1.75-11.8,5.25-15.66c3.5-3.86,8.19-5.78,14.06-5.78,4.51,0,8.36,1.22,11.53,3.65,3.17,2.43,4.96,5.64,5.35,9.62h-5.66c-.23-2.62-1.37-4.7-3.41-6.25-2.05-1.55-4.63-2.32-7.75-2.32-4.21,0-7.54,1.45-10,4.34-2.46,2.89-3.68,7.03-3.68,12.4s1.22,9.49,3.65,12.39c2.44,2.9,5.74,4.36,9.91,4.36,3.25,0,5.87-.79,7.87-2.38,2-1.58,3.13-3.85,3.4-6.79h5.66c-.4,4.41-2.13,7.83-5.21,10.24-3.08,2.41-6.97,3.62-11.67,3.62Z"/>
        <path class="cls-1" d="M772.03,154.04c-6.09,0-11.03-2.04-14.68-6.06-3.63-3.99-5.47-9.45-5.47-16.21s1.84-12.22,5.47-16.21c3.65-4.02,8.59-6.06,14.68-6.06,4.68,0,8.73,1.29,12.03,3.82,3.35,2.57,5.26,6,5.67,10.19l.09.91h-7.34l-.07-.76c-.21-2.4-1.22-4.25-3.09-5.66-1.89-1.43-4.33-2.15-7.25-2.15-3.99,0-7.05,1.33-9.37,4.05-2.31,2.73-3.49,6.72-3.49,11.87s1.16,9.12,3.46,11.86c2.29,2.73,5.33,4.06,9.28,4.06,3.04,0,5.52-.74,7.36-2.2,1.83-1.45,2.84-3.48,3.09-6.21l.07-.76h7.33l-.08.9c-.42,4.63-2.28,8.27-5.53,10.82-3.21,2.52-7.31,3.8-12.18,3.8ZM772.03,111.16c-5.6,0-10.13,1.85-13.45,5.51-3.34,3.68-5.04,8.76-5.04,15.1s1.7,11.42,5.04,15.1c3.32,3.66,7.85,5.51,13.45,5.51,4.49,0,8.25-1.16,11.16-3.44,2.7-2.12,4.28-4.99,4.79-8.76h-4c-.4,2.8-1.62,5.03-3.62,6.61-2.14,1.69-4.97,2.55-8.39,2.55-4.41,0-7.96-1.56-10.55-4.65-2.55-3.05-3.85-7.39-3.85-12.92s1.31-9.91,3.88-12.94c2.61-3.08,6.19-4.64,10.63-4.64,3.28,0,6.06.84,8.25,2.49,2.03,1.54,3.26,3.58,3.65,6.08h3.98c-.54-3.34-2.15-6.01-4.91-8.13-3.01-2.31-6.72-3.48-11.02-3.48Z"/>
      </g>
      <g>
        <path class="cls-1" d="M802.74,152.5h-5.52v-41.47h5.52v41.47Z"/>
        <path class="cls-1" d="M803.57,153.33h-7.19v-43.13h7.19v43.13ZM798.04,151.67h3.86v-39.81h-3.86v39.81Z"/>
      </g>
      <g>
        <path class="cls-1" d="M830.64,110.33c5.82,0,10.57,1.96,14.28,5.88,3.7,3.92,5.55,9.11,5.55,15.56s-1.85,11.64-5.55,15.56c-3.7,3.92-8.46,5.88-14.28,5.88s-10.61-1.96-14.33-5.9c-3.72-3.93-5.58-9.11-5.58-15.54s1.86-11.63,5.58-15.56c3.72-3.92,8.5-5.88,14.33-5.88ZM830.58,148.51c4.15,0,7.56-1.47,10.21-4.41,2.65-2.94,3.98-7.05,3.98-12.33s-1.32-9.39-3.96-12.33c-2.65-2.94-6.02-4.41-10.11-4.41s-7.6,1.47-10.27,4.41c-2.67,2.94-4.01,7.05-4.01,12.33s1.33,9.37,3.99,12.32c2.66,2.95,6.05,4.43,10.17,4.43ZM837.83,100.45l-6.26,7.95h-4.19l3.77-7.95h6.69Z"/>
        <path class="cls-1" d="M830.64,154.04c-6.05,0-11.07-2.07-14.93-6.16-3.85-4.07-5.81-9.49-5.81-16.11s1.95-12.07,5.81-16.13c3.86-4.08,8.89-6.14,14.93-6.14s11.03,2.07,14.88,6.14c3.83,4.07,5.78,9.49,5.78,16.13s-1.94,12.06-5.78,16.13c-3.85,4.08-8.85,6.14-14.88,6.14ZM830.64,111.16c-5.57,0-10.19,1.89-13.73,5.62-3.55,3.74-5.35,8.79-5.35,14.99s1.8,11.22,5.35,14.97c3.54,3.74,8.16,5.64,13.73,5.64s10.15-1.89,13.67-5.62c3.53-3.74,5.32-8.78,5.32-14.99s-1.79-11.24-5.32-14.99c-3.52-3.73-8.13-5.62-13.67-5.62ZM830.58,149.34c-4.34,0-7.97-1.58-10.78-4.7-2.79-3.09-4.21-7.43-4.21-12.87s1.42-9.8,4.22-12.89c2.82-3.11,6.48-4.69,10.88-4.69s7.93,1.58,10.73,4.69c2.77,3.08,4.18,7.42,4.18,12.89s-1.41,9.8-4.19,12.89c-2.81,3.11-6.45,4.69-10.83,4.69ZM830.69,115.85c-3.96,0-7.12,1.36-9.65,4.14-2.52,2.77-3.79,6.73-3.79,11.77s1.27,8.98,3.78,11.76c2.52,2.79,5.64,4.15,9.55,4.15s7.08-1.35,9.6-4.14c2.5-2.77,3.77-6.74,3.77-11.78s-1.26-9.01-3.75-11.78c-2.5-2.79-5.61-4.14-9.5-4.14ZM831.98,109.23h-5.91l4.55-9.61h8.92l-7.57,9.61ZM828.69,107.57h2.48l4.95-6.29h-4.45l-2.98,6.29Z"/>
      </g>
      <g>
        <path class="cls-1" d="M890.38,152.5h-5.64l-21.75-32.73v32.73h-5.21v-41.47h5.61l21.75,32.73v-32.73h5.24v41.47Z"/>
        <path class="cls-1" d="M891.21,153.33h-6.91l-20.48-30.81v30.81h-6.87v-43.13h6.88l20.48,30.81v-30.81h6.9v43.13ZM885.18,151.67h4.36v-39.81h-3.58v34.65l-23.03-34.65h-4.33v39.81h3.55v-34.64l23.03,34.64Z"/>
      </g>
      <g>
        <path class="cls-1" d="M905.98,152.5c0,2.47-.49,4.45-1.47,5.94s-2.43,2.24-4.33,2.24v-2.71c1.91,0,2.86-1.82,2.86-5.46h-2.86v-5.8h5.81v5.8Z"/>
        <path class="cls-1" d="M900.18,161.51h-.83v-4.38h.83c1.22,0,1.9-1.28,2.01-3.8h-2.84v-7.46h7.47v6.63c0,2.62-.54,4.78-1.61,6.4-1.14,1.73-2.83,2.61-5.03,2.61ZM901.01,158.7v1.09c1.21-.18,2.13-.77,2.81-1.8.89-1.34,1.34-3.19,1.34-5.48v-4.97h-4.15v4.14h2.86v.83c0,3.67-.96,5.75-2.86,6.2Z"/>
      </g>
      <g>
        <path class="cls-1" d="M937.4,152.5h-5.52v-41.47h5.52v41.47Z"/>
        <path class="cls-1" d="M938.23,153.33h-7.18v-43.13h7.18v43.13ZM932.71,151.67h3.86v-39.81h-3.86v39.81Z"/>
      </g>
      <g>
        <path class="cls-1" d="M979.91,152.5h-5.64l-21.75-32.73v32.73h-5.21v-41.47h5.61l21.75,32.73v-32.73h5.24v41.47Z"/>
        <path class="cls-1" d="M980.74,153.33h-6.91l-20.48-30.81v30.81h-6.87v-43.13h6.88l20.48,30.81v-30.81h6.9v43.13ZM974.72,151.67h4.36v-39.81h-3.58v34.65l-23.03-34.65h-4.33v39.81h3.55v-34.64l23.03,34.64Z"/>
      </g>
      <g>
        <path class="cls-1" d="M1017.22,115.95h-22.52v12.84h19.52v4.92h-19.52v18.78h-5.49v-41.47h28.01v4.92Z"/>
        <path class="cls-1" d="M995.53,153.33h-7.15v-43.13h29.67v6.58h-22.52v11.18h19.52v6.58h-19.52v18.78ZM990.03,151.67h3.83v-18.78h19.52v-3.26h-19.52v-14.5h22.52v-3.26h-26.35v39.81Z"/>
      </g>
      <g>
        <path class="cls-1" d="M1042.63,110.33c5.82,0,10.57,1.96,14.28,5.88,3.7,3.92,5.55,9.11,5.55,15.56s-1.85,11.64-5.55,15.56c-3.7,3.92-8.46,5.88-14.28,5.88s-10.61-1.96-14.33-5.9c-3.72-3.93-5.58-9.11-5.58-15.54s1.86-11.63,5.58-15.56c3.72-3.92,8.5-5.88,14.33-5.88ZM1042.57,148.51c4.15,0,7.56-1.47,10.21-4.41,2.65-2.94,3.98-7.05,3.98-12.33s-1.32-9.39-3.96-12.33c-2.65-2.94-6.02-4.41-10.11-4.41s-7.6,1.47-10.27,4.41-4.01,7.05-4.01,12.33,1.33,9.37,3.99,12.32c2.66,2.95,6.05,4.43,10.17,4.43Z"/>
        <path class="cls-1" d="M1042.63,154.04c-6.05,0-11.07-2.07-14.93-6.16-3.85-4.07-5.81-9.49-5.81-16.11s1.95-12.07,5.81-16.13c3.86-4.08,8.89-6.14,14.93-6.14s11.03,2.07,14.88,6.14c3.83,4.07,5.78,9.49,5.78,16.13s-1.94,12.06-5.78,16.13c-3.85,4.08-8.85,6.14-14.88,6.14ZM1042.63,111.16c-5.57,0-10.19,1.89-13.73,5.62-3.55,3.74-5.35,8.79-5.35,14.99s1.8,11.22,5.35,14.97c3.54,3.74,8.16,5.64,13.73,5.64s10.15-1.89,13.67-5.62c3.53-3.74,5.32-8.78,5.32-14.99s-1.79-11.24-5.32-14.99c-3.52-3.73-8.13-5.62-13.67-5.62ZM1042.57,149.34c-4.34,0-7.97-1.58-10.78-4.7-2.79-3.09-4.21-7.43-4.21-12.87s1.42-9.8,4.22-12.89c2.82-3.11,6.48-4.69,10.88-4.69s7.93,1.58,10.73,4.69c2.77,3.08,4.18,7.42,4.18,12.89s-1.41,9.8-4.19,12.89c-2.81,3.11-6.45,4.69-10.83,4.69ZM1042.68,115.85c-3.96,0-7.12,1.36-9.65,4.14-2.52,2.77-3.79,6.73-3.79,11.77s1.27,8.98,3.78,11.76c2.52,2.79,5.64,4.15,9.55,4.15s7.08-1.35,9.6-4.14c2.5-2.77,3.77-6.74,3.77-11.78s-1.26-9.01-3.75-11.78c-2.5-2.79-5.61-4.14-9.5-4.14Z"/>
      </g>
      <g>
        <path class="cls-1" d="M1104.38,152.5h-5.95l-3.91-11.06c-.7-1.96-1.86-3.56-3.48-4.81-1.62-1.25-3.49-1.87-5.61-1.87h-10.17v17.74h-5.49v-41.47h18.38c3.21,0,5.83.31,7.87.93,2.04.62,3.7,1.93,4.98,3.93s1.93,4.25,1.93,6.76c0,2.87-.83,5.26-2.49,7.18-1.66,1.92-3.94,3.18-6.83,3.76v.11c2.89.93,5.09,3.42,6.6,7.5l4.16,11.29ZM1075.26,129.84h12.26c3.42,0,5.9-.54,7.44-1.61,1.54-1.07,2.31-2.93,2.31-5.57,0-4.71-2.96-7.07-8.89-7.07h-13.12v14.26Z"/>
        <path class="cls-1" d="M1105.57,153.33h-7.73l-4.1-11.61c-.64-1.8-1.72-3.29-3.21-4.42-1.49-1.14-3.16-1.7-5.1-1.7h-9.34v17.74h-7.15v-43.13h19.21c3.28,0,6.01.33,8.12.97,2.22.68,4.06,2.12,5.44,4.28,1.37,2.12,2.06,4.55,2.06,7.21,0,3.06-.91,5.66-2.7,7.73-1.35,1.57-3.1,2.73-5.21,3.47,2.17,1.36,3.9,3.73,5.14,7.07l4.58,12.41ZM1099.02,151.67h4.17l-3.75-10.17c-1.41-3.8-3.45-6.15-6.07-6.99l-.58-.19v-1.28l.67-.25c2.69-.55,4.83-1.72,6.36-3.49,1.52-1.76,2.29-3.99,2.29-6.64,0-2.33-.6-4.46-1.79-6.31-1.18-1.84-2.67-3.02-4.53-3.59-1.95-.59-4.52-.9-7.63-.9h-17.55v39.81h3.83v-17.74h11c2.29,0,4.35.69,6.11,2.04,1.75,1.34,3.01,3.08,3.76,5.19l3.71,10.51ZM1087.52,130.67h-13.09v-15.92h13.95c8.04,0,9.72,4.3,9.72,7.9,0,2.91-.9,5.02-2.66,6.25-1.69,1.18-4.28,1.76-7.91,1.76ZM1076.09,129.01h11.43c3.23,0,5.57-.49,6.96-1.46,1.31-.92,1.95-2.52,1.95-4.89,0-2.68-.84-6.24-8.06-6.24h-12.29v12.6Z"/>
      </g>
      <g>
        <path class="cls-1" d="M1150.69,152.5h-5.21v-35.27l-11.84,35.27h-4.93l-11.84-35.27v35.27h-5.21v-41.47h8.24l11.25,34.57,11.3-34.57h8.24v41.47Z"/>
        <path class="cls-1" d="M1151.52,153.33h-6.87v-31.02l-10.41,31.02h-6.12l-10.41-31.02v31.02h-6.87v-43.13h9.68l10.65,32.72,10.7-32.72h9.68v43.13ZM1146.31,151.67h3.55v-39.81h-6.81l-11.9,36.41-11.85-36.41h-6.81v39.81h3.55v-39.52l13.27,39.52h3.74l13.27-39.52v39.52Z"/>
      </g>
      <g>
        <path class="cls-1" d="M1194.08,152.5h-6.2l-4.82-12.62h-17.39l-4.59,12.62h-5.81l15.95-41.47h5.92l16.94,41.47ZM1181.45,135.53l-7.31-19.24-6.97,19.24h14.28ZM1181.34,100.45l-6.26,7.95h-4.19l3.77-7.95h6.69Z"/>
        <path class="cls-1" d="M1195.32,153.33h-8.01l-4.82-12.62h-16.24l-4.59,12.62h-7.6l16.58-43.13h7.05l17.62,43.13ZM1188.45,151.67h4.39l-16.26-39.81h-4.79l-15.31,39.81h4.02l4.59-12.62h18.54l4.82,12.62ZM1182.66,136.36h-16.66l8.13-22.45,8.53,22.45ZM1168.36,134.7h11.89l-6.08-16.02-5.8,16.02ZM1175.48,109.23h-5.91l4.55-9.61h8.92l-7.57,9.61ZM1172.2,107.57h2.48l4.95-6.29h-4.45l-2.98,6.29Z"/>
      </g>
      <g>
        <path class="cls-1" d="M1228.19,115.95h-13.74v36.55h-5.52v-36.55h-13.62v-4.92h32.89v4.92Z"/>
        <path class="cls-1" d="M1215.28,153.33h-7.18v-36.55h-13.62v-6.58h34.55v6.58h-13.74v36.55ZM1209.76,151.67h3.86v-36.55h13.74v-3.26h-31.23v3.26h13.62v36.55Z"/>
      </g>
      <g>
        <path class="cls-1" d="M1240.31,152.5h-5.52v-41.47h5.52v41.47Z"/>
        <path class="cls-1" d="M1241.14,153.33h-7.18v-43.13h7.18v43.13ZM1235.62,151.67h3.86v-39.81h-3.86v39.81Z"/>
      </g>
      <g>
        <path class="cls-1" d="M1267.62,153.21c-5.87,0-10.56-1.93-14.06-5.78-3.5-3.86-5.25-9.07-5.25-15.66s1.75-11.8,5.25-15.66c3.5-3.86,8.19-5.78,14.06-5.78,4.51,0,8.36,1.22,11.53,3.65,3.17,2.43,4.96,5.64,5.35,9.62h-5.67c-.23-2.62-1.36-4.7-3.41-6.25-2.05-1.55-4.63-2.32-7.75-2.32-4.21,0-7.54,1.45-10,4.34-2.45,2.89-3.68,7.03-3.68,12.4s1.22,9.49,3.65,12.39c2.44,2.9,5.74,4.36,9.92,4.36,3.25,0,5.87-.79,7.87-2.38s3.13-3.85,3.4-6.79h5.67c-.4,4.41-2.13,7.83-5.21,10.24-3.08,2.41-6.97,3.62-11.67,3.62Z"/>
        <path class="cls-1" d="M1267.62,154.04c-6.09,0-11.03-2.04-14.68-6.06-3.63-3.99-5.47-9.45-5.47-16.21s1.84-12.22,5.47-16.21c3.65-4.02,8.59-6.06,14.68-6.06,4.68,0,8.73,1.29,12.03,3.82,3.35,2.57,5.26,6,5.67,10.19l.09.91h-7.34l-.07-.76c-.21-2.4-1.22-4.25-3.08-5.66-1.89-1.43-4.33-2.15-7.25-2.15-3.99,0-7.06,1.33-9.37,4.05-2.31,2.73-3.48,6.72-3.48,11.87s1.16,9.12,3.46,11.86c2.29,2.73,5.33,4.06,9.28,4.06,3.04,0,5.52-.74,7.36-2.2,1.83-1.45,2.84-3.48,3.09-6.21l.07-.76h7.33l-.08.9c-.41,4.63-2.27,8.27-5.53,10.82-3.21,2.52-7.31,3.8-12.18,3.8ZM1267.62,111.16c-5.6,0-10.13,1.85-13.45,5.51-3.34,3.68-5.04,8.76-5.04,15.1s1.69,11.42,5.04,15.1c3.32,3.66,7.85,5.51,13.45,5.51,4.49,0,8.24-1.16,11.16-3.44,2.67-2.09,4.28-5.03,4.79-8.76h-4c-.4,2.81-1.62,5.03-3.62,6.61-2.14,1.69-4.96,2.55-8.39,2.55-4.41,0-7.96-1.56-10.55-4.65-2.55-3.05-3.85-7.39-3.85-12.92s1.31-9.9,3.88-12.94c2.61-3.08,6.19-4.64,10.63-4.64,3.28,0,6.06.84,8.25,2.49,2.03,1.54,3.26,3.58,3.65,6.08h3.99c-.54-3.34-2.15-6.01-4.92-8.13-3.01-2.31-6.72-3.48-11.02-3.48Z"/>
      </g>
      <g>
        <path class="cls-1" d="M1326.22,152.5h-6.2l-4.82-12.62h-17.39l-4.59,12.62h-5.81l15.95-41.47h5.92l16.94,41.47ZM1313.59,135.53l-7.31-19.24-6.97,19.24h14.28Z"/>
        <path class="cls-1" d="M1327.46,153.33h-8.01l-4.82-12.62h-16.24l-4.59,12.62h-7.6l16.58-43.13h7.05l17.62,43.13ZM1320.59,151.67h4.39l-16.26-39.81h-4.79l-15.31,39.81h4.02l4.59-12.62h18.54l4.82,12.62ZM1314.8,136.36h-16.66l8.13-22.45,8.53,22.45ZM1300.5,134.7h11.89l-6.08-16.02-5.8,16.02Z"/>
      </g>
      <g>
        <path class="cls-1" d="M545.01,180.55l-16.32,23.9v17.57h-5.49v-17.57l-16.32-23.9h6.68l12.41,19.09,12.35-19.09h6.68Z"/>
        <path class="cls-1" d="M529.53,222.84h-7.15v-18.14l-17.06-24.99h8.71l11.95,18.4,11.9-18.4h8.71l-17.06,24.99v18.14ZM524.03,221.18h3.83v-16.99l.14-.21,15.43-22.61h-4.66l-12.8,19.79-12.86-19.79h-4.66l15.57,22.82v16.99Z"/>
      </g>
      <g>
        <path class="cls-1" d="M594.87,185.47h-13.74v36.55h-5.52v-36.55h-13.63v-4.92h32.89v4.92Z"/>
        <path class="cls-1" d="M581.96,222.84h-7.18v-36.55h-13.63v-6.58h34.55v6.58h-13.74v36.55ZM576.44,221.18h3.86v-36.55h13.74v-3.26h-31.23v3.26h13.63v36.55Z"/>
      </g>
      <g>
        <path class="cls-1" d="M631.75,222.01h-30.96v-41.47h30v4.92h-24.5v12.67h22.91v4.92h-22.91v14.03h25.46v4.92Z"/>
        <path class="cls-1" d="M632.58,222.84h-32.62v-43.13h31.66v6.58h-24.5v11.01h22.91v6.58h-22.91v12.37h25.46v6.58ZM601.62,221.18h29.3v-3.26h-25.46v-15.69h22.91v-3.26h-22.91v-14.33h24.5v-3.26h-28.34v39.81Z"/>
      </g>
      <g>
        <path class="cls-1" d="M665.17,222.01h-25.69v-41.47h5.5v36.55h20.2v4.92Z"/>
        <path class="cls-1" d="M666,222.84h-27.35v-43.13h7.16v36.55h20.2v6.58ZM640.31,221.18h24.03v-3.26h-20.2v-36.55h-3.84v39.81Z"/>
      </g>
      <g>
        <path class="cls-1" d="M702.7,222.01h-30.96v-41.47h30v4.92h-24.5v12.67h22.91v4.92h-22.91v14.03h25.46v4.92Z"/>
        <path class="cls-1" d="M703.53,222.84h-32.62v-43.13h31.66v6.58h-24.5v11.01h22.91v6.58h-22.91v12.37h25.46v6.58ZM672.57,221.18h29.3v-3.26h-25.46v-15.69h22.91v-3.26h-22.91v-14.33h24.5v-3.26h-28.34v39.81Z"/>
      </g>
      <g>
        <path class="cls-1" d="M727.83,222.72c-5.87,0-10.56-1.93-14.06-5.78-3.5-3.86-5.25-9.07-5.25-15.66s1.75-11.8,5.25-15.66c3.5-3.86,8.19-5.78,14.06-5.78,4.51,0,8.36,1.22,11.53,3.65,3.17,2.43,4.96,5.64,5.35,9.62h-5.66c-.23-2.62-1.37-4.7-3.41-6.25-2.05-1.55-4.63-2.32-7.75-2.32-4.21,0-7.54,1.45-10,4.34-2.46,2.89-3.68,7.03-3.68,12.4s1.22,9.49,3.65,12.39c2.44,2.9,5.74,4.36,9.91,4.36,3.25,0,5.87-.79,7.87-2.38,2-1.58,3.13-3.85,3.4-6.79h5.66c-.4,4.41-2.13,7.83-5.21,10.24-3.08,2.41-6.97,3.62-11.67,3.62Z"/>
        <path class="cls-1" d="M727.83,223.55c-6.09,0-11.03-2.04-14.68-6.06-3.63-3.99-5.47-9.45-5.47-16.21s1.84-12.22,5.47-16.21c3.65-4.02,8.59-6.06,14.68-6.06,4.68,0,8.73,1.29,12.03,3.82,3.35,2.57,5.26,6,5.67,10.19l.09.91h-7.34l-.07-.76c-.21-2.4-1.22-4.25-3.09-5.66-1.89-1.43-4.33-2.15-7.25-2.15-3.99,0-7.05,1.33-9.37,4.05-2.31,2.73-3.49,6.72-3.49,11.87s1.16,9.12,3.46,11.86c2.29,2.73,5.33,4.06,9.28,4.06,3.04,0,5.52-.74,7.36-2.2,1.83-1.45,2.84-3.48,3.09-6.21l.07-.76h7.33l-.08.9c-.42,4.63-2.28,8.27-5.53,10.82-3.21,2.52-7.31,3.8-12.18,3.8ZM727.83,180.67c-5.6,0-10.13,1.85-13.45,5.51-3.34,3.68-5.04,8.76-5.04,15.1s1.7,11.42,5.04,15.1c3.32,3.66,7.85,5.51,13.45,5.51,4.49,0,8.25-1.16,11.16-3.44,2.7-2.12,4.28-4.99,4.79-8.76h-4c-.4,2.8-1.62,5.03-3.62,6.61-2.14,1.69-4.97,2.55-8.39,2.55-4.41,0-7.96-1.56-10.55-4.65-2.55-3.05-3.85-7.39-3.85-12.92s1.31-9.91,3.88-12.94c2.61-3.08,6.19-4.64,10.63-4.64,3.28,0,6.06.84,8.25,2.49,2.03,1.54,3.26,3.58,3.65,6.08h3.98c-.54-3.34-2.15-6.01-4.91-8.13-3.01-2.31-6.72-3.48-11.02-3.48Z"/>
      </g>
      <g>
        <path class="cls-1" d="M770.32,179.84c5.82,0,10.58,1.96,14.28,5.88,3.7,3.92,5.55,9.11,5.55,15.56s-1.85,11.64-5.55,15.56c-3.7,3.92-8.46,5.88-14.28,5.88s-10.61-1.96-14.33-5.9c-3.72-3.93-5.58-9.11-5.58-15.54s1.86-11.63,5.58-15.56c3.72-3.92,8.5-5.88,14.33-5.88ZM770.26,218.03c4.15,0,7.56-1.47,10.21-4.41,2.65-2.94,3.98-7.05,3.98-12.33s-1.32-9.39-3.97-12.33-6.01-4.41-10.11-4.41-7.6,1.47-10.27,4.41c-2.67,2.94-4.01,7.05-4.01,12.33s1.33,9.37,3.99,12.32c2.66,2.95,6.05,4.43,10.17,4.43Z"/>
        <path class="cls-1" d="M770.32,223.55c-6.04,0-11.07-2.07-14.94-6.16-3.85-4.07-5.81-9.49-5.81-16.11s1.95-12.06,5.81-16.13c3.87-4.08,8.89-6.14,14.93-6.14s11.03,2.07,14.88,6.14c3.83,4.06,5.78,9.49,5.78,16.13s-1.94,12.07-5.78,16.13c-3.85,4.08-8.85,6.14-14.88,6.14ZM770.32,180.67c-5.57,0-10.19,1.89-13.73,5.62-3.55,3.75-5.35,8.79-5.35,14.99s1.8,11.22,5.35,14.97c3.54,3.74,8.16,5.64,13.73,5.64s10.15-1.89,13.67-5.62c3.53-3.74,5.33-8.79,5.33-14.99s-1.79-11.24-5.33-14.99c-3.52-3.73-8.12-5.62-13.67-5.62ZM770.26,218.86c-4.34,0-7.97-1.58-10.79-4.7-2.79-3.09-4.21-7.43-4.21-12.87s1.42-9.8,4.22-12.89c2.83-3.11,6.49-4.69,10.88-4.69s7.93,1.58,10.73,4.69c2.77,3.09,4.18,7.42,4.18,12.89s-1.41,9.8-4.19,12.89c-2.81,3.11-6.45,4.69-10.83,4.69ZM770.37,185.37c-3.96,0-7.12,1.36-9.65,4.14-2.52,2.77-3.79,6.73-3.79,11.77s1.27,8.98,3.78,11.76c2.52,2.79,5.65,4.15,9.55,4.15s7.08-1.35,9.6-4.14c2.5-2.77,3.77-6.73,3.77-11.78s-1.26-9.01-3.75-11.78c-2.5-2.79-5.61-4.14-9.49-4.14Z"/>
      </g>
      <g>
        <path class="cls-1" d="M836.49,222.01h-5.21v-35.27l-11.84,35.27h-4.93l-11.84-35.27v35.27h-5.21v-41.47h8.24l11.24,34.57,11.3-34.57h8.24v41.47Z"/>
        <path class="cls-1" d="M837.32,222.84h-6.87v-31.02l-10.41,31.02h-6.12l-10.42-31.02v31.02h-6.87v-43.13h9.68l10.64,32.72,10.7-32.72h9.68v43.13ZM832.1,221.18h3.55v-39.81h-6.81l-11.9,36.41-11.85-36.41h-6.81v39.81h3.55v-39.52l13.27,39.52h3.74l13.26-39.52v39.52Z"/>
      </g>
      <g>
        <path class="cls-1" d="M862.06,222.72c-4.82,0-8.42-.93-10.81-2.8-2.39-1.87-3.9-4.06-4.53-6.59s-.95-5.46-.95-8.8v-23.99h5.49v23.9c0,5.45.92,9.03,2.75,10.75,1.83,1.72,4.51,2.57,8.05,2.57s6.21-.86,8.05-2.57c1.83-1.71,2.75-5.3,2.75-10.75v-23.9h5.52v23.99c0,5.02-.6,8.71-1.8,11.09-1.2,2.38-3.01,4.15-5.43,5.33-2.42,1.18-5.45,1.77-9.09,1.77Z"/>
        <path class="cls-1" d="M862.06,223.55c-4.98,0-8.79-1-11.32-2.97s-4.15-4.34-4.83-7.04c-.65-2.58-.97-5.6-.97-9v-24.82h7.15v24.73c0,5.19.84,8.6,2.48,10.14,1.67,1.56,4.18,2.35,7.48,2.35s5.81-.79,7.48-2.35c1.65-1.54,2.48-4.96,2.48-10.14v-24.73h7.18v24.82c0,5.2-.62,8.94-1.89,11.46-1.28,2.53-3.23,4.45-5.8,5.7-2.52,1.23-5.7,1.85-9.45,1.85ZM846.61,181.38v23.16c0,3.26.31,6.15.92,8.6.59,2.33,2.01,4.4,4.24,6.14,2.23,1.74,5.69,2.62,10.3,2.62,3.5,0,6.44-.57,8.73-1.68,2.24-1.09,3.94-2.76,5.05-4.96,1.13-2.25,1.71-5.85,1.71-10.71v-23.16h-3.86v23.07c0,5.74-.99,9.46-3.01,11.35-1.98,1.86-4.88,2.8-8.61,2.8s-6.63-.94-8.61-2.8c-2.03-1.9-3.01-5.61-3.01-11.35v-23.07h-3.83Z"/>
      </g>
      <g>
        <path class="cls-1" d="M920.27,222.01h-5.64l-21.75-32.73v32.73h-5.21v-41.47h5.61l21.75,32.73v-32.73h5.24v41.47Z"/>
        <path class="cls-1" d="M921.1,222.84h-6.91l-20.48-30.81v30.81h-6.87v-43.13h6.88l20.48,30.81v-30.81h6.9v43.13ZM915.08,221.18h4.36v-39.81h-3.58v34.65l-23.03-34.65h-4.33v39.81h3.55v-34.64l23.03,34.64Z"/>
      </g>
      <g>
        <path class="cls-1" d="M935.77,222.01h-5.52v-41.47h5.52v41.47Z"/>
        <path class="cls-1" d="M936.6,222.84h-7.18v-43.13h7.18v43.13ZM931.08,221.18h3.86v-39.81h-3.86v39.81Z"/>
      </g>
      <g>
        <path class="cls-1" d="M963.07,222.72c-5.87,0-10.56-1.93-14.06-5.78-3.5-3.86-5.25-9.07-5.25-15.66s1.75-11.8,5.25-15.66c3.5-3.86,8.19-5.78,14.06-5.78,4.51,0,8.36,1.22,11.53,3.65,3.17,2.43,4.96,5.64,5.35,9.62h-5.67c-.23-2.62-1.36-4.7-3.41-6.25-2.05-1.55-4.63-2.32-7.75-2.32-4.21,0-7.54,1.45-10,4.34-2.45,2.89-3.68,7.03-3.68,12.4s1.22,9.49,3.65,12.39c2.44,2.9,5.74,4.36,9.92,4.36,3.25,0,5.87-.79,7.87-2.38s3.13-3.85,3.4-6.79h5.67c-.4,4.41-2.13,7.83-5.21,10.24-3.08,2.41-6.97,3.62-11.67,3.62Z"/>
        <path class="cls-1" d="M963.07,223.55c-6.09,0-11.03-2.04-14.68-6.06-3.63-3.99-5.47-9.45-5.47-16.21s1.84-12.22,5.47-16.21c3.65-4.02,8.59-6.06,14.68-6.06,4.68,0,8.73,1.29,12.03,3.82,3.35,2.57,5.26,6,5.67,10.19l.09.91h-7.34l-.07-.76c-.21-2.4-1.22-4.25-3.08-5.66-1.89-1.43-4.33-2.15-7.25-2.15-3.99,0-7.06,1.33-9.37,4.05-2.31,2.73-3.48,6.72-3.48,11.87s1.16,9.12,3.46,11.86c2.29,2.73,5.33,4.06,9.28,4.06,3.04,0,5.52-.74,7.36-2.2,1.83-1.45,2.84-3.48,3.09-6.21l.07-.76h7.33l-.08.9c-.41,4.63-2.27,8.27-5.53,10.82-3.21,2.52-7.31,3.8-12.18,3.8ZM963.07,180.67c-5.6,0-10.13,1.85-13.45,5.51-3.34,3.68-5.04,8.76-5.04,15.1s1.69,11.42,5.04,15.1c3.32,3.66,7.85,5.51,13.45,5.51,4.49,0,8.24-1.16,11.16-3.44,2.67-2.09,4.28-5.03,4.79-8.76h-4c-.4,2.81-1.62,5.03-3.62,6.61-2.14,1.69-4.96,2.55-8.39,2.55-4.41,0-7.96-1.56-10.55-4.65-2.55-3.05-3.85-7.39-3.85-12.92s1.31-9.9,3.88-12.94c2.61-3.08,6.19-4.64,10.63-4.64,3.28,0,6.06.84,8.25,2.49,2.03,1.54,3.26,3.58,3.65,6.08h3.99c-.54-3.34-2.15-6.01-4.92-8.13-3.01-2.31-6.72-3.48-11.02-3.48Z"/>
      </g>
      <g>
        <path class="cls-1" d="M1021.68,222.01h-6.2l-4.82-12.62h-17.39l-4.59,12.62h-5.81l15.95-41.47h5.92l16.94,41.47ZM1009.05,205.04l-7.31-19.24-6.97,19.24h14.28Z"/>
        <path class="cls-1" d="M1022.91,222.84h-8.01l-4.82-12.62h-16.24l-4.59,12.62h-7.6l16.58-43.13h7.05l17.62,43.13ZM1016.05,221.18h4.39l-16.26-39.81h-4.79l-15.31,39.81h4.02l4.59-12.62h18.54l4.82,12.62ZM1010.25,205.87h-16.66l8.13-22.45,8.53,22.45ZM995.95,204.21h11.89l-6.08-16.02-5.8,16.02Z"/>
      </g>
      <g>
        <path class="cls-1" d="M1043.66,222.72c-5.87,0-10.56-1.93-14.06-5.78-3.5-3.86-5.25-9.07-5.25-15.66s1.75-11.8,5.25-15.66c3.5-3.86,8.19-5.78,14.06-5.78,4.51,0,8.36,1.22,11.53,3.65,3.17,2.43,4.96,5.64,5.35,9.62h-5.67c-.23-2.62-1.36-4.7-3.41-6.25-2.05-1.55-4.63-2.32-7.75-2.32-4.21,0-7.54,1.45-10,4.34-2.45,2.89-3.68,7.03-3.68,12.4s1.22,9.49,3.65,12.39c2.44,2.9,5.74,4.36,9.92,4.36,3.25,0,5.87-.79,7.87-2.38s3.13-3.85,3.4-6.79h5.67c-.4,4.41-2.13,7.83-5.21,10.24-3.08,2.41-6.97,3.62-11.67,3.62Z"/>
        <path class="cls-1" d="M1043.66,223.55c-6.09,0-11.03-2.04-14.68-6.06-3.63-3.99-5.47-9.45-5.47-16.21s1.84-12.22,5.47-16.21c3.65-4.02,8.59-6.06,14.68-6.06,4.68,0,8.73,1.29,12.03,3.82,3.35,2.57,5.26,6,5.67,10.19l.09.91h-7.34l-.07-.76c-.21-2.4-1.22-4.25-3.08-5.66-1.89-1.43-4.33-2.15-7.25-2.15-3.99,0-7.06,1.33-9.37,4.05-2.31,2.73-3.48,6.72-3.48,11.87s1.16,9.12,3.46,11.86c2.29,2.73,5.33,4.06,9.28,4.06,3.04,0,5.52-.74,7.36-2.2,1.83-1.45,2.84-3.48,3.09-6.21l.07-.76h7.33l-.08.9c-.41,4.63-2.27,8.27-5.53,10.82-3.21,2.52-7.31,3.8-12.18,3.8ZM1043.66,180.67c-5.6,0-10.13,1.85-13.45,5.51-3.34,3.68-5.04,8.76-5.04,15.1s1.69,11.42,5.04,15.1c3.32,3.66,7.85,5.51,13.45,5.51,4.49,0,8.24-1.16,11.16-3.44,2.67-2.09,4.28-5.03,4.79-8.76h-4c-.4,2.81-1.62,5.03-3.62,6.61-2.14,1.69-4.96,2.55-8.39,2.55-4.41,0-7.96-1.56-10.55-4.65-2.55-3.05-3.85-7.39-3.85-12.92s1.31-9.9,3.88-12.94c2.61-3.08,6.19-4.64,10.63-4.64,3.28,0,6.06.84,8.25,2.49,2.03,1.54,3.26,3.58,3.65,6.08h3.99c-.54-3.34-2.15-6.01-4.92-8.13-3.01-2.31-6.72-3.48-11.02-3.48Z"/>
      </g>
      <g>
        <path class="cls-1" d="M1074.37,222.01h-5.52v-41.47h5.52v41.47Z"/>
        <path class="cls-1" d="M1075.2,222.84h-7.18v-43.13h7.18v43.13ZM1069.67,221.18h3.86v-39.81h-3.86v39.81Z"/>
      </g>
      <g>
        <path class="cls-1" d="M1084.28,180.55h15.49c3.4,0,6.25.32,8.54.95s4.11,2,5.45,4.1c1.34,2.1,2.01,4.46,2.01,7.06,0,4.19-1.33,7.36-3.99,9.53s-6.52,3.25-11.56,3.25h-10.45v16.58h-5.49v-41.47ZM1089.77,200.52h10.51c3.53,0,6.05-.66,7.55-1.98,1.5-1.32,2.25-3.23,2.25-5.71,0-1.66-.42-3.13-1.25-4.41-.83-1.28-1.88-2.09-3.16-2.43-1.27-.34-3.11-.51-5.51-.51h-10.4v15.05Z"/>
        <path class="cls-1" d="M1090.6,222.84h-7.15v-43.13h16.32c3.45,0,6.4.33,8.76.98,2.49.68,4.48,2.18,5.93,4.45,1.42,2.23,2.14,4.76,2.14,7.51,0,4.43-1.45,7.85-4.3,10.18-2.8,2.28-6.87,3.44-12.08,3.44h-9.62v16.58ZM1085.11,221.18h3.83v-16.58h11.28c4.82,0,8.53-1.03,11.03-3.07,2.48-2.02,3.69-4.93,3.69-8.89,0-2.43-.63-4.65-1.88-6.61-1.24-1.94-2.87-3.16-4.97-3.75-2.22-.61-5.01-.92-8.32-.92h-14.66v39.81ZM1100.28,201.35h-11.34v-16.71h11.23c2.49,0,4.36.18,5.72.54,1.47.39,2.7,1.33,3.64,2.78.92,1.41,1.38,3.05,1.38,4.87,0,2.73-.85,4.86-2.53,6.34-1.67,1.47-4.32,2.19-8.1,2.19ZM1090.6,199.69h9.68c3.31,0,5.66-.6,7-1.77,1.33-1.17,1.97-2.83,1.97-5.09,0-1.51-.37-2.81-1.11-3.96-.72-1.11-1.6-1.79-2.68-2.08-1.2-.32-2.98-.48-5.29-.48h-9.57v13.39Z"/>
      </g>
      <g>
        <path class="cls-1" d="M1153.93,222.01h-30.96v-41.47h30v4.92h-24.5v12.67h22.92v4.92h-22.92v14.03h25.47v4.92Z"/>
        <path class="cls-1" d="M1154.76,222.84h-32.62v-43.13h31.66v6.58h-24.5v11.01h22.92v6.58h-22.92v12.37h25.47v6.58ZM1123.8,221.18h29.3v-3.26h-25.47v-15.69h22.92v-3.26h-22.92v-14.33h24.5v-3.26h-28.34v39.81Z"/>
      </g>
      <g>
        <path class="cls-1" d="M1177.33,222.72c-5.86,0-10.23-1.31-13.13-3.93-2.9-2.62-4.42-5.99-4.57-10.1h5.3c.28,3.09,1.57,5.38,3.87,6.86,2.29,1.48,5.06,2.22,8.31,2.22,3.08,0,5.56-.63,7.44-1.9,1.88-1.26,2.82-2.98,2.82-5.15,0-2.28-.97-3.94-2.92-4.98s-5.29-2.06-10.04-3.07-8.16-2.41-10.22-4.2c-2.07-1.79-3.1-4.18-3.1-7.16,0-3.36,1.34-6.11,4.04-8.26,2.69-2.15,6.26-3.23,10.72-3.23,4.68,0,8.46,1.09,11.33,3.25s4.39,5.23,4.56,9.19h-5.35c-.55-5.02-3.98-7.52-10.31-7.52-3.06,0-5.43.57-7.11,1.72-1.68,1.15-2.52,2.68-2.52,4.58,0,1.74.67,3.04,2.03,3.9,1.35.87,3.87,1.71,7.56,2.52s6.62,1.61,8.8,2.4,4.03,2.02,5.58,3.69c1.55,1.67,2.32,3.91,2.32,6.72,0,3.56-1.42,6.52-4.26,8.88-2.84,2.36-6.55,3.54-11.12,3.54Z"/>
        <path class="cls-1" d="M1177.33,223.55c-6.04,0-10.64-1.39-13.69-4.15-3.06-2.76-4.69-6.36-4.85-10.68l-.03-.86h6.91l.07.75c.26,2.85,1.4,4.89,3.49,6.24,2.15,1.39,4.79,2.09,7.86,2.09,2.89,0,5.24-.59,6.97-1.76,1.65-1.11,2.45-2.57,2.45-4.46s-.81-3.36-2.48-4.25c-1.87-.99-5.17-2-9.82-2.99-4.94-1.05-8.4-2.48-10.6-4.39-2.25-1.95-3.39-4.57-3.39-7.78,0-3.61,1.46-6.6,4.35-8.91,2.83-2.26,6.61-3.41,11.24-3.41s8.83,1.15,11.83,3.42c3.07,2.31,4.71,5.62,4.89,9.82l.04.87h-6.96l-.08-.74c-.5-4.57-3.6-6.79-9.49-6.79-2.87,0-5.11.53-6.64,1.58-1.45.99-2.16,2.27-2.16,3.9,0,1.45.54,2.5,1.64,3.21,1.26.81,3.72,1.62,7.29,2.41,3.7.81,6.7,1.63,8.9,2.43,2.28.83,4.27,2.15,5.91,3.91,1.69,1.82,2.54,4.27,2.54,7.28,0,3.81-1.53,7.01-4.56,9.52-2.98,2.47-6.9,3.73-11.65,3.73ZM1160.51,209.52c.31,3.51,1.7,6.35,4.25,8.65,2.73,2.47,6.96,3.72,12.57,3.72,4.35,0,7.91-1.13,10.59-3.35,2.67-2.21,3.96-4.9,3.96-8.24,0-2.58-.71-4.65-2.1-6.15-1.45-1.56-3.22-2.74-5.25-3.48-2.14-.78-5.06-1.58-8.69-2.37-3.82-.84-6.38-1.7-7.83-2.63-1.6-1.02-2.41-2.57-2.41-4.6,0-2.19.97-3.96,2.88-5.27,1.81-1.24,4.36-1.87,7.58-1.87,6.48,0,10.19,2.53,11.03,7.52h3.74c-.33-3.31-1.69-5.83-4.17-7.7-2.71-2.05-6.36-3.08-10.83-3.08-4.24,0-7.68,1.02-10.2,3.04-2.51,2-3.72,4.49-3.72,7.61,0,2.75.92,4.89,2.81,6.53,1.95,1.69,5.26,3.04,9.85,4.01,4.87,1.04,8.23,2.07,10.26,3.15,2.23,1.19,3.36,3.11,3.36,5.71,0,2.45-1.07,4.41-3.19,5.84-2.01,1.35-4.67,2.04-7.9,2.04-3.4,0-6.35-.79-8.76-2.35-2.32-1.5-3.71-3.75-4.15-6.73h-3.68Z"/>
      </g>
    </g>
    <g id="Gobernacion">
      <g>
        <path class="cls-1" d="M541.89,305.34c-3.18,0-5.76-1.04-7.73-3.12-1.98-2.08-2.97-4.85-2.97-8.32s.98-6.25,2.93-8.32c1.95-2.08,4.51-3.12,7.68-3.12,2.67,0,4.88.64,6.65,1.92s2.75,3,2.97,5.15h-3.03c-.12-1.43-.76-2.55-1.93-3.36-1.17-.81-2.71-1.21-4.62-1.21-2.28,0-4.12.78-5.52,2.34s-2.09,3.76-2.09,6.6.7,5.02,2.11,6.59c1.41,1.56,3.25,2.35,5.52,2.35,3.19,0,5.56-1.05,7.11-3.15v-3.37h-5.84v-2.64h8.68v11.29h-2.07l-.77-2.32c-1.5,1.8-3.86,2.7-7.08,2.7Z"/>
        <path class="cls-1" d="M541.89,305.66c-3.26,0-5.94-1.08-7.97-3.22-2.03-2.14-3.05-5.01-3.05-8.54s1.01-6.41,3.01-8.54c2.01-2.14,4.67-3.22,7.92-3.22,2.72,0,5.02.67,6.84,1.98,1.84,1.33,2.88,3.15,3.1,5.38l.03.35h-3.68l-.03-.29c-.11-1.34-.7-2.36-1.79-3.12-1.11-.77-2.6-1.16-4.43-1.16-2.18,0-3.95.75-5.28,2.23-1.33,1.49-2.01,3.64-2.01,6.38s.68,4.87,2.03,6.37c1.34,1.49,3.12,2.24,5.28,2.24,3.02,0,5.31-.99,6.79-2.94v-2.94h-5.84v-3.29h9.32v11.93h-2.62l-.67-2.02c-1.56,1.59-3.9,2.4-6.95,2.4ZM541.8,282.78c-3.06,0-5.57,1.01-7.45,3.02-1.89,2-2.84,4.73-2.84,8.1s.97,6.08,2.88,8.09c1.9,2.01,4.43,3.02,7.5,3.02s5.4-.87,6.83-2.59l.37-.45.88,2.65h1.51v-10.65h-8.03v2h5.84v3.79l-.06.09c-1.61,2.18-4.09,3.29-7.37,3.29-2.36,0-4.3-.83-5.76-2.45-1.46-1.62-2.2-3.91-2.2-6.8s.73-5.2,2.17-6.81c1.45-1.62,3.39-2.45,5.76-2.45,1.97,0,3.59.43,4.8,1.27,1.16.81,1.85,1.92,2.04,3.3h2.38c-.27-1.89-1.21-3.42-2.79-4.57-1.7-1.24-3.87-1.86-6.46-1.86Z"/>
      </g>
      <g>
        <path class="cls-1" d="M565.84,282.46c3.1,0,5.63,1.05,7.61,3.14s2.96,4.86,2.96,8.3-.99,6.21-2.96,8.3c-1.97,2.09-4.51,3.14-7.61,3.14s-5.65-1.05-7.64-3.15c-1.98-2.1-2.97-4.86-2.97-8.29s.99-6.21,2.97-8.3c1.98-2.09,4.53-3.14,7.64-3.14ZM565.81,302.84c2.21,0,4.03-.78,5.44-2.35,1.41-1.57,2.12-3.76,2.12-6.58s-.7-5.01-2.11-6.58c-1.41-1.57-3.2-2.35-5.39-2.35s-4.05.78-5.47,2.35c-1.42,1.57-2.14,3.76-2.14,6.58s.71,5,2.13,6.57c1.42,1.57,3.22,2.36,5.42,2.36Z"/>
        <path class="cls-1" d="M565.84,305.66c-3.19,0-5.83-1.09-7.87-3.25-2.03-2.15-3.06-5.02-3.06-8.51s1.03-6.38,3.06-8.52c2.04-2.15,4.68-3.24,7.87-3.24s5.81,1.09,7.84,3.24c2.02,2.15,3.05,5.01,3.05,8.52s-1.03,6.38-3.05,8.52c-2.03,2.15-4.66,3.24-7.84,3.24ZM565.84,282.78c-3,0-5.49,1.02-7.4,3.04-1.91,2.02-2.89,4.74-2.89,8.08s.97,6.05,2.89,8.07c1.91,2.02,4.4,3.05,7.4,3.05s5.47-1.02,7.37-3.04c1.9-2.02,2.87-4.74,2.87-8.08s-.97-6.06-2.87-8.08c-1.9-2.02-4.38-3.04-7.37-3.04ZM565.81,303.16c-2.28,0-4.18-.83-5.66-2.47-1.47-1.63-2.21-3.91-2.21-6.79s.75-5.17,2.22-6.8c1.48-1.63,3.4-2.46,5.71-2.46s4.16.83,5.63,2.46c1.46,1.62,2.19,3.91,2.19,6.79s-.74,5.17-2.2,6.8c-1.47,1.63-3.38,2.46-5.68,2.46ZM565.87,285.29c-2.12,0-3.88.76-5.23,2.25-1.36,1.5-2.05,3.64-2.05,6.36s.69,4.85,2.05,6.36c1.35,1.5,3.09,2.26,5.18,2.26s3.86-.76,5.2-2.25c1.35-1.5,2.04-3.64,2.04-6.36s-.68-4.86-2.03-6.37c-1.34-1.49-3.07-2.25-5.15-2.25Z"/>
      </g>
      <g>
        <path class="cls-1" d="M596.84,298.53c0,2.07-.7,3.66-2.11,4.77s-3.46,1.66-6.14,1.66h-8.29v-22.13h7.88c2.35,0,4.21.5,5.55,1.51s2.02,2.38,2.02,4.14c0,2.13-1.06,3.71-3.18,4.74,1.43.36,2.5,1.03,3.21,2,.71.97,1.06,2.08,1.06,3.31ZM583.23,292.11h4.92c1.62,0,2.81-.26,3.58-.78s1.15-1.38,1.15-2.59c0-1.09-.37-1.9-1.12-2.45s-2.04-.82-3.88-.82h-4.65v6.64ZM583.23,302.34h5.33c3.5,0,5.25-1.27,5.25-3.8,0-1.32-.4-2.28-1.21-2.89s-2.28-.91-4.41-.91h-4.95v7.61Z"/>
        <path class="cls-1" d="M588.58,305.29h-8.61v-22.77h8.2c2.41,0,4.35.53,5.75,1.57,1.43,1.07,2.15,2.55,2.15,4.39,0,2.01-.9,3.57-2.68,4.66,1.13.41,2.02,1.04,2.64,1.89.75,1.02,1.13,2.2,1.13,3.5,0,2.17-.75,3.86-2.24,5.02-1.46,1.15-3.59,1.73-6.34,1.73ZM580.62,304.64h7.96c2.6,0,4.6-.54,5.94-1.59,1.34-1.05,1.99-2.53,1.99-4.52,0-1.16-.34-2.21-1-3.12-.66-.91-1.68-1.54-3.03-1.88l-.86-.22.8-.38c2.02-.98,3-2.43,3-4.45,0-1.66-.62-2.93-1.89-3.88-1.29-.96-3.09-1.45-5.36-1.45h-7.56v21.48ZM588.55,302.66h-5.65v-8.25h5.27c2.22,0,3.73.32,4.61.98.89.67,1.34,1.73,1.34,3.15,0,2.74-1.88,4.13-5.57,4.13ZM583.55,302.02h5.01c3.32,0,4.93-1.14,4.93-3.48,0-1.22-.36-2.08-1.09-2.63-.75-.56-2.17-.85-4.22-.85h-4.63v6.96ZM588.15,292.43h-5.24v-7.28h4.97c1.93,0,3.26.29,4.07.89.83.61,1.25,1.52,1.25,2.71,0,1.32-.43,2.28-1.29,2.85-.83.56-2.06.83-3.76.83ZM583.55,291.78h4.6c1.55,0,2.69-.24,3.4-.72.68-.46,1.01-1.22,1.01-2.32,0-.99-.32-1.71-.99-2.19-.68-.5-1.93-.76-3.69-.76h-4.33v6Z"/>
      </g>
      <g>
        <path class="cls-1" d="M617.41,304.96h-16.5v-22.13h15.98v2.63h-13.05v6.76h12.21v2.63h-12.21v7.49h13.57v2.63Z"/>
        <path class="cls-1" d="M617.73,305.29h-17.14v-22.77h16.63v3.27h-13.05v6.12h12.21v3.27h-12.21v6.84h13.57v3.27ZM601.24,304.64h15.85v-1.98h-13.57v-8.13h12.21v-1.98h-12.21v-7.41h13.05v-1.98h-15.34v21.48Z"/>
      </g>
      <g>
        <path class="cls-1" d="M639.97,304.96h-3.17l-2.08-5.9c-.37-1.05-.99-1.9-1.86-2.57-.87-.66-1.86-1-2.99-1h-5.42v9.46h-2.93v-22.13h9.79c1.71,0,3.11.17,4.2.5s1.97,1.03,2.66,2.1,1.03,2.27,1.03,3.61c0,1.53-.44,2.81-1.33,3.83s-2.1,1.7-3.64,2.01v.06c1.54.49,2.71,1.83,3.52,4l2.22,6.02ZM624.46,292.87h6.53c1.82,0,3.14-.29,3.96-.86s1.23-1.56,1.23-2.97c0-2.52-1.58-3.77-4.74-3.77h-6.99v7.61Z"/>
        <path class="cls-1" d="M640.43,305.29h-3.86l-2.16-6.11c-.35-.98-.94-1.8-1.75-2.42-.8-.62-1.74-.93-2.79-.93h-5.1v9.46h-3.57v-22.77h10.12c1.73,0,3.18.17,4.29.51,1.16.35,2.11,1.1,2.83,2.23.72,1.11,1.08,2.39,1.08,3.78,0,1.6-.47,2.96-1.41,4.04-.76.88-1.76,1.52-2.98,1.9,1.24.68,2.22,1.97,2.91,3.85l2.38,6.45ZM637.03,304.64h2.48l-2.06-5.59c-.76-2.07-1.88-3.35-3.31-3.8l-.22-.07v-.5l.26-.11c1.46-.3,2.62-.94,3.46-1.9.83-.96,1.25-2.18,1.25-3.62,0-1.27-.33-2.42-.97-3.43-.64-1-1.47-1.66-2.48-1.96-1.05-.32-2.43-.48-4.1-.48h-9.47v21.48h2.28v-9.46h5.74c1.19,0,2.27.36,3.18,1.06.91.7,1.57,1.61,1.96,2.71l2.01,5.69ZM630.99,293.2h-6.86v-8.25h7.31c3.36,0,5.06,1.38,5.06,4.1,0,1.51-.46,2.6-1.37,3.24-.88.62-2.24.92-4.15.92ZM624.78,292.55h6.21c1.75,0,3.02-.27,3.78-.8.74-.51,1.09-1.4,1.09-2.71,0-2.32-1.45-3.45-4.42-3.45h-6.67v6.96Z"/>
      </g>
      <g>
        <path class="cls-1" d="M661.22,304.96h-3l-11.59-17.46v17.46h-2.78v-22.13h2.99l11.59,17.46v-17.46h2.79v22.13Z"/>
        <path class="cls-1" d="M661.54,305.29h-3.5l-11.1-16.72v16.72h-3.42v-22.77h3.48l11.1,16.72v-16.72h3.44v22.77ZM658.39,304.64h2.51v-21.48h-2.15v18.21l-12.09-18.21h-2.49v21.48h2.13v-18.21l12.09,18.21Z"/>
      </g>
      <g>
        <path class="cls-1" d="M684.34,304.96h-3.31l-2.57-6.73h-9.27l-2.44,6.73h-3.09l8.5-22.13h3.15l9.03,22.13ZM677.61,295.91l-3.89-10.26-3.71,10.26h7.61Z"/>
        <path class="cls-1" d="M684.82,305.29h-4.01l-2.57-6.73h-8.82l-2.44,6.73h-3.79l8.74-22.77h3.59l9.29,22.77ZM681.26,304.64h2.6l-8.76-21.48h-2.72l-8.25,21.48h2.4l2.44-6.73h9.71l2.57,6.73ZM678.08,296.23h-8.53l4.16-11.51,4.37,11.51ZM670.47,295.59h6.68l-3.42-9.02-3.26,9.02Z"/>
      </g>
      <g>
        <path class="cls-1" d="M696.06,305.34c-3.13,0-5.63-1.03-7.49-3.09-1.87-2.06-2.8-4.84-2.8-8.35s.93-6.3,2.8-8.35c1.87-2.06,4.36-3.09,7.49-3.09,2.4,0,4.45.65,6.14,1.95s2.64,3.01,2.85,5.13h-3.02c-.12-1.4-.73-2.51-1.82-3.34-1.09-.83-2.47-1.24-4.13-1.24-2.24,0-4.02.77-5.33,2.32-1.31,1.54-1.96,3.75-1.96,6.62s.65,5.06,1.95,6.61,3.06,2.32,5.28,2.32c1.73,0,3.13-.42,4.2-1.27s1.67-2.05,1.81-3.62h3.02c-.21,2.35-1.14,4.18-2.78,5.46s-3.71,1.93-6.22,1.93Z"/>
        <path class="cls-1" d="M696.06,305.66c-3.21,0-5.81-1.07-7.73-3.19-1.91-2.11-2.88-4.99-2.88-8.57s.97-6.46,2.88-8.57c1.92-2.12,4.52-3.19,7.73-3.19,2.47,0,4.6.68,6.34,2.01,1.76,1.35,2.76,3.15,2.98,5.36l.04.35h-3.67l-.03-.29c-.11-1.32-.67-2.33-1.69-3.11-1.03-.78-2.35-1.17-3.93-1.17-2.13,0-3.84.74-5.08,2.2-1.25,1.48-1.89,3.63-1.89,6.41s.63,4.92,1.87,6.4c1.23,1.47,2.92,2.21,5.04,2.21,1.65,0,2.99-.4,4-1.2s1.56-1.91,1.69-3.4l.03-.29h3.66l-.03.35c-.22,2.44-1.19,4.35-2.9,5.69-1.69,1.33-3.85,2-6.42,2ZM696.06,282.78c-3.02,0-5.46,1-7.25,2.98-1.8,1.99-2.72,4.72-2.72,8.14s.91,6.15,2.72,8.14c1.79,1.98,4.23,2.98,7.25,2.98,2.42,0,4.44-.63,6.02-1.86,1.48-1.16,2.36-2.8,2.62-4.89h-2.37c-.19,1.51-.83,2.71-1.9,3.55-1.12.89-2.6,1.34-4.4,1.34-2.31,0-4.17-.82-5.53-2.44-1.34-1.6-2.02-3.89-2.02-6.82s.69-5.23,2.04-6.83c1.37-1.61,3.24-2.43,5.57-2.43,1.72,0,3.18.44,4.32,1.3,1.09.82,1.73,1.92,1.91,3.27h2.37c-.27-1.86-1.17-3.39-2.69-4.55-1.62-1.25-3.63-1.88-5.95-1.88Z"/>
      </g>
      <g>
        <path class="cls-1" d="M712.42,304.96h-2.94v-22.13h2.94v22.13Z"/>
        <path class="cls-1" d="M712.74,305.29h-3.59v-22.77h3.59v22.77ZM709.8,304.64h2.3v-21.48h-2.3v21.48Z"/>
      </g>
      <g>
        <path class="cls-1" d="M727.28,282.46c3.1,0,5.63,1.05,7.61,3.14,1.97,2.09,2.96,4.86,2.96,8.3s-.99,6.21-2.96,8.3c-1.97,2.09-4.51,3.14-7.61,3.14s-5.65-1.05-7.64-3.15c-1.98-2.1-2.97-4.86-2.97-8.29s.99-6.21,2.97-8.3c1.98-2.09,4.53-3.14,7.64-3.14ZM727.25,302.84c2.21,0,4.03-.78,5.44-2.35,1.41-1.57,2.12-3.76,2.12-6.58s-.7-5.01-2.11-6.58c-1.41-1.57-3.2-2.35-5.39-2.35s-4.05.78-5.47,2.35-2.14,3.76-2.14,6.58.71,5,2.13,6.57c1.42,1.57,3.22,2.36,5.42,2.36ZM731.12,277.19l-3.34,4.24h-2.23l2.01-4.24h3.56Z"/>
        <path class="cls-1" d="M727.28,305.66c-3.19,0-5.83-1.09-7.87-3.25-2.03-2.15-3.06-5.02-3.06-8.51s1.03-6.38,3.06-8.52c2.04-2.15,4.68-3.24,7.87-3.24s5.81,1.09,7.84,3.24c2.02,2.15,3.05,5.01,3.05,8.52s-1.03,6.38-3.05,8.52c-2.03,2.15-4.66,3.24-7.84,3.24ZM727.28,282.78c-3,0-5.49,1.02-7.4,3.04-1.91,2.02-2.89,4.74-2.89,8.08s.97,6.05,2.89,8.07c1.91,2.02,4.4,3.05,7.4,3.05s5.47-1.02,7.37-3.04c1.9-2.02,2.87-4.74,2.87-8.08s-.97-6.06-2.87-8.08c-1.9-2.02-4.38-3.04-7.37-3.04ZM727.25,303.16c-2.28,0-4.18-.83-5.66-2.47-1.47-1.63-2.21-3.91-2.21-6.79s.75-5.17,2.22-6.8c1.48-1.63,3.4-2.46,5.71-2.46s4.16.83,5.63,2.46c1.46,1.62,2.19,3.91,2.19,6.79s-.74,5.17-2.2,6.8c-1.47,1.63-3.38,2.46-5.68,2.46ZM727.31,285.29c-2.12,0-3.88.76-5.23,2.25-1.36,1.5-2.05,3.64-2.05,6.36s.69,4.85,2.05,6.36c1.35,1.5,3.09,2.26,5.18,2.26s3.86-.76,5.2-2.25c1.35-1.5,2.04-3.64,2.04-6.36s-.68-4.86-2.03-6.37c-1.34-1.49-3.07-2.25-5.15-2.25ZM727.94,281.76h-2.9l2.31-4.88h4.43l-3.84,4.88ZM726.05,281.11h1.57l2.83-3.6h-2.7l-1.7,3.6Z"/>
      </g>
      <g>
        <path class="cls-1" d="M759.11,304.96h-3l-11.59-17.46v17.46h-2.78v-22.13h2.99l11.59,17.46v-17.46h2.79v22.13Z"/>
        <path class="cls-1" d="M759.43,305.29h-3.5l-11.1-16.72v16.72h-3.42v-22.77h3.48l11.1,16.72v-16.72h3.44v22.77ZM756.28,304.64h2.51v-21.48h-2.15v18.21l-12.09-18.21h-2.49v21.48h2.13v-18.21l12.09,18.21Z"/>
      </g>
      <g>
        <path class="cls-1" d="M772.27,282.84h7.02c7.52,0,11.27,3.65,11.27,10.94s-3.76,11.18-11.27,11.18h-7.02v-22.13ZM775.2,302.34h4.03c3.21,0,5.4-.75,6.57-2.24s1.75-3.6,1.75-6.32-.58-4.69-1.74-6.14-3.35-2.17-6.57-2.17h-4.03v16.87Z"/>
        <path class="cls-1" d="M779.29,305.29h-7.34v-22.77h7.34c7.69,0,11.6,3.79,11.6,11.26s-3.9,11.51-11.6,11.51ZM772.59,304.64h6.7c7.37,0,10.95-3.55,10.95-10.86s-3.58-10.62-10.95-10.62h-6.7v21.48ZM779.23,302.66h-4.35v-17.52h4.35c3.31,0,5.6.77,6.82,2.29,1.2,1.5,1.81,3.63,1.81,6.34s-.61,4.97-1.82,6.51c-1.23,1.57-3.52,2.36-6.82,2.36ZM775.52,302.02h3.71c3.09,0,5.21-.71,6.31-2.12,1.12-1.43,1.68-3.49,1.68-6.12s-.56-4.56-1.67-5.94c-1.09-1.36-3.22-2.05-6.32-2.05h-3.71v16.23Z"/>
      </g>
      <g>
        <path class="cls-1" d="M811.09,304.96h-16.5v-22.13h15.98v2.63h-13.05v6.76h12.21v2.63h-12.21v7.49h13.57v2.63Z"/>
        <path class="cls-1" d="M811.41,305.29h-17.14v-22.77h16.63v3.27h-13.05v6.12h12.21v3.27h-12.21v6.84h13.57v3.27ZM794.92,304.64h15.85v-1.98h-13.57v-8.13h12.21v-1.98h-12.21v-7.41h13.05v-1.98h-15.34v21.48Z"/>
      </g>
      <g>
        <path class="cls-1" d="M828.9,304.96h-13.69v-22.13h2.93v19.5h10.76v2.63Z"/>
        <path class="cls-1" d="M829.22,305.29h-14.33v-22.77h3.57v19.5h10.76v3.27ZM815.53,304.64h13.04v-1.98h-10.76v-19.5h-2.28v21.48Z"/>
      </g>
      <g>
        <path class="cls-1" d="M857.11,304.96h-16.5v-22.13h15.98v2.63h-13.05v6.76h12.21v2.63h-12.21v7.49h13.57v2.63Z"/>
        <path class="cls-1" d="M857.43,305.29h-17.14v-22.77h16.63v3.27h-13.05v6.12h12.21v3.27h-12.21v6.84h13.57v3.27ZM840.93,304.64h15.85v-1.98h-13.57v-8.13h12.21v-1.98h-12.21v-7.41h13.05v-1.98h-15.34v21.48Z"/>
      </g>
      <g>
        <path class="cls-1" d="M869.57,305.34c-3.12,0-5.45-.7-7-2.1s-2.36-3.19-2.44-5.39h2.82c.15,1.65.84,2.87,2.06,3.66,1.22.79,2.7,1.18,4.43,1.18,1.64,0,2.96-.34,3.96-1.01,1-.67,1.5-1.59,1.5-2.75,0-1.22-.52-2.1-1.55-2.66s-2.82-1.1-5.35-1.64c-2.53-.54-4.35-1.29-5.45-2.24-1.1-.96-1.65-2.23-1.65-3.82,0-1.79.72-3.26,2.15-4.41s3.34-1.72,5.71-1.72c2.5,0,4.51.58,6.04,1.74,1.53,1.16,2.34,2.79,2.43,4.91h-2.85c-.29-2.68-2.12-4.01-5.49-4.01-1.63,0-2.89.31-3.79.92s-1.34,1.43-1.34,2.44c0,.93.36,1.62,1.08,2.08s2.06.91,4.03,1.34c1.97.43,3.53.86,4.69,1.28,1.16.42,2.15,1.08,2.97,1.97.83.89,1.24,2.09,1.24,3.58,0,1.9-.76,3.48-2.27,4.74-1.51,1.26-3.49,1.89-5.92,1.89Z"/>
        <path class="cls-1" d="M869.57,305.66c-3.19,0-5.61-.73-7.21-2.18-1.6-1.45-2.46-3.34-2.54-5.61v-.33s3.44,0,3.44,0l.03.29c.14,1.56.77,2.68,1.91,3.42,1.16.75,2.6,1.13,4.25,1.13,1.57,0,2.84-.32,3.78-.96.91-.62,1.36-1.43,1.36-2.48s-.45-1.87-1.38-2.37c-1-.54-2.78-1.08-5.26-1.61-2.57-.55-4.45-1.33-5.59-2.31-1.17-1.02-1.76-2.38-1.76-4.06,0-1.88.76-3.45,2.27-4.66,1.49-1.19,3.48-1.79,5.91-1.79s4.65.61,6.23,1.8c1.6,1.21,2.46,2.94,2.56,5.15v.33s-3.46,0-3.46,0l-.03-.29c-.27-2.51-1.97-3.73-5.17-3.73-1.56,0-2.77.29-3.61.87-.81.55-1.2,1.27-1.2,2.18,0,.81.3,1.41.93,1.81.68.44,2,.88,3.92,1.3,1.97.43,3.56.87,4.73,1.3,1.2.44,2.24,1.13,3.1,2.05.88.95,1.32,2.23,1.32,3.8,0,1.99-.8,3.67-2.39,4.99-1.57,1.3-3.63,1.96-6.13,1.96ZM860.48,298.18c.14,1.94.92,3.57,2.31,4.83,1.48,1.34,3.76,2.01,6.78,2.01,2.35,0,4.27-.61,5.72-1.81,1.45-1.2,2.16-2.67,2.16-4.49,0-1.41-.39-2.54-1.15-3.37-.79-.85-1.74-1.48-2.85-1.89-1.14-.42-2.7-.84-4.64-1.27-2.02-.45-3.38-.9-4.14-1.39-.81-.53-1.23-1.32-1.23-2.35,0-1.12.5-2.03,1.48-2.71.95-.65,2.28-.98,3.97-.98,3.43,0,5.37,1.35,5.78,4.01h2.23c-.15-1.86-.9-3.28-2.28-4.33-1.47-1.11-3.43-1.67-5.84-1.67s-4.14.56-5.51,1.65c-1.37,1.09-2.03,2.45-2.03,4.16,0,1.51.5,2.68,1.54,3.57,1.06.92,2.84,1.65,5.3,2.17,2.58.55,4.36,1.09,5.44,1.67,1.14.61,1.72,1.6,1.72,2.94,0,1.27-.55,2.28-1.64,3.01-1.05.71-2.44,1.07-4.14,1.07-1.79,0-3.33-.42-4.6-1.24-1.23-.79-1.96-2.01-2.17-3.61h-2.19Z"/>
      </g>
      <g>
        <path class="cls-1" d="M897.57,285.46h-7.32v19.5h-2.94v-19.5h-7.26v-2.63h17.52v2.63Z"/>
        <path class="cls-1" d="M890.57,305.29h-3.59v-19.5h-7.26v-3.27h18.17v3.27h-7.32v19.5ZM887.63,304.64h2.3v-19.5h7.32v-1.98h-16.88v1.98h7.26v19.5Z"/>
      </g>
      <g>
        <path class="cls-1" d="M918.89,304.96h-3.31l-2.57-6.73h-9.27l-2.44,6.73h-3.09l8.5-22.13h3.15l9.03,22.13ZM912.16,295.91l-3.89-10.26-3.71,10.26h7.61Z"/>
        <path class="cls-1" d="M919.37,305.29h-4.01l-2.57-6.73h-8.82l-2.44,6.73h-3.79l8.74-22.77h3.59l9.29,22.77ZM915.81,304.64h2.6l-8.76-21.48h-2.72l-8.25,21.48h2.4l2.44-6.73h9.71l2.57,6.73ZM912.63,296.23h-8.53l4.16-11.51,4.37,11.51ZM905.02,295.59h6.68l-3.42-9.02-3.26,9.02Z"/>
      </g>
      <g>
        <path class="cls-1" d="M921.34,282.84h7.02c7.52,0,11.27,3.65,11.27,10.94s-3.76,11.18-11.27,11.18h-7.02v-22.13ZM924.27,302.34h4.03c3.21,0,5.4-.75,6.57-2.24,1.17-1.49,1.75-3.6,1.75-6.32s-.58-4.69-1.74-6.14-3.35-2.17-6.57-2.17h-4.03v16.87Z"/>
        <path class="cls-1" d="M928.36,305.29h-7.34v-22.77h7.34c7.69,0,11.6,3.79,11.6,11.26s-3.9,11.51-11.6,11.51ZM921.66,304.64h6.7c7.37,0,10.95-3.55,10.95-10.86s-3.58-10.62-10.95-10.62h-6.7v21.48ZM928.3,302.66h-4.35v-17.52h4.35c3.31,0,5.6.77,6.82,2.29,1.2,1.5,1.81,3.63,1.81,6.34s-.61,4.97-1.82,6.51c-1.23,1.57-3.52,2.36-6.82,2.36ZM924.59,302.02h3.71c3.09,0,5.21-.71,6.31-2.12,1.12-1.43,1.68-3.49,1.68-6.12s-.56-4.56-1.67-5.94c-1.09-1.36-3.22-2.05-6.32-2.05h-3.71v16.23Z"/>
      </g>
      <g>
        <path class="cls-1" d="M953.25,282.46c3.1,0,5.63,1.05,7.61,3.14,1.97,2.09,2.96,4.86,2.96,8.3s-.99,6.21-2.96,8.3c-1.97,2.09-4.51,3.14-7.61,3.14s-5.65-1.05-7.64-3.15c-1.98-2.1-2.97-4.86-2.97-8.29s.99-6.21,2.97-8.3c1.98-2.09,4.53-3.14,7.64-3.14ZM953.21,302.84c2.21,0,4.03-.78,5.44-2.35,1.41-1.57,2.12-3.76,2.12-6.58s-.7-5.01-2.11-6.58c-1.41-1.57-3.2-2.35-5.39-2.35s-4.05.78-5.47,2.35c-1.42,1.57-2.14,3.76-2.14,6.58s.71,5,2.13,6.57c1.42,1.57,3.22,2.36,5.42,2.36Z"/>
        <path class="cls-1" d="M953.25,305.66c-3.19,0-5.83-1.09-7.87-3.25-2.03-2.15-3.06-5.02-3.06-8.51s1.03-6.38,3.06-8.52c2.04-2.15,4.68-3.24,7.87-3.24s5.81,1.09,7.84,3.24c2.02,2.15,3.05,5.01,3.05,8.52s-1.03,6.38-3.05,8.52c-2.03,2.15-4.66,3.24-7.84,3.24ZM953.25,282.78c-3,0-5.49,1.02-7.4,3.04-1.91,2.02-2.89,4.74-2.89,8.08s.97,6.05,2.89,8.07c1.91,2.02,4.4,3.05,7.4,3.05s5.47-1.02,7.37-3.04c1.9-2.02,2.87-4.74,2.87-8.08s-.97-6.06-2.87-8.08c-1.9-2.02-4.38-3.04-7.37-3.04ZM953.21,303.16c-2.28,0-4.18-.83-5.66-2.47-1.47-1.63-2.21-3.91-2.21-6.79s.75-5.17,2.22-6.8c1.48-1.63,3.4-2.46,5.71-2.46s4.16.83,5.63,2.46c1.46,1.62,2.19,3.91,2.19,6.79s-.74,5.17-2.2,6.8c-1.47,1.63-3.38,2.46-5.68,2.46ZM953.28,285.29c-2.12,0-3.88.76-5.23,2.25-1.36,1.5-2.05,3.64-2.05,6.36s.69,4.85,2.05,6.36c1.35,1.5,3.09,2.26,5.18,2.26s3.86-.76,5.2-2.25c1.35-1.5,2.04-3.64,2.04-6.36s-.68-4.86-2.03-6.37c-1.34-1.49-3.07-2.25-5.15-2.25Z"/>
      </g>
      <g>
        <path class="cls-1" d="M994.09,304.96h-3.31l-2.57-6.73h-9.27l-2.44,6.73h-3.09l8.5-22.13h3.15l9.03,22.13ZM987.35,295.91l-3.89-10.26-3.71,10.26h7.61Z"/>
        <path class="cls-1" d="M994.56,305.29h-4.01l-2.57-6.73h-8.82l-2.44,6.73h-3.79l8.74-22.77h3.59l9.29,22.77ZM991,304.64h2.6l-8.76-21.48h-2.72l-8.25,21.48h2.4l2.44-6.73h9.71l2.57,6.73ZM987.82,296.23h-8.53l4.16-11.51,4.37,11.51ZM980.21,295.59h6.68l-3.42-9.02-3.26,9.02Z"/>
      </g>
      <g>
        <path class="cls-1" d="M1013.9,304.96h-3l-11.59-17.46v17.46h-2.78v-22.13h2.99l11.59,17.46v-17.46h2.79v22.13Z"/>
        <path class="cls-1" d="M1014.22,305.29h-3.5l-11.1-16.72v16.72h-3.42v-22.77h3.48l11.1,16.72v-16.72h3.44v22.77ZM1011.07,304.64h2.51v-21.48h-2.15v18.21l-12.09-18.21h-2.49v21.48h2.13v-18.21l12.09,18.21Z"/>
      </g>
      <g>
        <path class="cls-1" d="M1034.43,304.96h-17.49v-2.75l13.75-16.75h-12.48v-2.63h15.85v2.75l-13.75,16.75h14.13v2.63Z"/>
        <path class="cls-1" d="M1034.75,305.29h-18.14v-3.18l.07-.09,13.32-16.23h-12.12v-3.27h16.49v3.18l-.07.09-13.32,16.23h13.77v3.27ZM1017.26,304.64h16.85v-1.98h-14.48l14.11-17.19v-2.31h-15.2v1.98h12.84l-14.11,17.19v2.31Z"/>
      </g>
      <g>
        <path class="cls-1" d="M1047.32,282.46c3.1,0,5.63,1.05,7.61,3.14,1.97,2.09,2.96,4.86,2.96,8.3s-.99,6.21-2.96,8.3-4.51,3.14-7.61,3.14-5.65-1.05-7.64-3.15c-1.98-2.1-2.97-4.86-2.97-8.29s.99-6.21,2.97-8.3c1.98-2.09,4.53-3.14,7.64-3.14ZM1047.29,302.84c2.21,0,4.03-.78,5.44-2.35,1.41-1.57,2.12-3.76,2.12-6.58s-.7-5.01-2.11-6.58c-1.41-1.57-3.2-2.35-5.39-2.35s-4.05.78-5.47,2.35c-1.42,1.57-2.14,3.76-2.14,6.58s.71,5,2.13,6.57c1.42,1.57,3.22,2.36,5.42,2.36Z"/>
        <path class="cls-1" d="M1047.32,305.66c-3.19,0-5.83-1.09-7.87-3.25-2.03-2.15-3.06-5.02-3.06-8.51s1.03-6.38,3.06-8.52c2.04-2.15,4.68-3.24,7.87-3.24s5.81,1.09,7.84,3.24c2.02,2.15,3.05,5.01,3.05,8.52s-1.03,6.38-3.05,8.52c-2.03,2.15-4.66,3.24-7.84,3.24ZM1047.32,282.78c-3,0-5.49,1.02-7.4,3.04-1.91,2.02-2.89,4.74-2.89,8.08s.97,6.05,2.89,8.07c1.91,2.02,4.4,3.05,7.4,3.05s5.47-1.02,7.37-3.04c1.9-2.02,2.87-4.74,2.87-8.08s-.97-6.06-2.87-8.08c-1.9-2.02-4.38-3.04-7.37-3.04ZM1047.29,303.16c-2.28,0-4.18-.83-5.66-2.47-1.47-1.63-2.21-3.91-2.21-6.79s.75-5.17,2.22-6.8c1.48-1.63,3.4-2.46,5.71-2.46s4.16.83,5.63,2.46c1.46,1.62,2.19,3.91,2.19,6.79s-.74,5.17-2.2,6.8c-1.47,1.63-3.38,2.46-5.68,2.46ZM1047.35,285.29c-2.12,0-3.88.76-5.23,2.25-1.36,1.5-2.05,3.64-2.05,6.36s.69,4.85,2.05,6.36c1.35,1.5,3.09,2.26,5.18,2.26s3.86-.76,5.2-2.25c1.35-1.5,2.04-3.64,2.04-6.36s-.68-4.86-2.03-6.37c-1.34-1.49-3.07-2.25-5.15-2.25Z"/>
      </g>
      <g>
        <path class="cls-1" d="M1079.95,304.96h-3.31l-2.57-6.73h-9.27l-2.44,6.73h-3.09l8.5-22.13h3.15l9.03,22.13ZM1073.21,295.91l-3.89-10.26-3.71,10.26h7.61ZM1073.15,277.19l-3.34,4.24h-2.23l2.01-4.24h3.56Z"/>
        <path class="cls-1" d="M1080.42,305.29h-4.01l-2.57-6.73h-8.82l-2.44,6.73h-3.79l8.74-22.77h3.59l9.29,22.77ZM1076.86,304.64h2.6l-8.76-21.48h-2.72l-8.25,21.48h2.4l2.44-6.73h9.71l2.57,6.73ZM1073.68,296.23h-8.53l4.16-11.51,4.37,11.51ZM1066.07,295.59h6.68l-3.42-9.02-3.26,9.02ZM1069.97,281.76h-2.9l2.31-4.88h4.43l-3.84,4.88ZM1068.09,281.11h1.57l2.83-3.6h-2.7l-1.7,3.6Z"/>
      </g>
      <g>
        <path class="cls-1" d="M1098.12,285.46h-7.32v19.5h-2.94v-19.5h-7.26v-2.63h17.52v2.63Z"/>
        <path class="cls-1" d="M1091.12,305.29h-3.59v-19.5h-7.26v-3.27h18.17v3.27h-7.32v19.5ZM1088.18,304.64h2.3v-19.5h7.32v-1.98h-16.88v1.98h7.26v19.5Z"/>
      </g>
      <g>
        <path class="cls-1" d="M1117.77,304.96h-16.5v-22.13h15.98v2.63h-13.05v6.76h12.21v2.63h-12.21v7.49h13.57v2.63Z"/>
        <path class="cls-1" d="M1118.09,305.29h-17.14v-22.77h16.63v3.27h-13.05v6.12h12.21v3.27h-12.21v6.84h13.57v3.27ZM1101.59,304.64h15.85v-1.98h-13.57v-8.13h12.21v-1.98h-12.21v-7.41h13.05v-1.98h-15.34v21.48Z"/>
      </g>
      <g>
        <path class="cls-1" d="M1131.56,305.34c-3.18,0-5.76-1.04-7.73-3.12-1.98-2.08-2.97-4.85-2.97-8.32s.98-6.25,2.93-8.32c1.95-2.08,4.51-3.12,7.68-3.12,2.67,0,4.88.64,6.65,1.92,1.77,1.28,2.75,3,2.97,5.15h-3.03c-.12-1.43-.76-2.55-1.93-3.36-1.17-.81-2.71-1.21-4.62-1.21-2.28,0-4.12.78-5.52,2.34-1.39,1.56-2.09,3.76-2.09,6.6s.7,5.02,2.11,6.59c1.41,1.56,3.25,2.35,5.52,2.35,3.19,0,5.56-1.05,7.11-3.15v-3.37h-5.84v-2.64h8.68v11.29h-2.07l-.77-2.32c-1.5,1.8-3.86,2.7-7.08,2.7Z"/>
        <path class="cls-1" d="M1131.56,305.66c-3.26,0-5.94-1.08-7.97-3.22-2.03-2.14-3.05-5.01-3.05-8.54s1.01-6.41,3.01-8.54c2.01-2.14,4.67-3.22,7.92-3.22,2.72,0,5.02.67,6.84,1.98,1.84,1.33,2.88,3.15,3.1,5.38l.03.35h-3.68l-.03-.29c-.11-1.34-.7-2.36-1.79-3.12-1.11-.77-2.6-1.16-4.43-1.16-2.18,0-3.95.75-5.28,2.23-1.33,1.49-2.01,3.64-2.01,6.38s.68,4.87,2.03,6.37c1.34,1.49,3.12,2.24,5.28,2.24,3.02,0,5.31-.99,6.79-2.94v-2.94h-5.84v-3.29h9.32v11.93h-2.62l-.67-2.02c-1.56,1.59-3.9,2.4-6.95,2.4ZM1131.47,282.78c-3.06,0-5.57,1.01-7.45,3.02-1.89,2-2.84,4.73-2.84,8.1s.97,6.08,2.88,8.09c1.9,2.01,4.43,3.02,7.5,3.02s5.4-.87,6.83-2.59l.37-.45.88,2.65h1.51v-10.65h-8.03v2h5.84v3.79l-.06.09c-1.61,2.18-4.09,3.29-7.37,3.29-2.36,0-4.3-.83-5.76-2.45-1.46-1.62-2.2-3.91-2.2-6.8s.73-5.2,2.17-6.81c1.45-1.62,3.39-2.45,5.76-2.45,1.97,0,3.59.43,4.8,1.27,1.16.81,1.85,1.92,2.04,3.3h2.38c-.27-1.89-1.21-3.42-2.79-4.57-1.7-1.24-3.87-1.86-6.46-1.86Z"/>
      </g>
      <g>
        <path class="cls-1" d="M1154.61,305.34c-2.57,0-4.48-.5-5.76-1.49-1.27-1-2.08-2.17-2.41-3.52s-.51-2.91-.51-4.69v-12.8h2.93v12.75c0,2.91.49,4.82,1.46,5.74.98.92,2.4,1.37,4.29,1.37s3.31-.46,4.29-1.37,1.46-2.83,1.46-5.74v-12.75h2.94v12.8c0,2.68-.32,4.65-.96,5.92-.64,1.27-1.6,2.22-2.89,2.84s-2.9.94-4.84.94Z"/>
        <path class="cls-1" d="M1154.61,305.66c-2.63,0-4.63-.53-5.96-1.56-1.33-1.04-2.18-2.28-2.53-3.69-.34-1.37-.52-2.97-.52-4.77v-13.12h3.57v13.08c0,2.8.46,4.65,1.36,5.5.91.85,2.28,1.29,4.06,1.29s3.16-.43,4.06-1.29c.91-.85,1.36-2.7,1.36-5.5v-13.08h3.59v13.12c0,2.71-.33,4.75-.99,6.06-.67,1.33-1.69,2.33-3.04,2.99-1.33.65-3,.98-4.99.98ZM1146.25,283.16v12.48c0,1.75.17,3.3.5,4.62.32,1.27,1.09,2.39,2.3,3.34,1.21.95,3.08,1.43,5.56,1.43,1.88,0,3.47-.31,4.7-.91,1.22-.59,2.14-1.5,2.74-2.7.61-1.21.92-3.16.92-5.77v-12.48h-2.3v12.43c0,3.03-.51,4.98-1.56,5.97-1.03.97-2.55,1.46-4.51,1.46s-3.47-.49-4.51-1.46c-1.05-.99-1.56-2.94-1.56-5.97v-12.43h-2.28Z"/>
      </g>
      <g>
        <path class="cls-1" d="M1171.55,304.96h-2.94v-22.13h2.94v22.13Z"/>
        <path class="cls-1" d="M1171.88,305.29h-3.59v-22.77h3.59v22.77ZM1168.93,304.64h2.3v-21.48h-2.3v21.48Z"/>
      </g>
    </g>
  </g>
</svg>