<?xml version="1.0" encoding="UTF-8"?>
<svg id="Capa_2" data-name="Capa 2" xmlns="http://www.w3.org/2000/svg" width="709.91" height="709.91" xmlns:xlink="http://www.w3.org/1999/xlink" viewBox="0 0 709.91 709.91">
  <defs>
    <style>
      .cls-1 {
        fill: url(#Degradado_sin_nombre_6);
      }

      .cls-2 {
        fill: #fff;
      }

      .cls-3 {
        fill: #818181;
      }
    </style>
    <linearGradient id="Degradado_sin_nombre_6" data-name="Degradado sin nombre 6" x1="118.84" y1="431.12" x2="427.92" y2="286.74" gradientUnits="userSpaceOnUse">
      <stop offset="0" stop-color="#1570fe"/>
      <stop offset="1" stop-color="#6438f9"/>
    </linearGradient>
  </defs>
  <g id="_1" data-name="1">
    <circle class="cls-2" cx="354.96" cy="354.96" r="354.96"/>
    <path class="cls-1" d="M214.97,443.12h-49.82l75.17-130.2-102.39.24,24.08-46.21h207.86l49.78-88.44,25.31,43.97-50.93,88.34h-102.59l-76.47,132.3ZM266.94,443.12h50.76l25.59-45.34,48.06-.23,25.87,45.57h154.78l-99.81-173.36-26.22,41.4,51.09,89.24h-52.91s-26.44-44.88-26.44-44.88l-100.91.1-49.84,87.48ZM343.28,222.48l50.75-87.6-25.46-44.1-76.03,131.69h50.75Z"/>
    <g id="ait">
      <g>
        <path d="M157.86,486.36h-2.8l-2.18-5.7h-7.86l-2.07,5.7h-2.62l7.2-18.73h2.67l7.65,18.73ZM152.15,478.7l-3.3-8.69-3.15,8.69h6.45Z"/>
        <path d="M158.41,486.74h-3.62l-2.18-5.7h-7.34l-2.07,5.7h-3.43l7.49-19.48h3.18l7.96,19.48ZM155.31,485.99h1.99l-7.35-17.98h-2.17l-6.92,17.98h1.81l2.07-5.7h8.38l2.18,5.7ZM152.69,479.07h-7.53l3.67-10.14,3.85,10.14ZM146.23,478.32h5.37l-2.75-7.24-2.62,7.24Z"/>
      </g>
      <g>
        <path d="M167.29,486.68c-2.18,0-3.8-.42-4.88-1.26-1.08-.84-1.76-1.84-2.05-2.98s-.43-2.47-.43-3.97v-10.84h2.48v10.8c0,2.46.41,4.08,1.24,4.86.83.78,2.04,1.16,3.63,1.16s2.81-.39,3.63-1.16c.83-.77,1.24-2.39,1.24-4.86v-10.8h2.5v10.84c0,2.27-.27,3.94-.81,5.01-.54,1.07-1.36,1.88-2.45,2.41-1.09.53-2.46.8-4.11.8Z"/>
        <path d="M167.29,487.06c-2.25,0-3.97-.45-5.11-1.34-1.14-.89-1.88-1.96-2.18-3.18-.29-1.17-.44-2.53-.44-4.07v-11.21h3.23v11.17c0,2.34.38,3.88,1.12,4.58.75.7,1.89,1.06,3.38,1.06s2.63-.36,3.38-1.06c.75-.7,1.12-2.24,1.12-4.58v-11.17h3.25v11.21c0,2.35-.28,4.04-.85,5.18-.58,1.14-1.46,2.01-2.62,2.58-1.14.56-2.58.84-4.27.84ZM160.3,468v10.46c0,1.47.14,2.78.42,3.88s.91,1.99,1.91,2.77c1.01.79,2.57,1.19,4.65,1.19,1.58,0,2.91-.26,3.94-.76,1.01-.49,1.78-1.25,2.28-2.24.51-1.02.77-2.65.77-4.84v-10.46h-1.75v10.42c0,2.59-.44,4.27-1.36,5.13-.9.84-2.2,1.26-3.89,1.26s-3-.43-3.89-1.26c-.92-.86-1.36-2.53-1.36-5.13v-10.42h-1.73Z"/>
      </g>
      <g>
        <path d="M192.19,469.85h-6.21v16.51h-2.5v-16.51h-6.16v-2.22h14.86v2.22Z"/>
        <path d="M186.36,486.74h-3.25v-16.51h-6.16v-2.97h15.61v2.97h-6.21v16.51ZM183.86,485.99h1.75v-16.51h6.21v-1.47h-14.11v1.47h6.16v16.51Z"/>
      </g>
      <g>
        <path d="M202.99,467.31c2.63,0,4.78.89,6.45,2.66,1.67,1.77,2.51,4.12,2.51,7.03s-.84,5.26-2.51,7.03c-1.67,1.77-3.82,2.66-6.45,2.66s-4.79-.89-6.48-2.66-2.52-4.12-2.52-7.02.84-5.26,2.52-7.03c1.68-1.77,3.84-2.66,6.48-2.66ZM202.97,484.56c1.88,0,3.41-.67,4.61-1.99,1.2-1.33,1.8-3.19,1.8-5.57s-.6-4.24-1.79-5.57-2.72-1.99-4.57-1.99-3.43.67-4.64,1.99c-1.21,1.33-1.81,3.19-1.81,5.57s.6,4.23,1.8,5.57c1.2,1.33,2.73,2,4.59,2Z"/>
        <path d="M202.99,487.06c-2.73,0-5-.94-6.75-2.78-1.74-1.84-2.62-4.29-2.62-7.28s.88-5.45,2.62-7.29c1.75-1.84,4.02-2.78,6.75-2.78s4.98.93,6.72,2.78c1.73,1.84,2.61,4.29,2.61,7.29s-.88,5.45-2.61,7.29c-1.74,1.84-4,2.78-6.72,2.78ZM202.99,467.68c-2.52,0-4.6.86-6.2,2.54-1.6,1.69-2.42,3.97-2.42,6.77s.81,5.07,2.42,6.76c1.6,1.69,3.69,2.55,6.2,2.55s4.59-.85,6.18-2.54c1.6-1.69,2.41-3.97,2.41-6.77s-.81-5.08-2.41-6.77c-1.59-1.69-3.67-2.54-6.18-2.54ZM202.97,484.94c-1.96,0-3.6-.71-4.87-2.12-1.26-1.4-1.9-3.35-1.9-5.82s.64-4.43,1.91-5.82c1.28-1.41,2.93-2.12,4.92-2.12s3.58.71,4.85,2.12c1.25,1.39,1.89,3.35,1.89,5.82s-.64,4.43-1.89,5.82c-1.27,1.41-2.91,2.12-4.89,2.12ZM203.02,469.81c-1.79,0-3.22.61-4.36,1.87-1.14,1.25-1.71,3.04-1.71,5.32s.57,4.06,1.71,5.31c1.14,1.26,2.55,1.88,4.32,1.88s3.2-.61,4.33-1.87c1.13-1.25,1.7-3.04,1.7-5.32s-.57-4.07-1.7-5.32c-1.13-1.26-2.53-1.87-4.29-1.87Z"/>
      </g>
      <g>
        <path d="M232.88,486.36h-2.35v-15.94l-5.35,15.94h-2.23l-5.35-15.94v15.94h-2.35v-18.73h3.72l5.08,15.62,5.11-15.62h3.72v18.73Z"/>
        <path d="M233.26,486.74h-3.1v-14.01l-4.7,14.01h-2.77l-4.71-14.02v14.02h-3.1v-19.48h4.37l4.81,14.78,4.83-14.78h4.37v19.48ZM230.91,485.99h1.6v-17.98h-3.08l-5.38,16.45-5.35-16.45h-3.08v17.98h1.6v-17.86l5.99,17.86h1.69l5.99-17.86v17.86Z"/>
      </g>
      <g>
        <path d="M252.49,486.36h-2.8l-2.18-5.7h-7.86l-2.07,5.7h-2.62l7.2-18.73h2.67l7.65,18.73ZM246.78,478.7l-3.3-8.69-3.15,8.69h6.45Z"/>
        <path d="M253.05,486.74h-3.62l-2.18-5.7h-7.34l-2.07,5.7h-3.43l7.49-19.48h3.18l7.96,19.48ZM249.95,485.99h1.99l-7.35-17.98h-2.17l-6.92,17.98h1.81l2.07-5.7h8.38l2.18,5.7ZM247.33,479.07h-7.53l3.67-10.14,3.85,10.14ZM240.87,478.32h5.37l-2.75-7.24-2.62,7.24Z"/>
      </g>
      <g>
        <path d="M267.9,469.85h-6.21v16.51h-2.5v-16.51h-6.16v-2.22h14.86v2.22Z"/>
        <path d="M262.07,486.74h-3.25v-16.51h-6.16v-2.97h15.61v2.97h-6.21v16.51ZM259.57,485.99h1.75v-16.51h6.21v-1.47h-14.11v1.47h6.16v16.51Z"/>
      </g>
      <g>
        <path d="M273.37,486.36h-2.5v-18.73h2.5v18.73Z"/>
        <path d="M273.75,486.74h-3.25v-19.48h3.25v19.48ZM271.25,485.99h1.75v-17.98h-1.75v17.98Z"/>
      </g>
      <g>
        <path d="M291.06,486.36h-14.83v-2.33l11.66-14.18h-10.58v-2.22h13.44v2.33l-11.66,14.18h11.98v2.22Z"/>
        <path d="M291.43,486.74h-15.58v-2.84l11.24-13.67h-10.16v-2.97h14.19v2.84l-11.24,13.67h11.56v2.97ZM276.6,485.99h14.08v-1.47h-12.4l12.08-14.69v-1.82h-12.69v1.47h11l-12.08,14.69v1.82Z"/>
      </g>
      <g>
        <path d="M309.27,486.36h-2.8l-2.18-5.7h-7.86l-2.07,5.7h-2.62l7.2-18.73h2.67l7.65,18.73ZM303.56,478.7l-3.3-8.69-3.15,8.69h6.45Z"/>
        <path d="M309.83,486.74h-3.62l-2.18-5.7h-7.34l-2.07,5.7h-3.43l7.49-19.48h3.18l7.96,19.48ZM306.73,485.99h1.99l-7.35-17.98h-2.17l-6.92,17.98h1.81l2.07-5.7h8.38l2.18,5.7ZM304.11,479.07h-7.53l3.67-10.14,3.85,10.14ZM297.65,478.32h5.37l-2.75-7.24-2.62,7.24Z"/>
      </g>
      <g>
        <path d="M319.2,486.68c-2.65,0-4.77-.87-6.35-2.61-1.58-1.74-2.37-4.1-2.37-7.07s.79-5.33,2.37-7.07c1.58-1.74,3.7-2.61,6.35-2.61,2.04,0,3.78.55,5.21,1.65,1.43,1.1,2.24,2.55,2.42,4.34h-2.56c-.1-1.18-.62-2.12-1.54-2.82-.93-.7-2.09-1.05-3.5-1.05-1.9,0-3.41.65-4.52,1.96-1.11,1.31-1.66,3.18-1.66,5.6s.55,4.29,1.65,5.6c1.1,1.31,2.59,1.97,4.48,1.97,1.47,0,2.65-.36,3.56-1.07.9-.72,1.42-1.74,1.54-3.07h2.56c-.18,1.99-.96,3.54-2.35,4.63-1.39,1.09-3.15,1.64-5.27,1.64Z"/>
        <path d="M319.2,487.06c-2.75,0-4.98-.92-6.63-2.74-1.64-1.8-2.47-4.27-2.47-7.33s.83-5.52,2.47-7.33c1.65-1.82,3.88-2.74,6.63-2.74,2.11,0,3.94.58,5.44,1.73,1.51,1.16,2.37,2.71,2.56,4.61l.04.41h-3.32l-.03-.34c-.09-1.08-.55-1.92-1.4-2.56-.85-.64-1.96-.97-3.27-.97-1.8,0-3.19.6-4.23,1.83-1.04,1.23-1.57,3.04-1.57,5.36s.53,4.12,1.56,5.36c1.04,1.23,2.41,1.83,4.19,1.83,1.37,0,2.49-.33,3.32-.99.83-.66,1.28-1.57,1.4-2.81l.03-.34h3.31l-.04.41c-.19,2.09-1.03,3.74-2.5,4.89-1.45,1.14-3.3,1.72-5.5,1.72ZM319.2,467.68c-2.53,0-4.58.84-6.08,2.49-1.51,1.66-2.28,3.96-2.28,6.82s.77,5.16,2.28,6.82c1.5,1.65,3.54,2.49,6.08,2.49,2.03,0,3.73-.52,5.04-1.56,1.22-.96,1.93-2.25,2.17-3.96h-1.81c-.18,1.27-.73,2.27-1.64,2.99-.97.77-2.24,1.15-3.79,1.15-1.99,0-3.6-.71-4.77-2.1-1.15-1.38-1.74-3.34-1.74-5.84s.59-4.48,1.75-5.85c1.18-1.39,2.79-2.09,4.8-2.09,1.48,0,2.74.38,3.73,1.12.92.69,1.47,1.62,1.65,2.75h1.8c-.24-1.51-.97-2.71-2.22-3.67-1.36-1.04-3.04-1.57-4.98-1.57Z"/>
      </g>
      <g>
        <path d="M333.07,486.36h-2.5v-18.73h2.5v18.73Z"/>
        <path d="M333.45,486.74h-3.25v-19.48h3.25v19.48ZM330.95,485.99h1.75v-17.98h-1.75v17.98Z"/>
      </g>
      <g>
        <path d="M345.68,467.31c2.63,0,4.78.89,6.45,2.66,1.67,1.77,2.51,4.12,2.51,7.03s-.84,5.26-2.51,7.03c-1.67,1.77-3.82,2.66-6.45,2.66s-4.79-.89-6.47-2.66c-1.68-1.78-2.52-4.12-2.52-7.02s.84-5.26,2.52-7.03c1.68-1.77,3.84-2.66,6.47-2.66ZM345.65,484.56c1.88,0,3.42-.67,4.61-1.99,1.2-1.33,1.8-3.19,1.8-5.57s-.6-4.24-1.79-5.57c-1.2-1.33-2.72-1.99-4.57-1.99s-3.43.67-4.64,1.99-1.81,3.19-1.81,5.57.6,4.23,1.8,5.57c1.2,1.33,2.73,2,4.59,2ZM348.93,462.85l-2.83,3.59h-1.89l1.7-3.59h3.02Z"/>
        <path d="M345.68,487.06c-2.73,0-5-.94-6.75-2.78-1.74-1.84-2.62-4.29-2.62-7.28s.88-5.45,2.62-7.29c1.75-1.84,4.02-2.78,6.75-2.78s4.98.93,6.72,2.78c1.73,1.84,2.61,4.29,2.61,7.29s-.88,5.45-2.61,7.29c-1.74,1.84-4,2.78-6.72,2.78ZM345.68,467.68c-2.52,0-4.6.86-6.2,2.54-1.61,1.69-2.42,3.97-2.42,6.77s.81,5.07,2.42,6.76c1.6,1.69,3.68,2.55,6.2,2.55s4.59-.85,6.18-2.54c1.6-1.69,2.41-3.97,2.41-6.77s-.81-5.08-2.41-6.77c-1.59-1.69-3.67-2.54-6.18-2.54ZM345.65,484.94c-1.96,0-3.6-.71-4.87-2.12-1.26-1.4-1.9-3.35-1.9-5.82s.64-4.43,1.91-5.82c1.28-1.41,2.93-2.12,4.92-2.12s3.58.71,4.85,2.12c1.25,1.39,1.89,3.35,1.89,5.82s-.64,4.43-1.89,5.82c-1.27,1.41-2.91,2.12-4.89,2.12ZM345.7,469.81c-1.79,0-3.22.61-4.36,1.87-1.14,1.25-1.71,3.04-1.71,5.32s.57,4.06,1.71,5.31c1.14,1.26,2.55,1.88,4.32,1.88s3.2-.61,4.33-1.87c1.13-1.25,1.7-3.04,1.7-5.32s-.57-4.07-1.7-5.32c-1.13-1.26-2.53-1.87-4.29-1.87ZM346.28,466.81h-2.67l2.06-4.34h4.03l-3.42,4.34ZM344.8,466.06h1.12l2.24-2.84h-2.01l-1.35,2.84Z"/>
      </g>
      <g>
        <path d="M372.67,486.36h-2.55l-9.83-14.79v14.79h-2.35v-18.73h2.53l9.83,14.79v-14.79h2.37v18.73Z"/>
        <path d="M373.04,486.74h-3.12l-9.25-13.92v13.92h-3.1v-19.48h3.11l9.25,13.92v-13.92h3.12v19.48ZM370.32,485.99h1.97v-17.98h-1.62v15.65l-10.4-15.65h-1.96v17.98h1.6v-15.65l10.4,15.65Z"/>
      </g>
      <g>
        <path d="M379.72,486.36c0,1.12-.22,2.01-.67,2.68s-1.1,1.01-1.96,1.01v-1.23c.86,0,1.29-.82,1.29-2.47h-1.29v-2.62h2.62v2.62Z"/>
        <path d="M377.09,490.43h-.38v-1.98h.38c.55,0,.86-.58.91-1.72h-1.28v-3.37h3.37v3c0,1.19-.24,2.16-.73,2.89-.52.78-1.28,1.18-2.27,1.18ZM377.47,489.16v.49c.55-.08.96-.35,1.27-.81.4-.61.6-1.44.6-2.48v-2.25h-1.87v1.87h1.29v.38c0,1.66-.43,2.6-1.29,2.8Z"/>
      </g>
      <g>
        <path d="M393.91,486.36h-2.5v-18.73h2.5v18.73Z"/>
        <path d="M394.29,486.74h-3.25v-19.48h3.25v19.48ZM391.79,485.99h1.75v-17.98h-1.75v17.98Z"/>
      </g>
      <g>
        <path d="M413.12,486.36h-2.55l-9.83-14.79v14.79h-2.35v-18.73h2.53l9.83,14.79v-14.79h2.37v18.73Z"/>
        <path d="M413.49,486.74h-3.12l-9.25-13.92v13.92h-3.1v-19.48h3.11l9.25,13.92v-13.92h3.12v19.48ZM410.77,485.99h1.97v-17.98h-1.62v15.65l-10.4-15.65h-1.96v17.98h1.6v-15.65l10.4,15.65Z"/>
      </g>
      <g>
        <path d="M429.97,469.85h-10.17v5.8h8.82v2.22h-8.82v8.49h-2.48v-18.73h12.66v2.22Z"/>
        <path d="M420.17,486.74h-3.23v-19.48h13.41v2.97h-10.17v5.05h8.82v2.97h-8.82v8.49ZM417.69,485.99h1.73v-8.49h8.82v-1.47h-8.82v-6.55h10.17v-1.47h-11.91v17.98Z"/>
      </g>
      <g>
        <path d="M441.45,467.31c2.63,0,4.78.89,6.45,2.66,1.67,1.77,2.51,4.12,2.51,7.03s-.84,5.26-2.51,7.03c-1.67,1.77-3.82,2.66-6.45,2.66s-4.79-.89-6.47-2.66c-1.68-1.78-2.52-4.12-2.52-7.02s.84-5.26,2.52-7.03c1.68-1.77,3.84-2.66,6.47-2.66ZM441.42,484.56c1.88,0,3.42-.67,4.61-1.99,1.2-1.33,1.8-3.19,1.8-5.57s-.6-4.24-1.79-5.57c-1.2-1.33-2.72-1.99-4.57-1.99s-3.43.67-4.64,1.99-1.81,3.19-1.81,5.57.6,4.23,1.8,5.57c1.2,1.33,2.73,2,4.59,2Z"/>
        <path d="M441.45,487.06c-2.73,0-5-.94-6.75-2.78-1.74-1.84-2.62-4.29-2.62-7.28s.88-5.45,2.62-7.29c1.75-1.84,4.02-2.78,6.75-2.78s4.98.93,6.72,2.78c1.73,1.84,2.61,4.29,2.61,7.29s-.88,5.45-2.61,7.29c-1.74,1.84-4,2.78-6.72,2.78ZM441.45,467.68c-2.52,0-4.6.86-6.2,2.54-1.61,1.69-2.42,3.97-2.42,6.77s.81,5.07,2.42,6.76c1.6,1.69,3.68,2.55,6.2,2.55s4.59-.85,6.18-2.54c1.6-1.69,2.41-3.97,2.41-6.77s-.81-5.08-2.41-6.77c-1.59-1.69-3.67-2.54-6.18-2.54ZM441.42,484.94c-1.96,0-3.6-.71-4.87-2.12-1.26-1.4-1.9-3.35-1.9-5.82s.64-4.43,1.91-5.82c1.28-1.41,2.93-2.12,4.92-2.12s3.58.71,4.85,2.12c1.25,1.39,1.89,3.35,1.89,5.82s-.64,4.43-1.89,5.82c-1.27,1.41-2.91,2.12-4.89,2.12ZM441.48,469.81c-1.79,0-3.22.61-4.36,1.87-1.14,1.25-1.71,3.04-1.71,5.32s.57,4.06,1.71,5.31c1.14,1.26,2.55,1.88,4.32,1.88s3.2-.61,4.33-1.87c1.13-1.25,1.7-3.04,1.7-5.32s-.57-4.07-1.7-5.32c-1.13-1.26-2.53-1.87-4.29-1.87Z"/>
      </g>
      <g>
        <path d="M469.35,486.36h-2.69l-1.77-5c-.32-.89-.84-1.61-1.57-2.17-.73-.56-1.58-.84-2.53-.84h-4.59v8.01h-2.48v-18.73h8.31c1.45,0,2.64.14,3.56.42.92.28,1.67.87,2.25,1.78s.87,1.92.87,3.05c0,1.29-.38,2.38-1.13,3.25-.75.87-1.78,1.44-3.08,1.7v.05c1.3.42,2.3,1.55,2.98,3.39l1.88,5.1ZM456.19,476.13h5.54c1.54,0,2.66-.24,3.36-.73.7-.49,1.04-1.32,1.04-2.52,0-2.13-1.34-3.2-4.02-3.2h-5.93v6.44Z"/>
        <path d="M469.89,486.74h-3.49l-1.85-5.25c-.29-.81-.78-1.48-1.45-2-.67-.52-1.43-.77-2.31-.77h-4.22v8.01h-3.23v-19.48h8.68c1.48,0,2.71.15,3.67.44,1,.31,1.83.96,2.46,1.93.62.96.93,2.06.93,3.26,0,1.38-.41,2.56-1.22,3.49-.61.71-1.4,1.23-2.35,1.57.98.62,1.76,1.69,2.32,3.2l2.07,5.6ZM466.93,485.99h1.88l-1.69-4.59c-.64-1.72-1.56-2.78-2.74-3.16l-.26-.08v-.58l.3-.11c1.22-.25,2.18-.78,2.87-1.58.69-.79,1.04-1.8,1.04-3,0-1.05-.27-2.01-.81-2.85-.54-.83-1.2-1.36-2.05-1.62-.88-.27-2.04-.41-3.45-.41h-7.93v17.98h1.73v-8.01h4.97c1.04,0,1.96.31,2.76.92.79.6,1.36,1.39,1.7,2.34l1.68,4.75ZM461.73,476.5h-5.92v-7.19h6.3c3.63,0,4.39,1.94,4.39,3.57,0,1.32-.41,2.27-1.2,2.82-.77.54-1.94.8-3.57.8ZM456.57,475.75h5.17c1.46,0,2.52-.22,3.14-.66.59-.41.88-1.14.88-2.21,0-1.21-.38-2.82-3.64-2.82h-5.55v5.69Z"/>
      </g>
      <g>
        <path d="M490.27,486.36h-2.36v-15.94l-5.35,15.94h-2.23l-5.35-15.94v15.94h-2.35v-18.73h3.72l5.08,15.62,5.11-15.62h3.72v18.73Z"/>
        <path d="M490.65,486.74h-3.11v-14.01l-4.7,14.01h-2.77l-4.71-14.02v14.02h-3.1v-19.48h4.37l4.81,14.78,4.83-14.78h4.37v19.48ZM488.29,485.99h1.61v-17.98h-3.08l-5.38,16.45-5.35-16.45h-3.08v17.98h1.6v-17.86l5.99,17.86h1.69l5.99-17.86v17.86Z"/>
      </g>
      <g>
        <path d="M509.88,486.36h-2.8l-2.18-5.7h-7.86l-2.07,5.7h-2.62l7.2-18.73h2.67l7.65,18.73ZM504.17,478.7l-3.3-8.69-3.15,8.69h6.45ZM504.12,462.85l-2.83,3.59h-1.89l1.7-3.59h3.02Z"/>
        <path d="M510.43,486.74h-3.62l-2.18-5.7h-7.34l-2.07,5.7h-3.43l7.49-19.48h3.18l7.96,19.48ZM507.33,485.99h1.99l-7.35-17.98h-2.17l-6.92,17.98h1.81l2.07-5.7h8.38l2.18,5.7ZM504.71,479.07h-7.53l3.67-10.14,3.85,10.14ZM498.25,478.32h5.37l-2.75-7.24-2.62,7.24ZM501.47,466.81h-2.67l2.06-4.34h4.03l-3.42,4.34ZM499.99,466.06h1.12l2.24-2.84h-2.01l-1.35,2.84Z"/>
      </g>
      <g>
        <path d="M525.28,469.85h-6.21v16.51h-2.5v-16.51h-6.16v-2.22h14.86v2.22Z"/>
        <path d="M519.45,486.74h-3.25v-16.51h-6.16v-2.97h15.61v2.97h-6.21v16.51ZM516.96,485.99h1.75v-16.51h6.21v-1.47h-14.11v1.47h6.16v16.51Z"/>
      </g>
      <g>
        <path d="M530.76,486.36h-2.5v-18.73h2.5v18.73Z"/>
        <path d="M531.14,486.74h-3.25v-19.48h3.25v19.48ZM528.64,485.99h1.75v-17.98h-1.75v17.98Z"/>
      </g>
      <g>
        <path d="M543.1,486.68c-2.65,0-4.77-.87-6.35-2.61-1.58-1.74-2.37-4.1-2.37-7.07s.79-5.33,2.37-7.07c1.58-1.74,3.7-2.61,6.35-2.61,2.04,0,3.78.55,5.21,1.65,1.43,1.1,2.24,2.55,2.42,4.34h-2.56c-.1-1.18-.62-2.12-1.54-2.82-.93-.7-2.09-1.05-3.5-1.05-1.9,0-3.41.65-4.52,1.96-1.11,1.31-1.66,3.18-1.66,5.6s.55,4.29,1.65,5.6c1.1,1.31,2.59,1.97,4.48,1.97,1.47,0,2.65-.36,3.56-1.07s1.42-1.74,1.54-3.07h2.56c-.18,1.99-.96,3.54-2.35,4.63-1.39,1.09-3.15,1.64-5.27,1.64Z"/>
        <path d="M543.1,487.06c-2.75,0-4.98-.92-6.63-2.74-1.64-1.8-2.47-4.27-2.47-7.33s.83-5.52,2.47-7.33c1.65-1.82,3.88-2.74,6.63-2.74,2.11,0,3.94.58,5.44,1.73,1.51,1.16,2.38,2.71,2.56,4.61l.04.41h-3.32l-.03-.34c-.09-1.08-.55-1.92-1.39-2.56-.86-.64-1.96-.97-3.27-.97-1.8,0-3.19.6-4.23,1.83-1.04,1.23-1.57,3.04-1.57,5.36s.53,4.12,1.56,5.36c1.04,1.23,2.41,1.83,4.19,1.83,1.37,0,2.49-.33,3.33-.99.83-.66,1.28-1.57,1.39-2.81l.03-.34h3.31l-.04.41c-.19,2.09-1.03,3.74-2.5,4.89-1.45,1.14-3.3,1.72-5.5,1.72ZM543.1,467.68c-2.53,0-4.58.84-6.08,2.49-1.51,1.66-2.28,3.96-2.28,6.82s.77,5.16,2.28,6.82c1.5,1.65,3.54,2.49,6.08,2.49,2.03,0,3.72-.52,5.04-1.56,1.2-.94,1.93-2.27,2.17-3.96h-1.81c-.18,1.27-.73,2.27-1.64,2.99-.97.77-2.24,1.15-3.79,1.15-1.99,0-3.6-.71-4.77-2.1-1.15-1.38-1.74-3.34-1.74-5.84s.59-4.47,1.75-5.85c1.18-1.39,2.79-2.09,4.8-2.09,1.48,0,2.74.38,3.73,1.12.92.69,1.47,1.62,1.65,2.75h1.8c-.24-1.51-.97-2.71-2.22-3.67-1.36-1.04-3.03-1.57-4.98-1.57Z"/>
      </g>
      <g>
        <path d="M569.57,486.36h-2.8l-2.18-5.7h-7.86l-2.07,5.7h-2.62l7.2-18.73h2.67l7.65,18.73ZM563.87,478.7l-3.3-8.69-3.15,8.69h6.45Z"/>
        <path d="M570.13,486.74h-3.62l-2.18-5.7h-7.34l-2.07,5.7h-3.43l7.49-19.48h3.18l7.96,19.48ZM567.03,485.99h1.99l-7.35-17.98h-2.17l-6.92,17.98h1.81l2.07-5.7h8.38l2.18,5.7ZM564.41,479.07h-7.53l3.67-10.14,3.85,10.14ZM557.95,478.32h5.37l-2.75-7.24-2.62,7.24Z"/>
      </g>
      <g>
        <path d="M216.64,499.03l-7.37,10.8v7.94h-2.48v-7.94l-7.37-10.8h3.02l5.6,8.63,5.58-8.63h3.02Z"/>
        <path d="M209.64,518.14h-3.23v-8.19l-7.71-11.29h3.93l5.4,8.31,5.38-8.31h3.93l-7.71,11.29v8.19ZM207.16,517.39h1.73v-7.68l.07-.09,6.97-10.21h-2.11l-5.78,8.94-5.81-8.94h-2.11l7.04,10.31v7.68Z"/>
      </g>
      <g>
        <path d="M239.16,501.26h-6.21v16.51h-2.5v-16.51h-6.16v-2.22h14.86v2.22Z"/>
        <path d="M233.33,518.14h-3.25v-16.51h-6.16v-2.97h15.61v2.97h-6.21v16.51ZM230.83,517.39h1.75v-16.51h6.21v-1.47h-14.11v1.47h6.16v16.51Z"/>
      </g>
      <g>
        <path d="M255.82,517.77h-13.99v-18.73h13.55v2.22h-11.07v5.73h10.35v2.22h-10.35v6.34h11.5v2.22Z"/>
        <path d="M256.2,518.14h-14.74v-19.48h14.3v2.97h-11.07v4.98h10.35v2.97h-10.35v5.59h11.5v2.97ZM242.21,517.39h13.24v-1.47h-11.5v-7.09h10.35v-1.47h-10.35v-6.48h11.07v-1.47h-12.8v17.98Z"/>
      </g>
      <g>
        <path d="M270.92,517.77h-11.61v-18.73h2.48v16.51h9.12v2.22Z"/>
        <path d="M271.3,518.14h-12.36v-19.48h3.23v16.51h9.12v2.97ZM259.69,517.39h10.86v-1.47h-9.12v-16.51h-1.73v17.98Z"/>
      </g>
      <g>
        <path d="M287.88,517.77h-13.99v-18.73h13.55v2.22h-11.07v5.73h10.35v2.22h-10.35v6.34h11.5v2.22Z"/>
        <path d="M288.25,518.14h-14.74v-19.48h14.3v2.97h-11.07v4.98h10.35v2.97h-10.35v5.59h11.5v2.97ZM274.27,517.39h13.24v-1.47h-11.5v-7.09h10.35v-1.47h-10.35v-6.48h11.07v-1.47h-12.8v17.98Z"/>
      </g>
      <g>
        <path d="M299.23,518.09c-2.65,0-4.77-.87-6.35-2.61-1.58-1.74-2.37-4.1-2.37-7.07s.79-5.33,2.37-7.07c1.58-1.74,3.7-2.61,6.35-2.61,2.04,0,3.78.55,5.21,1.65,1.43,1.1,2.24,2.55,2.42,4.34h-2.56c-.1-1.18-.62-2.12-1.54-2.82-.93-.7-2.09-1.05-3.5-1.05-1.9,0-3.41.65-4.52,1.96-1.11,1.31-1.66,3.18-1.66,5.6s.55,4.29,1.65,5.6c1.1,1.31,2.59,1.97,4.48,1.97,1.47,0,2.65-.36,3.56-1.07.9-.72,1.42-1.74,1.54-3.07h2.56c-.18,1.99-.96,3.54-2.35,4.63-1.39,1.09-3.15,1.64-5.27,1.64Z"/>
        <path d="M299.23,518.46c-2.75,0-4.98-.92-6.63-2.74-1.64-1.8-2.47-4.27-2.47-7.33s.83-5.52,2.47-7.33c1.65-1.82,3.88-2.74,6.63-2.74,2.11,0,3.94.58,5.44,1.73,1.51,1.16,2.37,2.71,2.56,4.61l.04.41h-3.32l-.03-.34c-.09-1.08-.55-1.92-1.4-2.56-.85-.64-1.96-.97-3.27-.97-1.8,0-3.19.6-4.23,1.83-1.04,1.23-1.57,3.04-1.57,5.36s.53,4.12,1.56,5.36c1.04,1.23,2.41,1.83,4.19,1.83,1.37,0,2.49-.33,3.32-.99.83-.66,1.28-1.57,1.4-2.81l.03-.34h3.31l-.04.41c-.19,2.09-1.03,3.74-2.5,4.89-1.45,1.14-3.3,1.72-5.5,1.72ZM299.23,499.09c-2.53,0-4.58.84-6.08,2.49-1.51,1.66-2.28,3.96-2.28,6.82s.77,5.16,2.28,6.82c1.5,1.65,3.54,2.49,6.08,2.49,2.03,0,3.73-.52,5.04-1.56,1.22-.96,1.93-2.25,2.17-3.96h-1.81c-.18,1.27-.73,2.27-1.64,2.99-.97.77-2.24,1.15-3.79,1.15-1.99,0-3.6-.71-4.77-2.1-1.15-1.38-1.74-3.34-1.74-5.84s.59-4.48,1.75-5.85c1.18-1.39,2.79-2.09,4.8-2.09,1.48,0,2.74.38,3.73,1.12.92.69,1.47,1.62,1.65,2.75h1.8c-.24-1.51-.97-2.71-2.22-3.67-1.36-1.04-3.04-1.57-4.98-1.57Z"/>
      </g>
      <g>
        <path d="M318.43,498.71c2.63,0,4.78.89,6.45,2.66,1.67,1.77,2.51,4.12,2.51,7.03s-.84,5.26-2.51,7.03c-1.67,1.77-3.82,2.66-6.45,2.66s-4.79-.89-6.48-2.66-2.52-4.12-2.52-7.02.84-5.26,2.52-7.03c1.68-1.77,3.84-2.66,6.48-2.66ZM318.4,515.97c1.88,0,3.41-.67,4.61-1.99,1.2-1.33,1.8-3.19,1.8-5.57s-.6-4.24-1.79-5.57-2.72-1.99-4.57-1.99-3.43.67-4.64,1.99c-1.21,1.33-1.81,3.19-1.81,5.57s.6,4.23,1.8,5.57c1.2,1.33,2.73,2,4.59,2Z"/>
        <path d="M318.43,518.46c-2.73,0-5-.94-6.75-2.78-1.74-1.84-2.62-4.29-2.62-7.28s.88-5.45,2.62-7.29c1.75-1.84,4.02-2.78,6.75-2.78s4.98.93,6.72,2.78c1.73,1.84,2.61,4.29,2.61,7.29s-.88,5.45-2.61,7.29c-1.74,1.84-4,2.78-6.72,2.78ZM318.43,499.09c-2.52,0-4.6.86-6.2,2.54-1.6,1.69-2.42,3.97-2.42,6.77s.81,5.07,2.42,6.76c1.6,1.69,3.69,2.55,6.2,2.55s4.59-.85,6.18-2.54c1.6-1.69,2.41-3.97,2.41-6.77s-.81-5.08-2.41-6.77c-1.59-1.69-3.67-2.54-6.18-2.54ZM318.4,516.34c-1.96,0-3.6-.71-4.87-2.12-1.26-1.4-1.9-3.35-1.9-5.82s.64-4.43,1.91-5.82c1.28-1.41,2.93-2.12,4.92-2.12s3.58.71,4.85,2.12c1.25,1.39,1.89,3.35,1.89,5.82s-.64,4.43-1.89,5.82c-1.27,1.41-2.91,2.12-4.89,2.12ZM318.45,501.21c-1.79,0-3.22.61-4.36,1.87-1.14,1.25-1.71,3.04-1.71,5.32s.57,4.06,1.71,5.31c1.14,1.26,2.55,1.88,4.32,1.88s3.2-.61,4.33-1.87c1.13-1.25,1.7-3.04,1.7-5.32s-.57-4.07-1.7-5.32c-1.13-1.26-2.53-1.87-4.29-1.87Z"/>
      </g>
      <g>
        <path d="M348.32,517.77h-2.36v-15.94l-5.35,15.94h-2.23l-5.35-15.94v15.94h-2.35v-18.73h3.72l5.08,15.62,5.11-15.62h3.72v18.73Z"/>
        <path d="M348.7,518.14h-3.11v-14.01l-4.7,14.01h-2.77l-4.71-14.02v14.02h-3.1v-19.48h4.37l4.81,14.78,4.83-14.78h4.37v19.48ZM346.34,517.39h1.61v-17.98h-3.08l-5.38,16.45-5.35-16.45h-3.08v17.98h1.6v-17.86l5.99,17.86h1.69l5.99-17.86v17.86Z"/>
      </g>
      <g>
        <path d="M359.88,518.09c-2.18,0-3.8-.42-4.88-1.26-1.08-.84-1.76-1.84-2.05-2.98s-.43-2.47-.43-3.97v-10.84h2.48v10.8c0,2.46.41,4.08,1.24,4.86.83.78,2.04,1.16,3.63,1.16s2.81-.39,3.63-1.16c.83-.77,1.24-2.39,1.24-4.86v-10.8h2.5v10.84c0,2.27-.27,3.94-.81,5.01-.54,1.07-1.36,1.88-2.45,2.41-1.09.53-2.46.8-4.11.8Z"/>
        <path d="M359.88,518.46c-2.25,0-3.97-.45-5.11-1.34s-1.88-1.96-2.18-3.18c-.29-1.16-.44-2.53-.44-4.07v-11.21h3.23v11.17c0,2.34.38,3.88,1.12,4.58.75.7,1.89,1.06,3.38,1.06s2.63-.36,3.38-1.06c.74-.7,1.12-2.24,1.12-4.58v-11.17h3.25v11.21c0,2.35-.28,4.04-.85,5.18-.58,1.14-1.46,2.01-2.62,2.58-1.14.56-2.58.84-4.27.84ZM352.89,499.41v10.46c0,1.47.14,2.78.42,3.88.26,1.05.91,1.99,1.92,2.77,1.01.79,2.57,1.19,4.65,1.19,1.58,0,2.91-.26,3.94-.76,1.01-.49,1.78-1.25,2.28-2.24.51-1.02.77-2.64.77-4.84v-10.46h-1.75v10.42c0,2.59-.45,4.27-1.36,5.13-.9.84-2.21,1.26-3.89,1.26s-3-.43-3.89-1.26c-.92-.86-1.36-2.53-1.36-5.13v-10.42h-1.73Z"/>
      </g>
      <g>
        <path d="M386.17,517.77h-2.55l-9.83-14.79v14.79h-2.35v-18.73h2.53l9.83,14.79v-14.79h2.37v18.73Z"/>
        <path d="M386.55,518.14h-3.12l-9.25-13.92v13.92h-3.1v-19.48h3.11l9.25,13.92v-13.92h3.12v19.48ZM383.83,517.39h1.97v-17.98h-1.62v15.65l-10.4-15.65h-1.96v17.98h1.6v-15.65l10.4,15.65Z"/>
      </g>
      <g>
        <path d="M393.17,517.77h-2.5v-18.73h2.5v18.73Z"/>
        <path d="M393.55,518.14h-3.25v-19.48h3.25v19.48ZM391.05,517.39h1.75v-17.98h-1.75v17.98Z"/>
      </g>
      <g>
        <path d="M405.51,518.09c-2.65,0-4.77-.87-6.35-2.61-1.58-1.74-2.37-4.1-2.37-7.07s.79-5.33,2.37-7.07c1.58-1.74,3.7-2.61,6.35-2.61,2.04,0,3.78.55,5.21,1.65,1.43,1.1,2.24,2.55,2.42,4.34h-2.56c-.1-1.18-.62-2.12-1.54-2.82-.93-.7-2.09-1.05-3.5-1.05-1.9,0-3.41.65-4.52,1.96-1.11,1.31-1.66,3.18-1.66,5.6s.55,4.29,1.65,5.6c1.1,1.31,2.59,1.97,4.48,1.97,1.47,0,2.65-.36,3.56-1.07s1.42-1.74,1.54-3.07h2.56c-.18,1.99-.96,3.54-2.35,4.63-1.39,1.09-3.15,1.64-5.27,1.64Z"/>
        <path d="M405.51,518.46c-2.75,0-4.98-.92-6.63-2.74-1.64-1.8-2.47-4.27-2.47-7.33s.83-5.52,2.47-7.33c1.65-1.82,3.88-2.74,6.63-2.74,2.11,0,3.94.58,5.44,1.73,1.51,1.16,2.38,2.71,2.56,4.61l.04.41h-3.32l-.03-.34c-.09-1.08-.55-1.92-1.39-2.56-.86-.64-1.96-.97-3.27-.97-1.8,0-3.19.6-4.23,1.83-1.04,1.23-1.57,3.04-1.57,5.36s.53,4.12,1.56,5.36c1.04,1.23,2.41,1.83,4.19,1.83,1.37,0,2.49-.33,3.33-.99.83-.66,1.28-1.57,1.39-2.81l.03-.34h3.31l-.04.41c-.19,2.09-1.03,3.74-2.5,4.89-1.45,1.14-3.3,1.72-5.5,1.72ZM405.51,499.09c-2.53,0-4.58.84-6.08,2.49-1.51,1.66-2.28,3.96-2.28,6.82s.77,5.16,2.28,6.82c1.5,1.65,3.54,2.49,6.08,2.49,2.03,0,3.72-.52,5.04-1.56,1.2-.94,1.93-2.27,2.17-3.96h-1.81c-.18,1.27-.73,2.27-1.64,2.99-.97.77-2.24,1.15-3.79,1.15-1.99,0-3.6-.71-4.77-2.1-1.15-1.38-1.74-3.34-1.74-5.84s.59-4.47,1.75-5.85c1.18-1.39,2.79-2.09,4.8-2.09,1.48,0,2.74.38,3.73,1.12.92.69,1.47,1.62,1.65,2.75h1.8c-.24-1.51-.97-2.71-2.22-3.67-1.36-1.04-3.03-1.57-4.98-1.57Z"/>
      </g>
      <g>
        <path d="M431.99,517.77h-2.8l-2.18-5.7h-7.86l-2.07,5.7h-2.62l7.2-18.73h2.67l7.65,18.73ZM426.28,510.1l-3.3-8.69-3.15,8.69h6.45Z"/>
        <path d="M432.54,518.14h-3.62l-2.18-5.7h-7.34l-2.07,5.7h-3.43l7.49-19.48h3.18l7.96,19.48ZM429.44,517.39h1.99l-7.35-17.98h-2.17l-6.92,17.98h1.81l2.07-5.7h8.38l2.18,5.7ZM426.82,510.48h-7.53l3.67-10.14,3.85,10.14ZM420.36,509.73h5.37l-2.75-7.24-2.62,7.24Z"/>
      </g>
      <g>
        <path d="M441.92,518.09c-2.65,0-4.77-.87-6.35-2.61-1.58-1.74-2.37-4.1-2.37-7.07s.79-5.33,2.37-7.07c1.58-1.74,3.7-2.61,6.35-2.61,2.04,0,3.78.55,5.21,1.65,1.43,1.1,2.24,2.55,2.42,4.34h-2.56c-.1-1.18-.62-2.12-1.54-2.82-.93-.7-2.09-1.05-3.5-1.05-1.9,0-3.41.65-4.52,1.96-1.11,1.31-1.66,3.18-1.66,5.6s.55,4.29,1.65,5.6c1.1,1.31,2.59,1.97,4.48,1.97,1.47,0,2.65-.36,3.56-1.07s1.42-1.74,1.54-3.07h2.56c-.18,1.99-.96,3.54-2.35,4.63-1.39,1.09-3.15,1.64-5.27,1.64Z"/>
        <path d="M441.92,518.46c-2.75,0-4.98-.92-6.63-2.74-1.64-1.8-2.47-4.27-2.47-7.33s.83-5.52,2.47-7.33c1.65-1.82,3.88-2.74,6.63-2.74,2.11,0,3.94.58,5.44,1.73,1.51,1.16,2.38,2.71,2.56,4.61l.04.41h-3.32l-.03-.34c-.09-1.08-.55-1.92-1.39-2.56-.86-.64-1.96-.97-3.27-.97-1.8,0-3.19.6-4.23,1.83-1.04,1.23-1.57,3.04-1.57,5.36s.53,4.12,1.56,5.36c1.04,1.23,2.41,1.83,4.19,1.83,1.37,0,2.49-.33,3.33-.99.83-.66,1.28-1.57,1.39-2.81l.03-.34h3.31l-.04.41c-.19,2.09-1.03,3.74-2.5,4.89-1.45,1.14-3.3,1.72-5.5,1.72ZM441.92,499.09c-2.53,0-4.58.84-6.08,2.49-1.51,1.66-2.28,3.96-2.28,6.82s.77,5.16,2.28,6.82c1.5,1.65,3.54,2.49,6.08,2.49,2.03,0,3.72-.52,5.04-1.56,1.2-.94,1.93-2.27,2.17-3.96h-1.81c-.18,1.27-.73,2.27-1.64,2.99-.97.77-2.24,1.15-3.79,1.15-1.99,0-3.6-.71-4.77-2.1-1.15-1.38-1.74-3.34-1.74-5.84s.59-4.47,1.75-5.85c1.18-1.39,2.79-2.09,4.8-2.09,1.48,0,2.74.38,3.73,1.12.92.69,1.47,1.62,1.65,2.75h1.8c-.24-1.51-.97-2.71-2.22-3.67-1.36-1.04-3.03-1.57-4.98-1.57Z"/>
      </g>
      <g>
        <path d="M455.79,517.77h-2.5v-18.73h2.5v18.73Z"/>
        <path d="M456.16,518.14h-3.25v-19.48h3.25v19.48ZM453.67,517.39h1.75v-17.98h-1.75v17.98Z"/>
      </g>
      <g>
        <path d="M460.27,499.03h7c1.54,0,2.82.14,3.86.43s1.86.9,2.46,1.85c.61.95.91,2.01.91,3.19,0,1.89-.6,3.33-1.8,4.31s-2.94,1.47-5.22,1.47h-4.72v7.49h-2.48v-18.73ZM462.75,508.06h4.75c1.59,0,2.73-.3,3.41-.89.68-.6,1.02-1.46,1.02-2.58,0-.75-.19-1.41-.56-1.99-.38-.58-.85-.95-1.43-1.1-.58-.15-1.41-.23-2.49-.23h-4.7v6.8Z"/>
        <path d="M463.13,518.14h-3.23v-19.48h7.38c1.56,0,2.89.15,3.96.44,1.12.31,2.03.99,2.68,2.01.64,1.01.97,2.15.97,3.39,0,2-.65,3.55-1.94,4.6-1.27,1.03-3.1,1.55-5.46,1.55h-4.35v7.49ZM460.64,517.39h1.73v-7.49h5.1c2.18,0,3.85-.47,4.98-1.39,1.12-.91,1.67-2.23,1.67-4.02,0-1.1-.29-2.1-.85-2.99-.56-.88-1.29-1.43-2.25-1.69-1-.28-2.27-.42-3.76-.42h-6.62v17.98ZM467.5,508.43h-5.12v-7.55h5.07c1.13,0,1.97.08,2.58.24.67.18,1.22.6,1.64,1.26.41.64.62,1.38.62,2.2,0,1.23-.38,2.19-1.14,2.86-.76.67-1.95.99-3.66.99ZM463.13,507.68h4.37c1.5,0,2.56-.27,3.16-.8.6-.53.89-1.28.89-2.3,0-.68-.17-1.27-.5-1.79-.33-.5-.72-.81-1.21-.94-.54-.14-1.35-.22-2.39-.22h-4.32v6.05Z"/>
      </g>
      <g>
        <path d="M491.74,517.77h-13.99v-18.73h13.55v2.22h-11.07v5.73h10.35v2.22h-10.35v6.34h11.5v2.22Z"/>
        <path d="M492.11,518.14h-14.74v-19.48h14.3v2.97h-11.07v4.98h10.35v2.97h-10.35v5.59h11.5v2.97ZM478.12,517.39h13.24v-1.47h-11.5v-7.09h10.35v-1.47h-10.35v-6.48h11.07v-1.47h-12.8v17.98Z"/>
      </g>
      <g>
        <path d="M502.31,518.09c-2.65,0-4.62-.59-5.93-1.78-1.31-1.18-2-2.7-2.07-4.56h2.39c.13,1.4.71,2.43,1.75,3.1,1.04.67,2.29,1,3.76,1,1.39,0,2.51-.29,3.36-.86.85-.57,1.27-1.35,1.27-2.33,0-1.03-.44-1.78-1.32-2.25s-2.39-.93-4.54-1.39-3.69-1.09-4.62-1.9c-.93-.81-1.4-1.89-1.4-3.23,0-1.52.61-2.76,1.82-3.73,1.22-.97,2.83-1.46,4.84-1.46,2.12,0,3.82.49,5.12,1.47s1.98,2.36,2.06,4.15h-2.42c-.25-2.27-1.8-3.4-4.66-3.4-1.38,0-2.45.26-3.21.78-.76.52-1.14,1.21-1.14,2.07,0,.78.3,1.37.92,1.76.61.39,1.75.77,3.42,1.14s2.99.73,3.97,1.09,1.82.91,2.52,1.67c.7.75,1.05,1.77,1.05,3.04,0,1.61-.64,2.95-1.93,4.01-1.28,1.07-2.96,1.6-5.02,1.6Z"/>
        <path d="M502.31,518.46c-2.73,0-4.81-.63-6.18-1.87-1.38-1.25-2.12-2.87-2.19-4.83v-.39s3.11,0,3.11,0l.03.34c.12,1.29.63,2.21,1.58,2.82.97.63,2.17.94,3.55.94,1.31,0,2.37-.27,3.15-.79.75-.5,1.11-1.16,1.11-2.01s-.37-1.52-1.12-1.92c-.84-.45-2.34-.9-4.44-1.35-2.23-.47-3.8-1.12-4.79-1.98-1.02-.88-1.53-2.06-1.53-3.52,0-1.63.66-2.98,1.96-4.02,1.28-1.02,2.99-1.54,5.08-1.54s3.99.52,5.34,1.55c1.38,1.04,2.13,2.54,2.21,4.44l.02.39h-3.15l-.04-.33c-.23-2.06-1.63-3.07-4.29-3.07-1.3,0-2.31.24-3,.71-.66.45-.98,1.03-.98,1.76,0,.65.24,1.13.74,1.45.57.37,1.68.73,3.29,1.09,1.67.37,3.03.74,4.02,1.1,1.03.38,1.93.97,2.67,1.77.76.82,1.15,1.93,1.15,3.29,0,1.72-.69,3.17-2.06,4.3-1.35,1.12-3.12,1.68-5.26,1.68ZM494.71,512.12c.14,1.59.77,2.87,1.92,3.91,1.23,1.11,3.14,1.68,5.68,1.68,1.96,0,3.57-.51,4.78-1.51,1.2-1,1.79-2.22,1.79-3.72,0-1.17-.32-2.1-.95-2.78-.66-.71-1.46-1.24-2.37-1.57-.96-.35-2.29-.71-3.93-1.07-1.73-.38-2.88-.77-3.54-1.19-.72-.46-1.09-1.16-1.09-2.08,0-.99.44-1.79,1.3-2.38.82-.56,1.97-.84,3.42-.84,2.93,0,4.6,1.14,4.98,3.4h1.69c-.15-1.49-.77-2.63-1.88-3.48-1.23-.92-2.87-1.39-4.89-1.39-1.92,0-3.47.46-4.61,1.38-1.13.9-1.68,2.03-1.68,3.44,0,1.24.42,2.21,1.27,2.95.88.76,2.38,1.37,4.45,1.81,2.2.47,3.72.93,4.64,1.42,1.01.54,1.52,1.41,1.52,2.58,0,1.11-.48,1.99-1.44,2.64-.91.61-2.11.92-3.57.92-1.54,0-2.87-.36-3.96-1.06-1.05-.68-1.68-1.7-1.88-3.04h-1.66Z"/>
      </g>
    </g>
    <g id="Gobernacion">
      <g>
        <path class="cls-3" d="M215.23,540.98c-1.44,0-2.6-.47-3.49-1.41s-1.34-2.19-1.34-3.76.44-2.82,1.32-3.76,2.04-1.41,3.47-1.41c1.2,0,2.21.29,3,.87s1.24,1.36,1.34,2.33h-1.37c-.05-.65-.35-1.15-.87-1.52s-1.22-.55-2.09-.55c-1.03,0-1.86.35-2.49,1.06s-.94,1.7-.94,2.98.32,2.27.95,2.98,1.47,1.06,2.5,1.06c1.44,0,2.51-.48,3.21-1.43v-1.52h-2.64v-1.19h3.92v5.1h-.93l-.35-1.05c-.68.81-1.74,1.22-3.2,1.22Z"/>
        <path class="cls-3" d="M215.23,541.12c-1.47,0-2.68-.49-3.6-1.46-.92-.96-1.38-2.26-1.38-3.86s.46-2.9,1.36-3.86c.91-.96,2.11-1.45,3.58-1.45,1.23,0,2.27.3,3.09.9.83.6,1.3,1.42,1.4,2.43l.02.16h-1.66v-.13c-.06-.61-.33-1.07-.82-1.41-.5-.35-1.17-.52-2-.52-.98,0-1.79.34-2.38,1.01-.6.67-.91,1.64-.91,2.88s.31,2.2.92,2.88c.6.67,1.41,1.01,2.39,1.01,1.37,0,2.4-.45,3.07-1.33v-1.33h-2.64v-1.48h4.21v5.39h-1.18l-.3-.91c-.71.72-1.76,1.08-3.14,1.08ZM215.19,530.79c-1.38,0-2.52.46-3.36,1.36-.85.91-1.28,2.14-1.28,3.66s.44,2.75,1.3,3.66c.86.91,2,1.37,3.39,1.37s2.44-.39,3.09-1.17l.17-.2.4,1.2h.68v-4.81h-3.63v.9h2.64v1.71l-.03.04c-.73.99-1.85,1.48-3.33,1.48-1.07,0-1.94-.37-2.6-1.11-.66-.73-.99-1.77-.99-3.07s.33-2.35.98-3.08c.66-.73,1.53-1.11,2.6-1.11.89,0,1.62.19,2.17.58.53.36.83.87.92,1.49h1.08c-.12-.85-.55-1.55-1.26-2.06-.77-.56-1.75-.84-2.92-.84Z"/>
      </g>
      <g>
        <path class="cls-3" d="M226.05,530.64c1.4,0,2.55.47,3.44,1.42s1.34,2.2,1.34,3.75-.45,2.8-1.34,3.75-2.04,1.42-3.44,1.42-2.55-.47-3.45-1.42-1.34-2.2-1.34-3.75.45-2.8,1.34-3.75,2.05-1.42,3.45-1.42ZM226.03,539.85c1,0,1.82-.35,2.46-1.06s.96-1.7.96-2.97-.32-2.26-.95-2.97-1.45-1.06-2.43-1.06-1.83.35-2.47,1.06-.96,1.7-.96,2.97.32,2.26.96,2.97,1.46,1.07,2.45,1.07Z"/>
        <path class="cls-3" d="M226.05,541.12c-1.44,0-2.64-.49-3.56-1.47-.92-.97-1.38-2.27-1.38-3.85s.47-2.88,1.38-3.85c.92-.97,2.12-1.46,3.56-1.46s2.63.49,3.54,1.46c.91.97,1.38,2.26,1.38,3.85s-.46,2.88-1.38,3.85c-.92.97-2.11,1.46-3.54,1.46ZM226.05,530.79c-1.36,0-2.48.46-3.34,1.37-.86.91-1.3,2.14-1.3,3.65s.44,2.73,1.3,3.65c.86.91,1.99,1.38,3.34,1.38s2.47-.46,3.33-1.37c.86-.91,1.3-2.14,1.3-3.65s-.44-2.74-1.3-3.65c-.86-.91-1.98-1.37-3.33-1.37ZM226.03,539.99c-1.03,0-1.89-.38-2.56-1.11-.66-.74-1-1.77-1-3.07s.34-2.34,1-3.07c.67-.74,1.54-1.11,2.58-1.11s1.88.37,2.54,1.11c.66.73.99,1.77.99,3.07s-.33,2.34-1,3.07c-.66.74-1.53,1.11-2.57,1.11ZM226.06,531.92c-.96,0-1.75.34-2.36,1.02-.62.68-.93,1.65-.93,2.88s.31,2.19.92,2.87c.61.68,1.4,1.02,2.34,1.02s1.74-.34,2.35-1.02c.61-.68.92-1.65.92-2.88s-.31-2.2-.92-2.88c-.6-.67-1.39-1.01-2.33-1.01Z"/>
      </g>
      <g>
        <path class="cls-3" d="M240.05,537.9c0,.94-.32,1.65-.95,2.15s-1.56.75-2.78.75h-3.74v-10h3.56c1.06,0,1.9.23,2.51.68s.91,1.08.91,1.87c0,.96-.48,1.68-1.44,2.14.65.16,1.13.46,1.45.9s.48.94.48,1.5ZM233.9,535h2.22c.73,0,1.27-.12,1.62-.35s.52-.62.52-1.17c0-.49-.17-.86-.5-1.11s-.92-.37-1.75-.37h-2.1v3ZM233.9,539.62h2.41c1.58,0,2.37-.57,2.37-1.72,0-.6-.18-1.03-.55-1.31s-1.03-.41-1.99-.41h-2.24v3.44Z"/>
        <path class="cls-3" d="M236.32,540.95h-3.89v-10.29h3.7c1.09,0,1.96.24,2.6.71.64.48.97,1.15.97,1.99,0,.91-.41,1.61-1.21,2.1.51.18.91.47,1.19.85.34.46.51,1,.51,1.58,0,.98-.34,1.74-1.01,2.27-.66.52-1.62.78-2.86.78ZM232.72,540.66h3.6c1.17,0,2.08-.24,2.69-.72.6-.48.9-1.14.9-2.04,0-.53-.15-1-.45-1.41-.3-.41-.76-.69-1.37-.85l-.39-.1.36-.17c.91-.44,1.36-1.1,1.36-2.01,0-.75-.28-1.32-.86-1.75-.58-.43-1.4-.65-2.42-.65h-3.41v9.7ZM236.31,539.77h-2.55v-3.73h2.38c1.01,0,1.69.14,2.08.44.4.3.61.78.61,1.42,0,1.24-.85,1.86-2.52,1.86ZM234.05,539.48h2.26c1.5,0,2.23-.51,2.23-1.57,0-.55-.16-.94-.49-1.19-.34-.25-.98-.38-1.91-.38h-2.09v3.15ZM236.12,535.14h-2.37v-3.29h2.25c.87,0,1.47.13,1.84.4.37.28.56.69.56,1.23,0,.59-.2,1.03-.58,1.29-.37.25-.93.38-1.7.38ZM234.05,534.85h2.08c.7,0,1.21-.11,1.53-.33.31-.21.45-.55.45-1.05,0-.45-.15-.77-.45-.99-.31-.23-.87-.34-1.67-.34h-1.95v2.71Z"/>
      </g>
      <g>
        <path class="cls-3" d="M249.35,540.81h-7.45v-10h7.22v1.19h-5.9v3.05h5.52v1.19h-5.52v3.38h6.13v1.19Z"/>
        <path class="cls-3" d="M249.49,540.95h-7.74v-10.29h7.51v1.48h-5.9v2.76h5.52v1.48h-5.52v3.09h6.13v1.48ZM242.04,540.66h7.16v-.9h-6.13v-3.67h5.52v-.9h-5.52v-3.35h5.9v-.9h-6.93v9.7Z"/>
      </g>
      <g>
        <path class="cls-3" d="M259.54,540.81h-1.43l-.94-2.67c-.17-.47-.45-.86-.84-1.16s-.84-.45-1.35-.45h-2.45v4.28h-1.32v-10h4.43c.77,0,1.4.08,1.9.23s.89.47,1.2.95.46,1.03.46,1.63c0,.69-.2,1.27-.6,1.73s-.95.77-1.64.91v.03c.7.22,1.23.83,1.59,1.81l1,2.72ZM252.53,535.35h2.95c.82,0,1.42-.13,1.79-.39s.56-.71.56-1.34c0-1.14-.71-1.7-2.14-1.7h-3.16v3.44Z"/>
        <path class="cls-3" d="M259.75,540.95h-1.74l-.98-2.76c-.16-.44-.42-.81-.79-1.09-.36-.28-.79-.42-1.26-.42h-2.3v4.28h-1.61v-10.29h4.57c.78,0,1.44.08,1.94.23.52.16.95.5,1.28,1.01.32.5.49,1.08.49,1.71,0,.72-.21,1.34-.64,1.83-.34.4-.79.69-1.34.86.56.31,1,.89,1.32,1.74l1.07,2.92ZM258.21,540.66h1.12l-.93-2.53c-.35-.93-.85-1.51-1.5-1.72l-.1-.03v-.23l.12-.05c.66-.13,1.19-.42,1.56-.86.38-.43.56-.98.56-1.64,0-.57-.15-1.1-.44-1.55-.29-.45-.67-.75-1.12-.89-.48-.14-1.1-.22-1.85-.22h-4.28v9.7h1.03v-4.28h2.59c.54,0,1.02.16,1.44.48.41.32.71.73.89,1.23l.91,2.57ZM255.48,535.49h-3.1v-3.73h3.3c1.52,0,2.29.62,2.29,1.85,0,.68-.21,1.18-.62,1.46-.4.28-1.01.41-1.87.41ZM252.68,535.2h2.81c.79,0,1.36-.12,1.71-.36.33-.23.49-.63.49-1.22,0-1.05-.65-1.56-2-1.56h-3.01v3.15Z"/>
      </g>
      <g>
        <path class="cls-3" d="M269.14,540.81h-1.36l-5.24-7.89v7.89h-1.25v-10h1.35l5.24,7.89v-7.89h1.26v10Z"/>
        <path class="cls-3" d="M269.28,540.95h-1.58l-5.01-7.55v7.55h-1.55v-10.29h1.57l5.01,7.55v-7.55h1.55v10.29ZM267.86,540.66h1.13v-9.7h-.97v8.23l-5.46-8.23h-1.13v9.7h.96v-8.23l5.46,8.23Z"/>
      </g>
      <g>
        <path class="cls-3" d="M279.59,540.81h-1.49l-1.16-3.04h-4.19l-1.1,3.04h-1.4l3.84-10h1.43l4.08,10ZM276.54,536.72l-1.76-4.64-1.68,4.64h3.44Z"/>
        <path class="cls-3" d="M279.8,540.95h-1.81l-1.16-3.04h-3.98l-1.1,3.04h-1.71l3.95-10.29h1.62l4.2,10.29ZM278.19,540.66h1.18l-3.96-9.7h-1.23l-3.73,9.7h1.08l1.1-3.04h4.39l1.16,3.04ZM276.75,536.86h-3.85l1.88-5.2,1.97,5.2ZM273.32,536.57h3.02l-1.54-4.07-1.47,4.07Z"/>
      </g>
      <g>
        <path class="cls-3" d="M284.88,540.98c-1.41,0-2.54-.46-3.39-1.39s-1.26-2.19-1.26-3.77.42-2.84,1.26-3.77,1.97-1.39,3.39-1.39c1.09,0,2.01.29,2.78.88s1.19,1.36,1.29,2.32h-1.36c-.05-.63-.33-1.13-.82-1.51s-1.11-.56-1.86-.56c-1.01,0-1.82.35-2.41,1.05s-.89,1.69-.89,2.99.29,2.29.88,2.99,1.38,1.05,2.39,1.05c.78,0,1.41-.19,1.9-.57s.75-.93.82-1.64h1.36c-.1,1.06-.51,1.89-1.25,2.47s-1.68.87-2.81.87Z"/>
        <path class="cls-3" d="M284.88,541.12c-1.45,0-2.63-.49-3.49-1.44-.86-.95-1.3-2.26-1.3-3.87s.44-2.92,1.3-3.87c.87-.96,2.04-1.44,3.49-1.44,1.11,0,2.08.31,2.86.91.79.61,1.25,1.42,1.34,2.42l.02.16h-1.66v-.13c-.06-.59-.31-1.05-.78-1.4-.47-.35-1.06-.53-1.78-.53-.96,0-1.74.34-2.3,1-.57.67-.85,1.64-.85,2.9s.28,2.22.85,2.89c.55.66,1.32,1,2.28,1,.74,0,1.35-.18,1.81-.54s.7-.86.76-1.54v-.13h1.67v.16c-.11,1.1-.55,1.96-1.32,2.57-.76.6-1.74.9-2.9.9ZM284.88,530.79c-1.36,0-2.47.45-3.28,1.35-.81.9-1.23,2.13-1.23,3.68s.41,2.78,1.23,3.68c.81.89,1.91,1.35,3.28,1.35,1.09,0,2.01-.28,2.72-.84.67-.52,1.06-1.27,1.18-2.21h-1.07c-.09.68-.38,1.22-.86,1.6-.51.4-1.17.6-1.99.6-1.04,0-1.89-.37-2.5-1.1-.61-.72-.91-1.76-.91-3.08s.31-2.36.92-3.08c.62-.73,1.46-1.1,2.52-1.1.78,0,1.44.2,1.95.59.49.37.78.87.86,1.48h1.07c-.12-.84-.53-1.53-1.21-2.06-.73-.56-1.64-.85-2.69-.85Z"/>
      </g>
      <g>
        <path class="cls-3" d="M292.27,540.81h-1.33v-10h1.33v10Z"/>
        <path class="cls-3" d="M292.41,540.95h-1.62v-10.29h1.62v10.29ZM291.08,540.66h1.04v-9.7h-1.04v9.7Z"/>
      </g>
      <g>
        <path class="cls-3" d="M298.98,530.64c1.4,0,2.55.47,3.44,1.42s1.34,2.2,1.34,3.75-.45,2.8-1.34,3.75-2.04,1.42-3.44,1.42-2.55-.47-3.45-1.42-1.34-2.2-1.34-3.75.45-2.8,1.34-3.75,2.05-1.42,3.45-1.42ZM298.97,539.85c1,0,1.82-.35,2.46-1.06s.96-1.7.96-2.97-.32-2.26-.95-2.97-1.45-1.06-2.43-1.06-1.83.35-2.47,1.06-.96,1.7-.96,2.97.32,2.26.96,2.97,1.46,1.07,2.45,1.07ZM300.72,528.26l-1.51,1.92h-1.01l.91-1.92h1.61Z"/>
        <path class="cls-3" d="M298.98,541.12c-1.44,0-2.64-.49-3.56-1.47-.92-.97-1.38-2.27-1.38-3.85s.47-2.88,1.38-3.85c.92-.97,2.12-1.46,3.56-1.46s2.63.49,3.54,1.46c.91.97,1.38,2.26,1.38,3.85s-.46,2.88-1.38,3.85c-.92.97-2.11,1.46-3.54,1.46ZM298.98,530.79c-1.36,0-2.48.46-3.34,1.37-.86.91-1.3,2.14-1.3,3.65s.44,2.73,1.3,3.65c.86.91,1.99,1.38,3.34,1.38s2.47-.46,3.33-1.37c.86-.91,1.3-2.14,1.3-3.65s-.44-2.74-1.3-3.65c-.86-.91-1.98-1.37-3.33-1.37ZM298.97,539.99c-1.03,0-1.89-.38-2.56-1.11-.66-.74-1-1.77-1-3.07s.34-2.34,1-3.07c.67-.74,1.54-1.11,2.58-1.11s1.88.37,2.54,1.11c.66.73.99,1.77.99,3.07s-.33,2.34-1,3.07c-.66.74-1.53,1.11-2.57,1.11ZM299,531.92c-.96,0-1.75.34-2.36,1.02-.62.68-.93,1.65-.93,2.88s.31,2.19.92,2.87c.61.68,1.4,1.02,2.34,1.02s1.74-.34,2.35-1.02c.61-.68.92-1.65.92-2.88s-.31-2.2-.92-2.88c-.6-.67-1.39-1.01-2.33-1.01ZM299.28,530.32h-1.31l1.04-2.21h2l-1.74,2.21ZM298.43,530.03h.71l1.28-1.63h-1.22l-.77,1.63Z"/>
      </g>
      <g>
        <path class="cls-3" d="M313.36,540.81h-1.36l-5.24-7.89v7.89h-1.25v-10h1.35l5.24,7.89v-7.89h1.26v10Z"/>
        <path class="cls-3" d="M313.51,540.95h-1.58l-5.01-7.55v7.55h-1.55v-10.29h1.57l5.01,7.55v-7.55h1.55v10.29ZM312.08,540.66h1.13v-9.7h-.97v8.23l-5.46-8.23h-1.13v9.7h.96v-8.23l5.46,8.23Z"/>
      </g>
      <g>
        <path class="cls-3" d="M319.31,530.81h3.17c3.4,0,5.09,1.65,5.09,4.94s-1.7,5.05-5.09,5.05h-3.17v-10ZM320.63,539.62h1.82c1.45,0,2.44-.34,2.97-1.01s.79-1.63.79-2.85-.26-2.12-.79-2.78-1.51-.98-2.97-.98h-1.82v7.62Z"/>
        <path class="cls-3" d="M322.48,540.95h-3.32v-10.29h3.32c3.48,0,5.24,1.71,5.24,5.09s-1.76,5.2-5.24,5.2ZM319.45,540.66h3.03c3.33,0,4.95-1.6,4.95-4.91s-1.62-4.8-4.95-4.8h-3.03v9.7ZM322.45,539.77h-1.97v-7.91h1.97c1.49,0,2.53.35,3.08,1.04.54.68.82,1.64.82,2.87s-.28,2.25-.82,2.94c-.55.71-1.59,1.07-3.08,1.07ZM320.78,539.48h1.68c1.4,0,2.36-.32,2.85-.96.5-.65.76-1.58.76-2.76s-.25-2.06-.76-2.68c-.49-.61-1.45-.93-2.86-.93h-1.68v7.33Z"/>
      </g>
      <g>
        <path class="cls-3" d="M336.85,540.81h-7.45v-10h7.22v1.19h-5.9v3.05h5.52v1.19h-5.52v3.38h6.13v1.19Z"/>
        <path class="cls-3" d="M336.99,540.95h-7.74v-10.29h7.51v1.48h-5.9v2.76h5.52v1.48h-5.52v3.09h6.13v1.48ZM329.54,540.66h7.16v-.9h-6.13v-3.67h5.52v-.9h-5.52v-3.35h5.9v-.9h-6.93v9.7Z"/>
      </g>
      <g>
        <path class="cls-3" d="M344.89,540.81h-6.18v-10h1.32v8.81h4.86v1.19Z"/>
        <path class="cls-3" d="M345.04,540.95h-6.48v-10.29h1.61v8.81h4.86v1.48ZM338.85,540.66h5.89v-.9h-4.86v-8.81h-1.03v9.7Z"/>
      </g>
      <g>
        <path class="cls-3" d="M357.64,540.81h-7.45v-10h7.22v1.19h-5.9v3.05h5.52v1.19h-5.52v3.38h6.13v1.19Z"/>
        <path class="cls-3" d="M357.78,540.95h-7.74v-10.29h7.51v1.48h-5.9v2.76h5.52v1.48h-5.52v3.09h6.13v1.48ZM350.33,540.66h7.16v-.9h-6.13v-3.67h5.52v-.9h-5.52v-3.35h5.9v-.9h-6.93v9.7Z"/>
      </g>
      <g>
        <path class="cls-3" d="M363.27,540.98c-1.41,0-2.46-.32-3.16-.95s-1.06-1.44-1.1-2.43h1.28c.07.75.38,1.3.93,1.65s1.22.54,2,.54c.74,0,1.34-.15,1.79-.46s.68-.72.68-1.24c0-.55-.23-.95-.7-1.2s-1.27-.5-2.42-.74-1.96-.58-2.46-1.01-.75-1.01-.75-1.73c0-.81.32-1.47.97-1.99s1.51-.78,2.58-.78c1.13,0,2.04.26,2.73.78s1.06,1.26,1.1,2.22h-1.29c-.13-1.21-.96-1.81-2.48-1.81-.74,0-1.31.14-1.71.42s-.61.65-.61,1.1c0,.42.16.73.49.94s.93.41,1.82.61,1.59.39,2.12.58.97.49,1.34.89.56.94.56,1.62c0,.86-.34,1.57-1.03,2.14s-1.58.85-2.68.85Z"/>
        <path class="cls-3" d="M363.27,541.12c-1.44,0-2.54-.33-3.26-.99-.72-.66-1.11-1.51-1.15-2.54v-.15s1.55,0,1.55,0v.13c.08.71.36,1.21.88,1.54.53.34,1.17.51,1.92.51.71,0,1.28-.15,1.71-.43.41-.28.61-.65.61-1.12s-.2-.85-.63-1.07c-.45-.24-1.25-.49-2.38-.73-1.16-.25-2.01-.6-2.53-1.04-.53-.46-.8-1.08-.8-1.84,0-.85.35-1.56,1.03-2.1.67-.54,1.57-.81,2.67-.81s2.1.27,2.81.81c.72.55,1.11,1.33,1.16,2.33v.15s-1.56,0-1.56,0v-.13c-.14-1.13-.9-1.68-2.35-1.68-.7,0-1.25.13-1.63.39-.37.25-.54.57-.54.98,0,.37.14.64.42.82.31.2.91.4,1.77.59.89.2,1.61.39,2.14.59.54.2,1.01.51,1.4.93.4.43.6,1.01.6,1.72,0,.9-.36,1.66-1.08,2.25-.71.59-1.64.89-2.77.89ZM359.16,537.74c.06.88.42,1.61,1.04,2.18.67.6,1.7.91,3.06.91,1.06,0,1.93-.28,2.58-.82.66-.54.97-1.21.97-2.03,0-.64-.18-1.15-.52-1.52-.36-.38-.79-.67-1.29-.85-.51-.19-1.22-.38-2.1-.57-.91-.2-1.53-.41-1.87-.63-.37-.24-.55-.59-.55-1.06,0-.51.23-.92.67-1.23.43-.29,1.03-.44,1.79-.44,1.55,0,2.42.61,2.61,1.81h1.01c-.07-.84-.41-1.48-1.03-1.95-.66-.5-1.55-.75-2.64-.75s-1.87.25-2.49.75c-.62.49-.92,1.11-.92,1.88,0,.68.23,1.21.7,1.61.48.41,1.28.74,2.4.98,1.17.25,1.97.49,2.46.75.52.28.78.72.78,1.33,0,.57-.25,1.03-.74,1.36-.47.32-1.1.48-1.87.48-.81,0-1.51-.19-2.08-.56-.56-.36-.89-.91-.98-1.63h-.99Z"/>
      </g>
      <g>
        <path class="cls-3" d="M375.92,532h-3.31v8.81h-1.33v-8.81h-3.28v-1.19h7.92v1.19Z"/>
        <path class="cls-3" d="M372.75,540.95h-1.62v-8.81h-3.28v-1.48h8.21v1.48h-3.31v8.81ZM371.43,540.66h1.04v-8.81h3.31v-.9h-7.63v.9h3.28v8.81Z"/>
      </g>
      <g>
        <path class="cls-3" d="M385.55,540.81h-1.49l-1.16-3.04h-4.19l-1.1,3.04h-1.4l3.84-10h1.43l4.08,10ZM382.51,536.72l-1.76-4.64-1.68,4.64h3.44Z"/>
        <path class="cls-3" d="M385.77,540.95h-1.81l-1.16-3.04h-3.98l-1.1,3.04h-1.71l3.95-10.29h1.62l4.2,10.29ZM384.16,540.66h1.18l-3.96-9.7h-1.23l-3.73,9.7h1.08l1.1-3.04h4.39l1.16,3.04ZM382.72,536.86h-3.85l1.88-5.2,1.97,5.2ZM379.28,536.57h3.02l-1.54-4.07-1.47,4.07Z"/>
      </g>
      <g>
        <path class="cls-3" d="M386.66,530.81h3.17c3.4,0,5.09,1.65,5.09,4.94s-1.7,5.05-5.09,5.05h-3.17v-10ZM387.98,539.62h1.82c1.45,0,2.44-.34,2.97-1.01s.79-1.63.79-2.85-.26-2.12-.79-2.78-1.51-.98-2.97-.98h-1.82v7.62Z"/>
        <path class="cls-3" d="M389.83,540.95h-3.32v-10.29h3.32c3.48,0,5.24,1.71,5.24,5.09s-1.76,5.2-5.24,5.2ZM386.8,540.66h3.03c3.33,0,4.95-1.6,4.95-4.91s-1.62-4.8-4.95-4.8h-3.03v9.7ZM389.8,539.77h-1.97v-7.91h1.97c1.49,0,2.53.35,3.08,1.04.54.68.82,1.64.82,2.87s-.28,2.25-.82,2.94c-.55.71-1.59,1.07-3.08,1.07ZM388.12,539.48h1.68c1.4,0,2.36-.32,2.85-.96.5-.65.76-1.58.76-2.76s-.25-2.06-.76-2.68c-.49-.61-1.45-.93-2.86-.93h-1.68v7.33Z"/>
      </g>
      <g>
        <path class="cls-3" d="M401.07,530.64c1.4,0,2.55.47,3.44,1.42s1.34,2.2,1.34,3.75-.45,2.8-1.34,3.75-2.04,1.42-3.44,1.42-2.55-.47-3.45-1.42-1.34-2.2-1.34-3.75.45-2.8,1.34-3.75,2.05-1.42,3.45-1.42ZM401.06,539.85c1,0,1.82-.35,2.46-1.06s.96-1.7.96-2.97-.32-2.26-.95-2.97-1.45-1.06-2.43-1.06-1.83.35-2.47,1.06-.96,1.7-.96,2.97.32,2.26.96,2.97,1.46,1.07,2.45,1.07Z"/>
        <path class="cls-3" d="M401.07,541.12c-1.44,0-2.64-.49-3.56-1.47-.92-.97-1.38-2.27-1.38-3.85s.47-2.88,1.38-3.85c.92-.97,2.12-1.46,3.56-1.46s2.63.49,3.54,1.46c.91.97,1.38,2.26,1.38,3.85s-.46,2.88-1.38,3.85c-.92.97-2.11,1.46-3.54,1.46ZM401.07,530.79c-1.36,0-2.48.46-3.34,1.37-.86.91-1.3,2.14-1.3,3.65s.44,2.73,1.3,3.65c.86.91,1.99,1.38,3.34,1.38s2.47-.46,3.33-1.37c.86-.91,1.3-2.14,1.3-3.65s-.44-2.74-1.3-3.65c-.86-.91-1.98-1.37-3.33-1.37ZM401.06,539.99c-1.03,0-1.89-.38-2.56-1.11-.66-.74-1-1.77-1-3.07s.34-2.34,1-3.07c.67-.74,1.54-1.11,2.58-1.11s1.88.37,2.54,1.11c.66.73.99,1.77.99,3.07s-.33,2.34-1,3.07c-.66.74-1.53,1.11-2.57,1.11ZM401.08,531.92c-.96,0-1.75.34-2.36,1.02-.62.68-.93,1.65-.93,2.88s.31,2.19.92,2.87c.61.68,1.4,1.02,2.34,1.02s1.74-.34,2.35-1.02c.61-.68.92-1.65.92-2.88s-.31-2.2-.92-2.88c-.6-.67-1.39-1.01-2.33-1.01Z"/>
      </g>
      <g>
        <path class="cls-3" d="M419.52,540.81h-1.49l-1.16-3.04h-4.19l-1.1,3.04h-1.4l3.84-10h1.43l4.08,10ZM416.48,536.72l-1.76-4.64-1.68,4.64h3.44Z"/>
        <path class="cls-3" d="M419.74,540.95h-1.81l-1.16-3.04h-3.98l-1.1,3.04h-1.71l3.95-10.29h1.62l4.2,10.29ZM418.13,540.66h1.18l-3.96-9.7h-1.23l-3.73,9.7h1.08l1.1-3.04h4.39l1.16,3.04ZM416.69,536.86h-3.85l1.88-5.2,1.97,5.2ZM413.25,536.57h3.02l-1.54-4.07-1.47,4.07Z"/>
      </g>
      <g>
        <path class="cls-3" d="M428.47,540.81h-1.36l-5.24-7.89v7.89h-1.25v-10h1.35l5.24,7.89v-7.89h1.26v10Z"/>
        <path class="cls-3" d="M428.62,540.95h-1.58l-5.01-7.55v7.55h-1.55v-10.29h1.57l5.01,7.55v-7.55h1.55v10.29ZM427.19,540.66h1.13v-9.7h-.97v8.23l-5.46-8.23h-1.13v9.7h.96v-8.23l5.46,8.23Z"/>
      </g>
      <g>
        <path class="cls-3" d="M437.75,540.81h-7.9v-1.24l6.21-7.57h-5.64v-1.19h7.16v1.24l-6.21,7.57h6.38v1.19Z"/>
        <path class="cls-3" d="M437.89,540.95h-8.19v-1.44l.03-.04,6.02-7.33h-5.48v-1.48h7.45v1.44l-.03.04-6.02,7.33h6.22v1.48ZM429.99,540.66h7.61v-.9h-6.54l6.37-7.77v-1.04h-6.87v.9h5.8l-6.37,7.77v1.04Z"/>
      </g>
      <g>
        <path class="cls-3" d="M443.57,530.64c1.4,0,2.55.47,3.44,1.42s1.34,2.2,1.34,3.75-.45,2.8-1.34,3.75-2.04,1.42-3.44,1.42-2.55-.47-3.45-1.42-1.34-2.2-1.34-3.75.45-2.8,1.34-3.75,2.05-1.42,3.45-1.42ZM443.56,539.85c1,0,1.82-.35,2.46-1.06s.96-1.7.96-2.97-.32-2.26-.95-2.97-1.45-1.06-2.43-1.06-1.83.35-2.47,1.06-.96,1.7-.96,2.97.32,2.26.96,2.97,1.46,1.07,2.45,1.07Z"/>
        <path class="cls-3" d="M443.57,541.12c-1.44,0-2.64-.49-3.56-1.47-.92-.97-1.38-2.27-1.38-3.85s.47-2.88,1.38-3.85c.92-.97,2.12-1.46,3.56-1.46s2.63.49,3.54,1.46c.91.97,1.38,2.26,1.38,3.85s-.46,2.88-1.38,3.85c-.92.97-2.11,1.46-3.54,1.46ZM443.57,530.79c-1.36,0-2.48.46-3.34,1.37-.86.91-1.3,2.14-1.3,3.65s.44,2.73,1.3,3.65c.86.91,1.99,1.38,3.34,1.38s2.47-.46,3.33-1.37c.86-.91,1.3-2.14,1.3-3.65s-.44-2.74-1.3-3.65c-.86-.91-1.98-1.37-3.33-1.37ZM443.56,539.99c-1.03,0-1.89-.38-2.56-1.11-.66-.74-1-1.77-1-3.07s.34-2.34,1-3.07c.67-.74,1.54-1.11,2.58-1.11s1.88.37,2.54,1.11c.66.73.99,1.77.99,3.07s-.33,2.34-1,3.07c-.66.74-1.53,1.11-2.57,1.11ZM443.58,531.92c-.96,0-1.75.34-2.36,1.02-.62.68-.93,1.65-.93,2.88s.31,2.19.92,2.87c.61.68,1.4,1.02,2.34,1.02s1.74-.34,2.35-1.02c.61-.68.92-1.65.92-2.88s-.31-2.2-.92-2.88c-.6-.67-1.39-1.01-2.33-1.01Z"/>
      </g>
      <g>
        <path class="cls-3" d="M458.31,540.81h-1.49l-1.16-3.04h-4.19l-1.1,3.04h-1.4l3.84-10h1.43l4.08,10ZM455.27,536.72l-1.76-4.64-1.68,4.64h3.44ZM455.24,528.26l-1.51,1.92h-1.01l.91-1.92h1.61Z"/>
        <path class="cls-3" d="M458.53,540.95h-1.81l-1.16-3.04h-3.98l-1.1,3.04h-1.71l3.95-10.29h1.62l4.2,10.29ZM456.92,540.66h1.18l-3.96-9.7h-1.23l-3.73,9.7h1.08l1.1-3.04h4.39l1.16,3.04ZM455.48,536.86h-3.85l1.88-5.2,1.97,5.2ZM452.04,536.57h3.02l-1.54-4.07-1.47,4.07ZM453.81,530.32h-1.31l1.04-2.21h2l-1.74,2.21ZM452.96,530.03h.71l1.28-1.63h-1.22l-.77,1.63Z"/>
      </g>
      <g>
        <path class="cls-3" d="M466.52,532h-3.31v8.81h-1.33v-8.81h-3.28v-1.19h7.92v1.19Z"/>
        <path class="cls-3" d="M463.36,540.95h-1.62v-8.81h-3.28v-1.48h8.21v1.48h-3.31v8.81ZM462.03,540.66h1.04v-8.81h3.31v-.9h-7.63v.9h3.28v8.81Z"/>
      </g>
      <g>
        <path class="cls-3" d="M475.4,540.81h-7.45v-10h7.22v1.19h-5.9v3.05h5.52v1.19h-5.52v3.38h6.13v1.19Z"/>
        <path class="cls-3" d="M475.54,540.95h-7.74v-10.29h7.51v1.48h-5.9v2.76h5.52v1.48h-5.52v3.09h6.13v1.48ZM468.09,540.66h7.16v-.9h-6.13v-3.67h5.52v-.9h-5.52v-3.35h5.9v-.9h-6.93v9.7Z"/>
      </g>
      <g>
        <path class="cls-3" d="M481.63,540.98c-1.44,0-2.6-.47-3.49-1.41s-1.34-2.19-1.34-3.76.44-2.82,1.32-3.76,2.04-1.41,3.47-1.41c1.2,0,2.21.29,3,.87s1.24,1.36,1.34,2.33h-1.37c-.05-.65-.35-1.15-.87-1.52s-1.22-.55-2.09-.55c-1.03,0-1.86.35-2.49,1.06s-.94,1.7-.94,2.98.32,2.27.95,2.98,1.47,1.06,2.5,1.06c1.44,0,2.51-.48,3.21-1.43v-1.52h-2.64v-1.19h3.92v5.1h-.93l-.35-1.05c-.68.81-1.74,1.22-3.2,1.22Z"/>
        <path class="cls-3" d="M481.63,541.12c-1.47,0-2.68-.49-3.6-1.46-.92-.96-1.38-2.26-1.38-3.86s.46-2.9,1.36-3.86c.91-.96,2.11-1.45,3.58-1.45,1.23,0,2.27.3,3.09.9.83.6,1.3,1.42,1.4,2.43l.02.16h-1.66v-.13c-.06-.61-.33-1.07-.82-1.41-.5-.35-1.17-.52-2-.52-.98,0-1.79.34-2.38,1.01-.6.67-.91,1.64-.91,2.88s.31,2.2.92,2.88c.6.67,1.41,1.01,2.39,1.01,1.37,0,2.4-.45,3.07-1.33v-1.33h-2.64v-1.48h4.21v5.39h-1.18l-.3-.91c-.71.72-1.76,1.08-3.14,1.08ZM481.59,530.79c-1.38,0-2.52.46-3.36,1.36-.85.91-1.28,2.14-1.28,3.66s.44,2.75,1.3,3.66c.86.91,2,1.37,3.39,1.37s2.44-.39,3.09-1.17l.17-.2.4,1.2h.68v-4.81h-3.63v.9h2.64v1.71l-.03.04c-.73.99-1.85,1.48-3.33,1.48-1.07,0-1.94-.37-2.6-1.11-.66-.73-.99-1.77-.99-3.07s.33-2.35.98-3.08c.66-.73,1.53-1.11,2.6-1.11.89,0,1.62.19,2.17.58.53.36.83.87.92,1.49h1.08c-.12-.85-.55-1.55-1.26-2.06-.77-.56-1.75-.84-2.92-.84Z"/>
      </g>
      <g>
        <path class="cls-3" d="M492.04,540.98c-1.16,0-2.03-.23-2.6-.68s-.94-.98-1.09-1.59-.23-1.32-.23-2.12v-5.78h1.32v5.76c0,1.31.22,2.18.66,2.59s1.09.62,1.94.62,1.5-.21,1.94-.62.66-1.28.66-2.59v-5.76h1.33v5.78c0,1.21-.14,2.1-.43,2.67s-.72,1-1.31,1.29-1.31.43-2.19.43Z"/>
        <path class="cls-3" d="M492.04,541.12c-1.19,0-2.09-.24-2.69-.71s-.98-1.03-1.14-1.67c-.15-.62-.23-1.34-.23-2.16v-5.93h1.61v5.91c0,1.27.21,2.1.62,2.49.41.39,1.03.58,1.84.58s1.43-.2,1.84-.58c.41-.38.62-1.22.62-2.49v-5.91h1.62v5.93c0,1.23-.15,2.15-.45,2.74-.3.6-.76,1.05-1.37,1.35-.6.29-1.36.44-2.25.44ZM488.27,530.96v5.64c0,.79.08,1.49.22,2.09.14.57.49,1.08,1.04,1.51.55.43,1.39.64,2.51.64.85,0,1.57-.14,2.13-.41.55-.27.97-.68,1.24-1.22.28-.55.42-1.43.42-2.61v-5.64h-1.04v5.62c0,1.37-.23,2.25-.71,2.7-.47.44-1.15.66-2.04.66s-1.57-.22-2.04-.66c-.48-.45-.71-1.33-.71-2.7v-5.62h-1.03Z"/>
      </g>
      <g>
        <path class="cls-3" d="M499.7,540.81h-1.33v-10h1.33v10Z"/>
        <path class="cls-3" d="M499.84,540.95h-1.62v-10.29h1.62v10.29ZM498.51,540.66h1.04v-9.7h-1.04v9.7Z"/>
      </g>
    </g>
  </g>
</svg>