<?xml version="1.0" encoding="UTF-8"?>
<svg id="Capa_2" data-name="Capa 2" xmlns="http://www.w3.org/2000/svg" width="2007.17" height="423.39" viewBox="0 0 2007.17 423.39">
  <defs>
    <style>
      .cls-1 {
        fill: #3777f3;
      }

      .cls-2 {
        fill: #f7d131;
      }

      .cls-3 {
        fill: #36751f;
      }
    </style>
  </defs>
  <g id="Color">
    <g>
      <path class="cls-1" d="M901.88,72.38c3.54-.52,7.97-.84,12.67-.84,8.16,0,13.71,1.53,17.72,4.54,4.23,3.11,6.81,7.79,6.81,14.46,0,7.04-2.66,12.25-6.77,15.63-4.36,3.54-11.24,5.35-19.69,5.35-4.62,0-8.12-.22-10.74-.52v-38.61ZM909.81,105.65c1.11.17,2.8.19,4.43.19,10.31.05,16.45-5.12,16.45-15.07.04-8.67-5.48-13.66-15.46-13.66-2.49,0-4.26.2-5.42.42v28.12Z"/>
      <path class="cls-1" d="M953.88,71.84v39.29h-7.95v-39.29h7.95Z"/>
      <path class="cls-1" d="M962.96,72.38c3.02-.5,7.43-.84,12.04-.84,6.23,0,10.48.95,13.41,3.17,2.39,1.8,3.75,4.52,3.75,7.89,0,5.06-3.81,8.51-7.91,9.81v.17c3.15,1.08,4.99,3.79,6.06,7.6,1.38,4.92,2.57,9.42,3.43,10.95h-8.15c-.67-1.14-1.71-4.38-2.93-9.27-1.25-5.12-3.31-6.78-7.82-6.88h-4v16.15h-7.88v-38.75ZM970.84,89.72h4.7c5.39,0,8.7-2.57,8.7-6.47,0-4.27-3.33-6.28-8.47-6.3-2.52,0-4.12.18-4.93.36v12.41Z"/>
      <path class="cls-1" d="M1023.99,93.7h-16.38v11.52h18.32v5.9h-26.26v-39.29h25.31v5.9h-17.36v10.1h16.38v5.85Z"/>
      <path class="cls-1" d="M1064.09,109.97c-1.88.85-6.02,1.77-11.28,1.77-13.79,0-22.19-7.83-22.19-19.79,0-12.92,9.98-20.72,23.27-20.72,5.23,0,8.92.96,10.53,1.74l-1.72,5.72c-2.03-.83-4.92-1.54-8.48-1.54-8.86,0-15.24,5-15.24,14.45,0,8.66,5.58,14.14,15.14,14.14,3.21,0,6.57-.58,8.66-1.42l1.31,5.65Z"/>
      <path class="cls-1" d="M1100.34,109.97c-1.88.85-6.02,1.77-11.28,1.77-13.79,0-22.19-7.83-22.19-19.79,0-12.92,9.98-20.72,23.27-20.72,5.23,0,8.92.96,10.53,1.74l-1.72,5.72c-2.03-.83-4.92-1.54-8.48-1.54-8.86,0-15.24,5-15.24,14.45,0,8.66,5.58,14.14,15.14,14.14,3.21,0,6.57-.58,8.66-1.42l1.31,5.65Z"/>
      <path class="cls-1" d="M1115,71.84v39.29h-7.95v-39.29h7.95Z"/>
      <path class="cls-1" d="M1162.68,91.09c0,13.16-8.83,20.68-20.8,20.68s-20.05-8.48-20.05-19.98,8.43-20.59,20.7-20.59,20.16,8.66,20.16,19.89ZM1130.21,91.64c0,8.02,4.48,14.39,12.07,14.39s12.01-6.45,12.01-14.67c0-7.41-4.07-14.42-11.99-14.42s-12.09,6.63-12.09,14.7ZM1152.68,62.64l-8.04,7.01h-6.39l5.67-7.01h8.76Z"/>
      <path class="cls-1" d="M1169.49,111.13v-39.29h9.08l11.23,16.86c2.86,4.34,5.39,8.9,7.4,13.17l.16-.04c-.56-5.22-.71-10.28-.71-16.28v-13.71h7.34v39.29h-8.23l-11.34-17.28c-2.77-4.31-5.66-9.1-7.79-13.55l-.21.04c.32,5.1.42,10.29.42,16.74v14.05h-7.34Z"/>
      <path class="cls-1" d="M1226.45,72.38c3.54-.52,7.97-.84,12.67-.84,8.16,0,13.71,1.53,17.71,4.54,4.23,3.11,6.81,7.79,6.81,14.46,0,7.04-2.66,12.25-6.77,15.63-4.36,3.54-11.24,5.35-19.69,5.35-4.62,0-8.12-.22-10.74-.52v-38.61ZM1234.38,105.65c1.11.17,2.8.19,4.43.19,10.31.05,16.45-5.12,16.45-15.07.04-8.67-5.48-13.66-15.46-13.66-2.49,0-4.26.2-5.42.42v28.12Z"/>
      <path class="cls-1" d="M1294.83,93.7h-16.38v11.52h18.32v5.9h-26.26v-39.29h25.3v5.9h-17.36v10.1h16.38v5.85Z"/>
      <path class="cls-1" d="M1325.78,100.02l-3.71,11.1h-8.21l13.95-39.29h10.11l14.12,39.29h-8.53l-3.93-11.1h-13.81ZM1338.28,94.6l-3.43-9.68c-.83-2.43-1.55-5.11-2.21-7.39h-.14c-.63,2.3-1.3,5.02-2.07,7.36l-3.36,9.71h11.2Z"/>
      <path class="cls-1" d="M1363.93,71.84v22.9c0,7.68,3.52,11.25,8.91,11.25,5.72,0,9.16-3.54,9.16-11.25v-22.9h7.95v22.44c0,12.1-6.89,17.49-17.39,17.49s-16.57-5.09-16.57-17.45v-22.48h7.95Z"/>
      <path class="cls-1" d="M1407.33,77.87h-12.41v-6.03h32.89v6.03h-12.53v33.26h-7.95v-33.26Z"/>
      <path class="cls-1" d="M1469.64,91.09c0,13.16-8.83,20.68-20.8,20.68s-20.05-8.48-20.05-19.98,8.43-20.59,20.7-20.59,20.16,8.66,20.16,19.89ZM1437.17,91.64c0,8.02,4.48,14.39,12.07,14.39s12.01-6.45,12.01-14.67c0-7.41-4.07-14.42-11.99-14.42s-12.09,6.63-12.09,14.7Z"/>
      <path class="cls-1" d="M1513.17,95.1c-.26-5.07-.55-11.17-.52-16.53h-.18c-1.44,4.82-3.25,10.12-5.13,15.09l-6.38,17h-6.11l-5.76-16.77c-1.7-5.04-3.26-10.38-4.4-15.32h-.14c-.19,5.14-.45,11.42-.78,16.76l-.97,15.79h-7.4l2.89-39.29h10.43l5.66,15.78c1.56,4.64,2.96,9.3,4,13.68h.19c1.17-4.29,2.66-9.09,4.34-13.71l6.03-15.75h10.3l2.5,39.29h-7.74l-.84-16.03Z"/>
      <path class="cls-1" d="M1538.12,100.02l-3.71,11.1h-8.21l13.95-39.29h10.11l14.12,39.29h-8.53l-3.93-11.1h-13.81ZM1550.62,94.6l-3.43-9.68c-.83-2.43-1.55-5.11-2.21-7.39h-.14c-.63,2.3-1.3,5.02-2.07,7.36l-3.36,9.71h11.2Z"/>
      <path class="cls-1" d="M1573.55,77.87h-12.41v-6.03h32.89v6.03h-12.53v33.26h-7.95v-33.26Z"/>
      <path class="cls-1" d="M1607.01,71.84v39.29h-7.95v-39.29h7.95Z"/>
      <path class="cls-1" d="M1613.24,107.15l22.24-29.16v-.19h-20.28v-5.96h30.56v4.22l-21.93,28.91v.2h22.25v5.96h-32.85v-3.98Z"/>
      <path class="cls-1" d="M1661.64,100.02l-3.71,11.1h-8.21l13.95-39.29h10.11l14.12,39.29h-8.53l-3.93-11.1h-13.81ZM1674.14,94.6l-3.43-9.68c-.83-2.43-1.55-5.11-2.21-7.39h-.14c-.63,2.3-1.3,5.02-2.07,7.36l-3.36,9.71h11.2Z"/>
      <path class="cls-1" d="M1723.8,109.97c-1.88.85-6.02,1.77-11.28,1.77-13.79,0-22.19-7.83-22.19-19.79,0-12.92,9.98-20.72,23.27-20.72,5.23,0,8.92.96,10.53,1.74l-1.72,5.72c-2.03-.83-4.92-1.54-8.48-1.54-8.86,0-15.24,5-15.24,14.45,0,8.66,5.58,14.14,15.14,14.14,3.21,0,6.57-.58,8.66-1.42l1.31,5.65Z"/>
      <path class="cls-1" d="M1738.46,71.84v39.29h-7.95v-39.29h7.95Z"/>
      <path class="cls-1" d="M1786.14,91.09c0,13.16-8.83,20.68-20.8,20.68s-20.05-8.48-20.05-19.98,8.43-20.59,20.7-20.59,20.16,8.66,20.16,19.89ZM1753.67,91.64c0,8.02,4.48,14.39,12.07,14.39s12.01-6.45,12.01-14.67c0-7.41-4.07-14.42-11.99-14.42s-12.09,6.63-12.09,14.7ZM1776.14,62.64l-8.04,7.01h-6.39l5.67-7.01h8.76Z"/>
      <path class="cls-1" d="M1792.95,111.13v-39.29h9.08l11.23,16.86c2.86,4.34,5.39,8.9,7.4,13.17l.16-.04c-.56-5.22-.71-10.28-.71-16.28v-13.71h7.34v39.29h-8.23l-11.34-17.28c-2.77-4.31-5.66-9.1-7.79-13.55l-.21.04c.32,5.1.42,10.29.42,16.74v14.05h-7.34Z"/>
      <path class="cls-1" d="M909.82,141.79v39.29h-7.95v-39.29h7.95Z"/>
      <path class="cls-1" d="M918.91,181.08v-39.29h9.08l11.23,16.86c2.86,4.34,5.4,8.9,7.4,13.17l.16-.04c-.56-5.22-.71-10.28-.71-16.28v-13.71h7.34v39.29h-8.23l-11.34-17.28c-2.77-4.31-5.66-9.1-7.79-13.55l-.2.04c.32,5.1.42,10.29.42,16.74v14.05h-7.34Z"/>
      <path class="cls-1" d="M962.51,141.79h25.14v5.9h-17.19v10.84h15.99v5.85h-15.99v16.69h-7.95v-39.29Z"/>
      <path class="cls-1" d="M1033.94,161.04c0,13.16-8.83,20.68-20.8,20.68s-20.06-8.48-20.06-19.98,8.43-20.59,20.7-20.59,20.16,8.66,20.16,19.89ZM1001.46,161.59c0,8.02,4.48,14.39,12.07,14.39s12.01-6.45,12.01-14.67c0-7.41-4.07-14.42-11.99-14.42s-12.09,6.63-12.09,14.7Z"/>
      <path class="cls-1" d="M1040.75,142.33c3.02-.5,7.43-.84,12.04-.84,6.23,0,10.48.95,13.41,3.17,2.39,1.8,3.75,4.52,3.75,7.89,0,5.06-3.81,8.51-7.91,9.81v.17c3.15,1.08,4.99,3.79,6.06,7.6,1.38,4.92,2.57,9.42,3.43,10.95h-8.15c-.68-1.14-1.71-4.38-2.93-9.27-1.25-5.12-3.31-6.78-7.82-6.88h-4v16.15h-7.88v-38.75ZM1048.63,159.67h4.7c5.39,0,8.7-2.57,8.7-6.47,0-4.27-3.33-6.28-8.47-6.3-2.52,0-4.12.18-4.93.36v12.41Z"/>
      <path class="cls-1" d="M1114.16,165.05c-.26-5.07-.55-11.17-.52-16.53h-.18c-1.44,4.82-3.25,10.12-5.13,15.09l-6.38,17h-6.11l-5.76-16.77c-1.7-5.04-3.26-10.38-4.4-15.32h-.14c-.19,5.14-.45,11.42-.78,16.76l-.97,15.79h-7.4l2.89-39.29h10.43l5.66,15.78c1.56,4.64,2.96,9.3,4,13.68h.19c1.17-4.29,2.66-9.09,4.34-13.71l6.03-15.75h10.3l2.5,39.29h-7.74l-.84-16.03Z"/>
      <path class="cls-1" d="M1139.12,169.97l-3.71,11.1h-8.21l13.95-39.29h10.11l14.12,39.29h-8.53l-3.93-11.1h-13.81ZM1151.62,164.55l-3.43-9.68c-.83-2.43-1.55-5.11-2.21-7.39h-.14c-.63,2.3-1.3,5.02-2.07,7.36l-3.36,9.71h11.2ZM1156.68,132.68l-8.04,7.01h-6.4l5.67-7.01h8.76Z"/>
      <path class="cls-1" d="M1174.55,147.82h-12.41v-6.03h32.89v6.03h-12.53v33.26h-7.95v-33.26Z"/>
      <path class="cls-1" d="M1208.01,141.79v39.29h-7.95v-39.29h7.95Z"/>
      <path class="cls-1" d="M1248.3,179.92c-1.88.85-6.02,1.77-11.28,1.77-13.79,0-22.19-7.83-22.19-19.79,0-12.92,9.98-20.72,23.27-20.72,5.23,0,8.92.96,10.53,1.74l-1.72,5.72c-2.03-.83-4.92-1.54-8.48-1.54-8.86,0-15.24,5-15.24,14.45,0,8.66,5.58,14.14,15.14,14.14,3.21,0,6.57-.58,8.66-1.42l1.31,5.65Z"/>
      <path class="cls-1" d="M1264.18,169.97l-3.71,11.1h-8.21l13.95-39.29h10.11l14.12,39.29h-8.53l-3.93-11.1h-13.81ZM1276.68,164.55l-3.43-9.68c-.83-2.43-1.55-5.11-2.21-7.39h-.14c-.63,2.3-1.3,5.02-2.07,7.36l-3.36,9.71h11.2Z"/>
      <path class="cls-1" d="M1316.95,181.08v-16.35l-13.75-22.93h9.08l5.18,10.08c1.48,2.89,2.6,5.12,3.79,7.79h.13c1.07-2.51,2.32-4.93,3.76-7.81l5.23-10.06h8.96l-14.44,22.74v16.55h-7.95Z"/>
      <path class="cls-1" d="M1363.28,147.82h-12.41v-6.03h32.89v6.03h-12.53v33.26h-7.95v-33.26Z"/>
      <path class="cls-1" d="M1413.12,163.65h-16.38v11.52h18.32v5.9h-26.26v-39.29h25.3v5.9h-17.36v10.1h16.38v5.85Z"/>
      <path class="cls-1" d="M1422.01,141.79h7.95v33.26h17.88v6.02h-25.82v-39.29Z"/>
      <path class="cls-1" d="M1478.14,163.65h-16.38v11.52h18.32v5.9h-26.26v-39.29h25.3v5.9h-17.36v10.1h16.38v5.85Z"/>
      <path class="cls-1" d="M1518.24,179.92c-1.88.85-6.02,1.77-11.28,1.77-13.79,0-22.19-7.83-22.19-19.79,0-12.92,9.98-20.72,23.27-20.72,5.23,0,8.92.96,10.53,1.74l-1.72,5.72c-2.03-.83-4.92-1.54-8.48-1.54-8.86,0-15.24,5-15.24,14.45,0,8.66,5.58,14.14,15.14,14.14,3.21,0,6.57-.58,8.66-1.42l1.31,5.65Z"/>
      <path class="cls-1" d="M1561.87,161.04c0,13.16-8.83,20.68-20.8,20.68s-20.05-8.48-20.05-19.98,8.43-20.59,20.7-20.59,20.16,8.66,20.16,19.89ZM1529.4,161.59c0,8.02,4.48,14.39,12.07,14.39s12.01-6.45,12.01-14.67c0-7.41-4.07-14.42-11.99-14.42s-12.09,6.63-12.09,14.7Z"/>
      <path class="cls-1" d="M1605.4,165.05c-.26-5.07-.55-11.17-.52-16.53h-.18c-1.44,4.82-3.25,10.12-5.13,15.09l-6.38,17h-6.11l-5.76-16.77c-1.7-5.04-3.26-10.38-4.4-15.32h-.14c-.19,5.14-.45,11.42-.78,16.76l-.97,15.79h-7.4l2.89-39.29h10.43l5.66,15.78c1.56,4.64,2.96,9.3,4,13.68h.19c1.17-4.29,2.66-9.09,4.34-13.71l6.03-15.75h10.3l2.5,39.29h-7.74l-.84-16.03Z"/>
      <path class="cls-1" d="M1629.93,141.79v22.9c0,7.68,3.52,11.25,8.91,11.25,5.72,0,9.16-3.54,9.16-11.25v-22.9h7.95v22.44c0,12.1-6.89,17.49-17.39,17.49s-16.57-5.09-16.57-17.45v-22.48h7.95Z"/>
      <path class="cls-1" d="M1664.98,181.08v-39.29h9.08l11.23,16.86c2.86,4.34,5.39,8.9,7.4,13.17l.16-.04c-.56-5.22-.71-10.28-.71-16.28v-13.71h7.34v39.29h-8.23l-11.34-17.28c-2.77-4.31-5.66-9.1-7.79-13.55l-.21.04c.32,5.1.42,10.29.42,16.74v14.05h-7.34Z"/>
      <path class="cls-1" d="M1716.53,141.79v39.29h-7.95v-39.29h7.95Z"/>
      <path class="cls-1" d="M1756.83,179.92c-1.88.85-6.02,1.77-11.28,1.77-13.79,0-22.19-7.83-22.19-19.79,0-12.92,9.98-20.72,23.27-20.72,5.23,0,8.92.96,10.53,1.74l-1.72,5.72c-2.03-.83-4.92-1.54-8.48-1.54-8.86,0-15.24,5-15.24,14.45,0,8.66,5.58,14.14,15.14,14.14,3.21,0,6.57-.58,8.66-1.42l1.31,5.65Z"/>
      <path class="cls-1" d="M1772.71,169.97l-3.71,11.1h-8.21l13.95-39.29h10.11l14.12,39.29h-8.53l-3.93-11.1h-13.81ZM1785.21,164.55l-3.43-9.68c-.83-2.43-1.55-5.11-2.21-7.39h-.14c-.63,2.3-1.3,5.02-2.07,7.36l-3.36,9.71h11.2Z"/>
      <path class="cls-1" d="M1834.87,179.92c-1.88.85-6.02,1.77-11.28,1.77-13.79,0-22.19-7.83-22.19-19.79,0-12.92,9.98-20.72,23.27-20.72,5.23,0,8.92.96,10.53,1.74l-1.72,5.72c-2.03-.83-4.92-1.54-8.48-1.54-8.86,0-15.24,5-15.24,14.45,0,8.66,5.58,14.14,15.14,14.14,3.21,0,6.57-.58,8.66-1.42l1.31,5.65Z"/>
      <path class="cls-1" d="M1849.53,141.79v39.29h-7.95v-39.29h7.95Z"/>
      <path class="cls-1" d="M1897.21,161.04c0,13.16-8.83,20.68-20.8,20.68s-20.05-8.48-20.05-19.98,8.43-20.59,20.7-20.59,20.16,8.66,20.16,19.89ZM1864.74,161.59c0,8.02,4.48,14.39,12.07,14.39s12.01-6.45,12.01-14.67c0-7.41-4.07-14.42-11.99-14.42s-12.09,6.63-12.09,14.7Z"/>
      <path class="cls-1" d="M1904.02,181.08v-39.29h9.08l11.23,16.86c2.86,4.34,5.39,8.9,7.4,13.17l.16-.04c-.56-5.22-.71-10.28-.71-16.28v-13.71h7.34v39.29h-8.23l-11.34-17.28c-2.77-4.31-5.66-9.1-7.79-13.55l-.21.04c.32,5.1.42,10.29.42,16.74v14.05h-7.34Z"/>
      <path class="cls-1" d="M1971.95,163.65h-16.38v11.52h18.32v5.9h-26.26v-39.29h25.3v5.9h-17.36v10.1h16.38v5.85Z"/>
      <path class="cls-1" d="M1980.69,173.25c2.56,1.33,6.46,2.5,10.51,2.5,5.07,0,7.9-2.15,7.9-5.36,0-2.97-2.2-4.71-7.7-6.52-7.18-2.3-11.77-5.78-11.77-11.41,0-6.44,5.95-11.28,15.39-11.28,4.71,0,8.16.91,10.42,1.94l-1.9,5.79c-1.57-.74-4.6-1.87-8.68-1.87-5.04,0-7.18,2.42-7.18,4.73,0,3.01,2.51,4.43,8.32,6.43,7.55,2.61,11.18,6.03,11.18,11.68,0,6.32-5.27,11.8-16.48,11.8-4.6,0-9.38-1.18-11.75-2.5l1.76-5.94Z"/>
    </g>
    <g>
      <path class="cls-1" d="M148,242.26c-2.3.71-6.73,1.72-11.48,1.72-6.02,0-10.61-1.31-13.97-4.12-3.18-2.63-5.02-6.68-5-11.34.03-9.8,8.07-16.04,19.87-16.04,4.39,0,7.8.77,9.46,1.45l-1.44,4.54c-1.94-.74-4.33-1.32-8.11-1.32-7.59,0-12.95,3.9-12.95,11.07s5,11.17,12.38,11.17c2.36,0,4.09-.27,4.92-.61v-7.71h-6.28v-4.43h12.6v15.62Z"/>
      <path class="cls-1" d="M186.28,227.91c0,10.34-7.24,16.25-17.06,16.25s-16.45-6.66-16.45-15.71,6.92-16.18,16.98-16.18,16.54,6.81,16.54,15.64ZM159.65,228.35c0,6.3,3.67,11.31,9.9,11.31s9.85-5.07,9.85-11.53c0-5.83-3.34-11.33-9.84-11.33s-9.92,5.21-9.92,11.56Z"/>
      <path class="cls-1" d="M191.87,213.2c2.08-.37,5.85-.66,9.51-.66,4.78,0,7.77.54,10.2,1.96,2.2,1.18,3.68,3.16,3.68,5.81,0,2.84-2.04,5.43-5.93,6.66v.12c3.77.83,7.22,3.4,7.22,7.65,0,2.74-1.37,4.87-3.41,6.38-2.54,1.9-6.72,2.85-13.25,2.85-3.62,0-6.32-.21-8.01-.41v-30.35ZM198.33,225.4h3.34c4.52,0,7.03-1.84,7.03-4.45,0-2.9-2.54-4.23-6.64-4.23-1.93,0-3.02.11-3.73.25v8.44ZM198.33,239.57c.85.14,1.95.16,3.45.16,4.17,0,7.91-1.36,7.91-5.17,0-3.59-3.65-5.06-8.12-5.07h-3.24v10.07Z"/>
      <path class="cls-1" d="M228.86,212.78v30.88h-6.52v-30.88h6.52Z"/>
      <path class="cls-1" d="M256.26,229.96h-13.44v9.06h15.02v4.64h-21.54v-30.88h20.75v4.64h-14.24v7.94h13.44v4.6Z"/>
      <path class="cls-1" d="M263.55,213.2c2.48-.39,6.1-.66,9.88-.66,5.11,0,8.6.75,11,2.49,1.96,1.41,3.07,3.55,3.07,6.2,0,3.98-3.12,6.69-6.49,7.72v.13c2.58.85,4.09,2.98,4.97,5.98,1.13,3.86,2.11,7.41,2.82,8.61h-6.69c-.55-.89-1.41-3.44-2.4-7.29-1.02-4.03-2.71-5.33-6.42-5.41h-3.28v12.69h-6.46v-30.46ZM270.02,226.84h3.85c4.42,0,7.14-2.02,7.14-5.09,0-3.36-2.73-4.94-6.94-4.95-2.07,0-3.38.14-4.05.29v9.75Z"/>
      <path class="cls-1" d="M293.65,243.67v-30.88h7.44l9.21,13.26c2.35,3.41,4.43,7,6.07,10.35l.13-.03c-.46-4.1-.58-8.08-.58-12.8v-10.78h6.02v30.88h-6.75l-9.3-13.59c-2.27-3.39-4.64-7.15-6.39-10.65l-.17.03c.26,4.01.35,8.09.35,13.16v11.05h-6.02Z"/>
      <path class="cls-1" d="M361.07,227.91c0,10.34-7.24,16.25-17.06,16.25s-16.45-6.66-16.45-15.71,6.92-16.18,16.98-16.18,16.54,6.81,16.54,15.64ZM334.44,228.35c0,6.3,3.67,11.31,9.9,11.31s9.85-5.07,9.85-11.53c0-5.83-3.34-11.33-9.84-11.33s-9.92,5.21-9.92,11.56Z"/>
      <path class="cls-1" d="M377.61,213.2c2.08-.37,5.85-.66,9.51-.66,4.78,0,7.77.54,10.2,1.96,2.2,1.18,3.68,3.16,3.68,5.81,0,2.84-2.04,5.43-5.93,6.66v.12c3.77.83,7.22,3.4,7.22,7.65,0,2.74-1.37,4.87-3.41,6.38-2.54,1.9-6.72,2.85-13.25,2.85-3.62,0-6.32-.21-8.01-.41v-30.35ZM384.07,225.4h3.34c4.52,0,7.03-1.84,7.03-4.45,0-2.9-2.54-4.23-6.64-4.23-1.93,0-3.02.11-3.73.25v8.44ZM384.07,239.57c.85.14,1.95.16,3.45.16,4.17,0,7.91-1.36,7.91-5.17,0-3.59-3.65-5.06-8.12-5.07h-3.24v10.07Z"/>
      <path class="cls-1" d="M439.74,227.91c0,10.34-7.24,16.25-17.06,16.25s-16.45-6.66-16.45-15.71,6.92-16.18,16.98-16.18,16.54,6.81,16.54,15.64ZM413.1,228.35c0,6.3,3.67,11.31,9.9,11.31s9.85-5.07,9.85-11.53c0-5.83-3.34-11.33-9.84-11.33s-9.92,5.21-9.92,11.56Z"/>
      <path class="cls-1" d="M445.32,212.78h6.52v26.15h14.66v4.73h-21.18v-30.88Z"/>
      <path class="cls-1" d="M477.92,212.78v30.88h-6.52v-30.88h6.52Z"/>
      <path class="cls-1" d="M493.53,243.67l-11.54-30.88h7.11l4.87,14.04c1.38,3.89,2.56,7.51,3.49,11.25h.12c.95-3.65,2.24-7.41,3.62-11.16l5.2-14.13h6.93l-12.33,30.88h-7.46Z"/>
      <path class="cls-1" d="M521.4,234.94l-3.04,8.73h-6.73l11.44-30.88h8.29l11.59,30.88h-6.99l-3.23-8.73h-11.33ZM531.65,230.67l-2.81-7.61c-.68-1.91-1.27-4.01-1.81-5.81h-.12c-.52,1.81-1.06,3.95-1.69,5.79l-2.75,7.63h9.19Z"/>
      <path class="cls-1" d="M547.9,213.2c2.48-.39,6.1-.66,9.88-.66,5.11,0,8.6.75,11,2.49,1.96,1.41,3.07,3.55,3.07,6.2,0,3.98-3.12,6.69-6.49,7.72v.13c2.58.85,4.09,2.98,4.97,5.98,1.13,3.86,2.11,7.41,2.82,8.61h-6.69c-.55-.89-1.41-3.44-2.4-7.29-1.02-4.03-2.71-5.33-6.42-5.41h-3.28v12.69h-6.46v-30.46ZM554.36,226.84h3.85c4.42,0,7.14-2.02,7.14-5.09,0-3.36-2.73-4.94-6.94-4.95-2.07,0-3.38.14-4.05.29v9.75Z"/>
      <path class="cls-1" d="M584.52,212.78v30.88h-6.52v-30.88h6.52Z"/>
      <path class="cls-1" d="M599.12,234.94l-3.04,8.73h-6.73l11.44-30.88h8.29l11.59,30.88h-6.99l-3.23-8.73h-11.33ZM609.37,230.67l-2.81-7.61c-.68-1.91-1.27-4.01-1.81-5.81h-.12c-.52,1.81-1.06,3.95-1.69,5.79l-2.75,7.63h9.19Z"/>
      <path class="cls-1" d="M625.61,243.67v-30.88h7.44l9.21,13.26c2.35,3.41,4.43,7,6.07,10.35l.13-.03c-.46-4.1-.58-8.08-.58-12.8v-10.78h6.02v30.88h-6.75l-9.3-13.59c-2.27-3.39-4.64-7.15-6.39-10.65l-.17.03c.26,4.01.35,8.09.35,13.16v11.05h-6.02Z"/>
      <path class="cls-1" d="M693.03,227.91c0,10.34-7.24,16.25-17.06,16.25s-16.45-6.66-16.45-15.71,6.92-16.18,16.98-16.18,16.54,6.81,16.54,15.64ZM666.4,228.35c0,6.3,3.67,11.31,9.9,11.31s9.85-5.07,9.85-11.53c0-5.83-3.34-11.33-9.84-11.33s-9.92,5.21-9.92,11.56Z"/>
    </g>
    <g>
      <path class="cls-1" d="M74.87,381.41l-.25-18.36h-42.17l-10.14,18.36H0l63.7-114.08,1.63-2.92-17.27-.32,39.93-40.27,8.12,157.59h-21.24ZM44.6,340.79h29.64l-.82-52.53-28.82,52.53Z"/>
      <path class="cls-1" d="M182.11,333.76l-7.95,47.64c-1.17,3.96-.23,8.21,2.49,11.04,3.34,3.48,8.84,4.25,13.36,1.74,1.39.53,5.76,2.36,6.51,5.91,1.31,6.2-9.64,11.86-10.28,12.17-7.51,3.78-15.11,2.31-18.5,1.39-4.05-2.29-11-7.09-14.15-15.53-1.37-3.68-2.36-7.46-.82-16.73,2.29-13.8,4.58-27.6,6.87-41.4,2.6-15.24-.76-20.51-7.03-20.51-7.03,0-16.66,8.4-22.01,33.2l-4.74,28.7h-21.39l13.45-81.43h18.18l-2.6,15.63c8.55-13.08,19.1-19.53,29.18-19.53,16.5,0,23.38,14.05,19.41,37.69Z"/>
      <path class="cls-1" d="M256.8,299.98v12.3l-37.13,47.84h30.1l-6.88,21.29h-52.11l-1.53-13.08,37.44-47.06h-28.27l6.27-21.29h52.11Z"/>
      <path class="cls-1" d="M261.51,344.5c0-26.36,17.57-48.43,40.04-48.43,18.95,0,32.7,16.79,32.7,40.81,0,26.95-16.96,47.46-39.12,47.46-19.26,0-33.62-16.02-33.62-39.84ZM314.38,337.47c0-11.72-6.42-18.55-13.75-18.55-10.39,0-19.1,10.93-19.1,24.6,0,11.52,6.42,17.96,14.21,17.96,10.39,0,18.64-10.54,18.64-24.02Z"/>
      <path class="cls-1" d="M485.91,299.98l-5.5,21.09h-12.99l-10.09,60.34h-21.09l10.08-60.34h-11.31v-21.09h15.44l6.42-39.06h19.87l-6.57,39.06h15.74Z"/>
      <path class="cls-1" d="M548.85,346.26h-45.84c.76,10.74,7.03,15.62,18.34,15.62,8.4,0,16.5-2.53,24.45-7.81l-3.67,22.07c-8.4,5.86-14.98,8.2-25.98,8.2-17.27,0-31.78-12.31-31.78-35.74,0-27.33,17.57-52.52,42.17-52.52,15.59,0,26.44,11.32,26.44,28.9,0,5.86-1.83,15.43-4.12,21.29ZM505.3,330.63h30.1c.15-1.37.31-2.73.31-3.9,0-5.66-3.21-11.13-11.77-11.13-9.01,0-15.44,6.25-18.64,15.03Z"/>
      <path class="cls-1" d="M623.39,299.98h16.81l-12.23,73.62c-6.11,37.69-23.07,49.8-44.01,49.8-10.69,0-22.15-4.88-28.73-11.72l6.72-22.84c5.04,5.86,14.52,10.35,23.99,10.35,11.46,0,21.55-6.64,25.67-27.53-6.11,8-14.36,12.88-23.23,12.88-13.14,0-27.2-13.08-27.2-36.71,0-27.92,15.59-51.74,35.76-51.74,10.7,0,18.64,6.25,22.77,16.79l3.67-12.89ZM614.68,337.08c0-10.15-5.34-18.75-14.82-18.75s-17.88,10.15-17.88,24.41c0,12.11,5.81,19.33,14.21,19.33,10.54,0,18.49-10.15,18.49-25Z"/>
      <path class="cls-1" d="M651.32,340.79l6.72-40.82h21.24l-6.72,40.82c-2.6,15.42,3.52,19.32,9.63,19.32,6.42,0,12.22-3.71,14.52-17.38l7.03-42.76h21.39l-7.18,43.16c-4.74,28.71-18.64,41.4-38.36,41.4-15.43,0-33.61-11.32-28.27-43.73Z"/>
      <path class="cls-1" d="M729.52,381.41l13.45-81.43h21.39l-13.6,81.43h-21.24ZM746.94,255.65c0-8.78,5.8-16.2,12.83-16.2s12.68,7.42,12.68,16.2-5.66,16.4-12.68,16.4-12.83-7.41-12.83-16.4Z"/>
      <path class="cls-1" d="M405.72,299.98h17.42l-13.45,81.43h-17.42l1.22-7.42c-5.8,6.64-13.14,10.54-21.24,10.54-13.14,0-27.2-13.08-27.2-36.71,0-27.92,15.74-51.74,35.76-51.74,9.93,0,17.57,5.47,22.01,14.84l2.9-10.93ZM398.54,337.08c0-10.15-5.35-18.75-14.67-18.75-9.78,0-17.88,10.15-17.88,24.41,0,12.11,5.81,19.33,14.06,19.33,10.7,0,18.49-10.15,18.49-25ZM418.77,259.14l-27.08,26.74-13.37-.6,19.87-27.06,20.58.92Z"/>
    </g>
    <g>
      <path class="cls-1" d="M982.42,392.73l1-22.28h-54.63l-14.46,22.28h-28.9l90.77-138.45,2.33-3.55-22.35-.39,54.65-48.87-.89,191.26h-27.51ZM946.15,343.44h38.4l2.74-63.76-41.14,63.76Z"/>
      <path class="cls-1" d="M1025.63,392.73l18.01-98.63h28.64l-18.21,98.63h-28.44ZM1048.96,240.41c0-10.65,7.78-19.64,17.18-19.64s16.99,8.99,16.99,19.64-7.57,19.87-16.99,19.87-17.18-8.99-17.18-19.87Z"/>
      <path class="cls-1" d="M1156.15,294.1l-7.36,25.55h-17.4l-13.5,73.08h-28.23l13.5-73.08h-15.14v-25.55h20.67l8.59-47.31h26.6l-8.79,47.31h21.07Z"/>
    </g>
    <path class="cls-1" d="M840.97,417.23c-1.38,0-2.5-1.11-2.5-2.49l-1.39-412.23c0-1.38,1.11-2.5,2.49-2.51h0c1.38,0,2.5,1.11,2.5,2.49l1.39,412.23c0,1.38-1.11,2.5-2.49,2.51h0Z"/>
    <path class="cls-1" d="M546.02,118.87l-30.34,21.64,11.21,34.93c.02.06-.05.11-.1.08l-29.97-21.55-30.34,21.65c-.05.04-.13-.01-.1-.08l11.82-34.96-29.96-21.55c-.05-.04-.03-.12.04-.12l37.27-.06,11.82-34.97c.02-.06.11-.06.13,0l11.21,34.93,37.27-.06c.07,0,.09.08.04.12Z"/>
    <polygon class="cls-1" points="88.56 66.51 88.56 96.25 496.99 44.59 700.09 117.12 700.09 92.07 496.99 15.89 88.56 66.51"/>
    <path class="cls-2" d="M496.99,61.4L88.56,112.02v29.74l401.01-50.72,7.31-21.61c.19-.57.99-.56,1.18,0l7.63,23.77,194.41,64.58v-27.28l-203.1-69.11Z"/>
    <g>
      <polygon class="cls-3" points="471.01 144.64 435.03 118.77 34.64 155.24 34.64 183.63 468 153.54 471.01 144.64"/>
      <polygon class="cls-3" points="551.22 124.23 522.73 144.56 525.92 154.5 742.18 203.56 742.71 179.8 551.22 124.23"/>
    </g>
  </g>
</svg>